<svg width="28" height="28" viewBox="0 0 28 28" fill="none" xmlns="http://www.w3.org/2000/svg">
<path fill-rule="evenodd" clip-rule="evenodd" d="M2.65234 19.4414H1.09375H0.546875V19.9883V20.2891C0.546875 22.2221 2.11388 23.7891 4.04688 23.7891H15.2031V24.0078C15.2031 24.9743 15.9866 25.7578 16.9531 25.7578H25.8672C26.8337 25.7578 27.6172 24.9743 27.6172 24.0078V22.4766V21.3828V10.8281C27.6172 9.86163 26.8337 9.07812 25.8672 9.07812H25.3203V9.02344V3.33594C25.3203 2.9735 25.0265 2.67969 24.6641 2.67969H3.30859C2.94616 2.67969 2.65234 2.9735 2.65234 3.33594V19.4414ZM3.74609 19.4414H8.97787C9.58092 19.4414 10.0819 19.8785 10.1813 20.4531H15.2031V10.8281C15.2031 9.86163 15.9866 9.07812 16.9531 9.07812H24.2266V9.02344V3.77344H3.74609V19.4414ZM16.2969 20.4531V21V21.3828H26.5234V10.8281C26.5234 10.4657 26.2296 10.1719 25.8672 10.1719H16.9531C16.5907 10.1719 16.2969 10.4657 16.2969 10.8281V20.4531ZM16.2969 22.4766V23.2422V23.7891V24.0078C16.2969 24.3703 16.5907 24.6641 16.9531 24.6641H25.8672C26.2296 24.6641 26.5234 24.3703 26.5234 24.0078V22.4766H16.2969ZM15.2031 21.5469H9.98958C9.5013 21.5469 9.10547 21.151 9.10547 20.6628C9.10547 20.5923 9.04834 20.5352 8.97787 20.5352H1.65306C1.77631 21.7485 2.80102 22.6953 4.04688 22.6953H15.2031V22.4766V21.5469ZM20.0703 23.0234H22.8047V24.1172H20.0703V23.0234ZM24.2851 15.6719L24.6718 15.2852L23.8984 14.5118L23.5117 14.8985L20.5078 17.9024L19.3086 16.7031L18.9219 16.3164L18.1485 17.0898L18.5352 17.4765L20.1211 19.0625L20.5078 19.4492L20.8945 19.0625L24.2851 15.6719ZM13.3515 9.07812L12.9648 9.46482L9.5742 12.8554L9.1875 13.2421L8.8008 12.8554L7.21486 11.2695L6.82816 10.8828L7.60156 10.1094L7.98826 10.4961L9.1875 11.6954L12.1914 8.69143L12.5781 8.30473L13.3515 9.07812Z" fill="#22379C"/>
</svg>
