<svg width="24" height="24" viewBox="0 0 24 24" fill="none" xmlns="http://www.w3.org/2000/svg">
<mask id="path-1-inside-1_255_4907" fill="white">
<path fill-rule="evenodd" clip-rule="evenodd" d="M11.5312 17.9993C11.5312 17.303 11.8177 16.647 12.1914 16.0595C12.7826 15.13 13.125 14.0269 13.125 12.8438C13.125 9.53004 10.4387 6.84375 7.125 6.84375C3.81129 6.84375 1.125 9.53004 1.125 12.8438C1.125 14.0767 1.49692 15.2229 2.1347 16.1761C2.52 16.7519 2.8125 17.4027 2.8125 18.0956C2.8125 19.5702 4.00791 20.7656 5.48252 20.7656H8.76489C10.2927 20.7656 11.5312 19.5271 11.5312 17.9993Z"/>
</mask>
<path d="M2.1347 16.1761L1.35552 16.6974L2.1347 16.1761ZM12.1875 12.8438C12.1875 13.8434 11.8987 14.7728 11.4003 15.5564L12.9824 16.5626C13.6664 15.4873 14.0625 14.2103 14.0625 12.8438H12.1875ZM7.125 7.78125C9.92094 7.78125 12.1875 10.0478 12.1875 12.8438H14.0625C14.0625 9.01227 10.9565 5.90625 7.125 5.90625V7.78125ZM2.0625 12.8438C2.0625 10.0478 4.32906 7.78125 7.125 7.78125V5.90625C3.29352 5.90625 0.1875 9.01227 0.1875 12.8438H2.0625ZM2.91387 15.6547C2.3761 14.851 2.0625 13.8854 2.0625 12.8438H0.1875C0.1875 14.2681 0.617743 15.5948 1.35552 16.6974L2.91387 15.6547ZM8.76489 19.8281H5.48252V21.7031H8.76489V19.8281ZM1.875 18.0956C1.875 20.088 3.49014 21.7031 5.48252 21.7031V19.8281C4.52567 19.8281 3.75 19.0525 3.75 18.0956H1.875ZM1.35552 16.6974C1.69084 17.1986 1.875 17.6653 1.875 18.0956H3.75C3.75 17.1402 3.34917 16.3053 2.91387 15.6547L1.35552 16.6974ZM8.76489 21.7031C10.8105 21.7031 12.4688 20.0448 12.4688 17.9993H10.5938C10.5938 19.0093 9.77494 19.8281 8.76489 19.8281V21.7031ZM11.4003 15.5564C10.9827 16.213 10.5938 17.0482 10.5938 17.9993H12.4688C12.4688 17.5578 12.6527 17.081 12.9824 16.5626L11.4003 15.5564Z" fill="#22379C" mask="url(#path-1-inside-1_255_4907)"/>
<rect x="5.25" y="20.3438" width="3.75" height="1.5" rx="0.75" stroke="#22379C" stroke-width="0.9375"/>
<rect x="5.25" y="21.8906" width="3.75" height="1.5" rx="0.75" stroke="#22379C" stroke-width="0.9375"/>
<path d="M16.2891 15.1172H12.2109V15.5391V16.1953V23.4141H20.4141V12.2812H16.2891V15.1172ZM16.2891 15.1172V22.9453" stroke="#22379C" stroke-width="0.9375" stroke-linecap="round" stroke-linejoin="round"/>
<path d="M17.8594 12.1641V8.92969C19.8516 7.63281 22.8281 4.15781 18.7969 0.632812V3.96094L16.4297 5.4375" stroke="#22379C" stroke-width="0.9375" stroke-linecap="round" stroke-linejoin="round"/>
<path d="M14.8926 14.625V8.92969C12.9004 7.63281 9.92383 4.15781 13.9551 0.632812V3.96094L16.3223 5.4375" stroke="#22379C" stroke-width="0.9375" stroke-linecap="round" stroke-linejoin="round"/>
<rect x="6.65625" y="14.8594" width="0.9375" height="5.01562" fill="#22379C"/>
<rect x="5.01562" y="13.9219" width="4.21875" height="0.9375" rx="0.46875" fill="#22379C"/>
<path d="M22.125 16.125V7.6875L20.7422 9.07031" stroke="#22379C" stroke-width="0.9375" stroke-linecap="round" stroke-linejoin="round"/>
<path d="M22.125 16.125V7.6875L23.5078 9.07031" stroke="#22379C" stroke-width="0.9375" stroke-linecap="round" stroke-linejoin="round"/>
<circle cx="22.125" cy="18" r="0.46875" fill="#22379C"/>
<circle cx="22.125" cy="19.6875" r="0.46875" fill="#22379C"/>
<circle cx="22.125" cy="21.375" r="0.46875" fill="#22379C"/>
<circle cx="22.125" cy="23.0625" r="0.46875" fill="#22379C"/>
<circle cx="1.125" cy="16.3125" r="0.46875" fill="#22379C"/>
<circle cx="0.46875" cy="14.0625" r="0.46875" fill="#22379C"/>
<circle cx="0.46875" cy="11.5781" r="0.46875" fill="#22379C"/>
<circle cx="1.17188" cy="9.375" r="0.46875" fill="#22379C"/>
<circle cx="2.76562" cy="7.5" r="0.46875" fill="#22379C"/>
<circle cx="4.73438" cy="6.375" r="0.46875" fill="#22379C"/>
<circle cx="7.125" cy="5.95312" r="0.46875" fill="#22379C"/>
<circle cx="9.65625" cy="6.42188" r="0.46875" fill="#22379C"/>
</svg>
