<svg width="24" height="24" viewBox="0 0 24 24" fill="none" xmlns="http://www.w3.org/2000/svg">
<path d="M4.5 5.96257C4.5 5.76324 4.62606 5.58571 4.81425 5.52002L9.7901 3.78288C11.1907 3.29393 12.7156 3.29393 14.1161 3.78288L19.092 5.52002C19.2802 5.58571 19.4062 5.76324 19.4062 5.96257V12.0973C19.4062 12.8145 19.2232 13.5197 18.8745 14.1463C17.4129 16.7725 15.2871 18.9686 12.7099 20.5149L12.4712 20.6581C12.1546 20.8481 11.7586 20.846 11.444 20.6528L11.1987 21.0522L11.444 20.6528L11.2535 20.5358C8.7095 18.973 6.59405 16.8021 5.09764 14.2184C4.70616 13.5425 4.5 12.7752 4.5 11.9941V5.96257Z" stroke="#22379C" stroke-width="0.9375"/>
<path d="M6.0647 6.9254C6.0647 6.80482 6.14095 6.69743 6.2548 6.65769L10.2478 5.26369C11.3519 4.87822 12.5541 4.87822 13.6582 5.26369L17.6512 6.65769C17.7651 6.69743 17.8413 6.80482 17.8413 6.9254V11.8484C17.8413 12.4081 17.6985 12.9585 17.4263 13.4476C16.2613 15.5408 14.5668 17.2913 12.5126 18.5238L12.7538 18.9258L12.5126 18.5238L12.3211 18.6387C12.0967 18.7734 11.8159 18.7719 11.5929 18.6349L11.4401 18.541C9.41165 17.295 7.72494 15.5641 6.53182 13.5041C6.22583 12.9758 6.0647 12.376 6.0647 11.7655V6.9254Z" stroke="#22379C" stroke-width="0.9375"/>
<mask id="path-3-inside-1_766_22662" fill="white">
<rect x="9.32812" y="10.3594" width="5.39062" height="4.45312" rx="0.796875"/>
</mask>
<rect x="9.32812" y="10.3594" width="5.39062" height="4.45312" rx="0.796875" stroke="#22379C" stroke-width="1.875" mask="url(#path-3-inside-1_766_22662)"/>
<circle cx="12" cy="12.2344" r="0.703125" fill="#22379C"/>
<path d="M11.625 12.7031H12.375V13.2656C12.375 13.4727 12.2071 13.6406 12 13.6406C11.7929 13.6406 11.625 13.4727 11.625 13.2656V12.7031Z" fill="#22379C"/>
<path d="M10.6875 9.16406C10.6875 8.76279 11.0128 8.4375 11.4141 8.4375H12.5859C12.9872 8.4375 13.3125 8.76279 13.3125 9.16406V10.8281H10.6875V9.16406Z" stroke="#22379C" stroke-width="0.9375"/>
<circle cx="17.2031" cy="1.3125" r="0.84375" stroke="#22379C" stroke-width="0.9375"/>
<circle cx="22.6875" cy="11.3906" r="0.84375" transform="rotate(90 22.6875 11.3906)" stroke="#22379C" stroke-width="0.9375"/>
<circle cx="21.8906" cy="14.0625" r="0.84375" transform="rotate(90 21.8906 14.0625)" stroke="#22379C" stroke-width="0.9375"/>
<circle cx="8.39062" cy="22.6875" r="0.84375" transform="rotate(-180 8.39062 22.6875)" stroke="#22379C" stroke-width="0.9375"/>
<circle cx="1.3125" cy="8.03906" r="0.84375" transform="rotate(-90 1.3125 8.03906)" stroke="#22379C" stroke-width="0.9375"/>
<rect x="16.7344" y="1.82812" width="0.9375" height="2.8125" fill="#22379C"/>
<rect x="22.1719" y="10.9219" width="0.9375" height="2.8125" transform="rotate(90 22.1719 10.9219)" fill="#22379C"/>
<rect x="20.8594" y="13.5938" width="0.9375" height="1.875" transform="rotate(90 20.8594 13.5938)" fill="#22379C"/>
<rect x="8.85938" y="21.0938" width="0.9375" height="2.8125" transform="rotate(-180 8.85938 21.0938)" fill="#22379C"/>
<rect x="1.82812" y="8.50781" width="0.9375" height="2.8125" transform="rotate(-90 1.82812 8.50781)" fill="#22379C"/>
<rect x="3" y="11.25" width="0.9375" height="1.64062" transform="rotate(-90 3 11.25)" fill="#22379C"/>
<circle cx="2.01562" cy="10.8281" r="0.84375" transform="rotate(-90 2.01562 10.8281)" stroke="#22379C" stroke-width="0.9375"/>
</svg>
