<svg width="28" height="28" viewBox="0 0 28 28" fill="none" xmlns="http://www.w3.org/2000/svg">
<circle cx="14.0547" cy="14" r="8.14844" stroke="#22379C" stroke-width="1.09375"/>
<rect x="16.2422" y="8.75" width="1.64062" height="9.13281" rx="0.820312" stroke="#22379C" stroke-width="1.09375"/>
<mask id="path-3-inside-1_766_35854" fill="white">
<path d="M17.8281 15.5859C18.4373 15.5859 19.0215 15.3439 19.4523 14.9132C19.883 14.4825 20.125 13.8982 20.125 13.2891C20.125 12.6799 19.883 12.0957 19.4523 11.6649C19.0215 11.2342 18.4373 10.9922 17.8281 10.9922L17.8281 11.9287C18.1889 11.9287 18.5349 12.072 18.7901 12.3271C19.0452 12.5823 19.1885 12.9283 19.1885 13.2891C19.1885 13.6499 19.0452 13.9959 18.7901 14.251C18.5349 14.5061 18.1889 14.6494 17.8281 14.6494V15.5859Z"/>
</mask>
<path d="M17.8281 15.5859C18.4373 15.5859 19.0215 15.3439 19.4523 14.9132C19.883 14.4825 20.125 13.8982 20.125 13.2891C20.125 12.6799 19.883 12.0957 19.4523 11.6649C19.0215 11.2342 18.4373 10.9922 17.8281 10.9922L17.8281 11.9287C18.1889 11.9287 18.5349 12.072 18.7901 12.3271C19.0452 12.5823 19.1885 12.9283 19.1885 13.2891C19.1885 13.6499 19.0452 13.9959 18.7901 14.251C18.5349 14.5061 18.1889 14.6494 17.8281 14.6494V15.5859Z" fill="#D9D9D9" stroke="#22379C" stroke-width="2.1875" mask="url(#path-3-inside-1_766_35854)"/>
<path d="M9.13281 12.3594C9.13281 11.9667 9.45111 11.6484 9.84375 11.6484H11.375V14.9844H9.84375C9.45111 14.9844 9.13281 14.6661 9.13281 14.2734V12.3594Z" stroke="#22379C" stroke-width="1.09375"/>
<path d="M9.89844 15.0391H11.375V18.0195C11.375 18.4273 11.0445 18.7578 10.6367 18.7578C10.229 18.7578 9.89844 18.4273 9.89844 18.0195V15.0391Z" stroke="#22379C" stroke-width="1.09375"/>
<path d="M11.375 11.7578C11.55 11.6484 14.4375 10.3451 15.8594 9.70703L16.3789 9.48828" stroke="#22379C" stroke-width="1.09375"/>
<path d="M16.3789 17.1445C16.2039 17.0352 13.3164 15.7318 11.8945 15.0938L11.375 14.875" stroke="#22379C" stroke-width="1.09375"/>
<circle cx="3.9375" cy="3.82324" r="2.67969" stroke="#22379C" stroke-width="1.09375"/>
<rect x="5.76343" y="6.34473" width="1.09375" height="2.90429" transform="rotate(-45 5.76343 6.34473)" fill="#22379C"/>
<circle cx="3.9375" cy="24.1924" r="2.67969" transform="rotate(-90 3.9375 24.1924)" stroke="#22379C" stroke-width="1.09375"/>
<rect x="6.45947" y="22.3662" width="1.09375" height="2.90429" transform="rotate(-135 6.45947 22.3662)" fill="#22379C"/>
<circle r="2.67969" transform="matrix(-1 -2.18557e-08 -2.18557e-08 1 24.0122 3.82324)" stroke="#22379C" stroke-width="1.09375"/>
<rect width="1.09375" height="2.90429" transform="matrix(-0.707107 -0.707107 -0.707107 0.707107 22.1865 6.34473)" fill="#22379C"/>
<circle r="2.67969" transform="matrix(3.37806e-08 -1 -1 -3.37806e-08 24.0078 24.1924)" stroke="#22379C" stroke-width="1.09375"/>
<rect width="1.09375" height="2.90429" transform="matrix(0.707107 -0.707107 -0.707107 -0.707107 21.4858 22.3662)" fill="#22379C"/>
</svg>
