<svg width="28" height="28" viewBox="0 0 28 28" fill="none" xmlns="http://www.w3.org/2000/svg">
<circle cx="13.9453" cy="6.17969" r="3.55469" stroke="#22379C" stroke-width="1.09375"/>
<path d="M7.73828 19.6875H4.15625C4.15625 18.3876 4.41228 17.1005 4.90972 15.8995C5.40717 14.6986 6.13628 13.6074 7.05543 12.6882C7.97459 11.7691 9.06579 11.04 10.2667 10.5425C11.4677 10.0451 12.7548 9.78906 14.0547 9.78906C15.3546 9.78906 16.6417 10.0451 17.8427 10.5425C19.0436 11.04 20.1348 11.7691 21.0539 12.6882C21.9731 13.6074 22.7022 14.6986 23.1997 15.8995C23.6971 17.1005 23.9531 18.3876 23.9531 19.6875H20.1523" stroke="#22379C" stroke-width="1.09375"/>
<path d="M13.9453 21C14.8514 21 15.5859 20.2655 15.5859 19.3594C15.5859 18.4533 14.8514 17.7188 13.9453 17.7188C13.0392 17.7188 12.3047 18.4533 12.3047 19.3594C12.3047 20.2655 13.0392 21 13.9453 21Z" stroke="#22379C" stroke-width="1.09375" stroke-linecap="round" stroke-linejoin="round"/>
<path d="M17.9922 21C17.9194 21.1649 17.8977 21.3479 17.9298 21.5253C17.962 21.7027 18.0466 21.8664 18.1727 21.9953L18.2055 22.0281C18.3072 22.1297 18.3878 22.2503 18.4429 22.3831C18.4979 22.5159 18.5263 22.6582 18.5263 22.802C18.5263 22.9457 18.4979 23.088 18.4429 23.2208C18.3878 23.3536 18.3072 23.4742 18.2055 23.5758C18.1039 23.6775 17.9833 23.7581 17.8505 23.8132C17.7177 23.8682 17.5754 23.8966 17.4316 23.8966C17.2879 23.8966 17.1456 23.8682 17.0128 23.8132C16.88 23.7581 16.7594 23.6775 16.6578 23.5758L16.625 23.543C16.4961 23.4169 16.3324 23.3323 16.155 23.3002C15.9776 23.268 15.7946 23.2897 15.6297 23.3625C15.4679 23.4318 15.33 23.5469 15.2328 23.6937C15.1357 23.8404 15.0835 24.0123 15.0828 24.1883V24.2812C15.0828 24.5713 14.9676 24.8495 14.7625 25.0546C14.5573 25.2598 14.2791 25.375 13.9891 25.375C13.699 25.375 13.4208 25.2598 13.2157 25.0546C13.0105 24.8495 12.8953 24.5713 12.8953 24.2812V24.232C12.8911 24.051 12.8325 23.8755 12.7272 23.7282C12.6218 23.5809 12.4746 23.4687 12.3047 23.4062C12.1397 23.3335 11.9568 23.3117 11.7794 23.3439C11.602 23.3761 11.4383 23.4606 11.3094 23.5867L11.2766 23.6195C11.175 23.7212 11.0544 23.8019 10.9216 23.8569C10.7888 23.912 10.6465 23.9403 10.5027 23.9403C10.359 23.9403 10.2167 23.912 10.0839 23.8569C9.95111 23.8019 9.83049 23.7212 9.72891 23.6195C9.62721 23.518 9.54654 23.3973 9.4915 23.2645C9.43645 23.1318 9.40812 22.9894 9.40812 22.8457C9.40812 22.702 9.43645 22.5596 9.4915 22.4269C9.54654 22.2941 9.62721 22.1735 9.72891 22.0719L9.76172 22.0391C9.88779 21.9102 9.97237 21.7465 10.0045 21.5691C10.0367 21.3917 10.015 21.2087 9.94219 21.0437C9.87286 20.882 9.75776 20.7441 9.61104 20.6469C9.46431 20.5497 9.29238 20.4976 9.11641 20.4969H9.02344C8.73336 20.4969 8.45516 20.3816 8.25004 20.1765C8.04492 19.9714 7.92969 19.6932 7.92969 19.4031C7.92969 19.113 8.04492 18.8348 8.25004 18.6297C8.45516 18.4246 8.73336 18.3094 9.02344 18.3094H9.07266C9.25367 18.3051 9.42922 18.2465 9.57649 18.1412C9.72376 18.0359 9.83594 17.8887 9.89844 17.7188C9.97123 17.5538 9.99295 17.3708 9.96078 17.1934C9.92862 17.016 9.84404 16.8523 9.71797 16.7234L9.68516 16.6906C9.58346 16.589 9.50279 16.4684 9.44775 16.3356C9.3927 16.2029 9.36437 16.0605 9.36437 15.9168C9.36437 15.7731 9.3927 15.6307 9.44775 15.498C9.50279 15.3652 9.58346 15.2445 9.68516 15.143C9.78674 15.0413 9.90736 14.9606 10.0401 14.9056C10.1729 14.8505 10.3152 14.8222 10.459 14.8222C10.6027 14.8222 10.745 14.8505 10.8778 14.9056C11.0106 14.9606 11.1312 15.0413 11.2328 15.143L11.2656 15.1758C11.3945 15.3019 11.5582 15.3864 11.7356 15.4186C11.913 15.4508 12.096 15.429 12.2609 15.3562H12.3047C12.4664 15.2869 12.6044 15.1718 12.7016 15.0251C12.7987 14.8784 12.8509 14.7064 12.8516 14.5305V14.4375C12.8516 14.1474 12.9668 13.8692 13.1719 13.6641C13.377 13.459 13.6552 13.3438 13.9453 13.3438C14.2354 13.3438 14.5136 13.459 14.7187 13.6641C14.9238 13.8692 15.0391 14.1474 15.0391 14.4375V14.4867C15.0398 14.6627 15.0919 14.8346 15.1891 14.9813C15.2862 15.1281 15.4242 15.2432 15.5859 15.3125C15.7509 15.3853 15.9339 15.407 16.1113 15.3748C16.2887 15.3427 16.4524 15.2581 16.5812 15.132L16.6141 15.0992C16.7156 14.9975 16.8363 14.9169 16.969 14.8618C17.1018 14.8068 17.2442 14.7784 17.3879 14.7784C17.5316 14.7784 17.674 14.8068 17.8067 14.8618C17.9395 14.9169 18.0601 14.9975 18.1617 15.0992C18.2634 15.2008 18.3441 15.3214 18.3991 15.4542C18.4542 15.587 18.4825 15.7293 18.4825 15.873C18.4825 16.0168 18.4542 16.1591 18.3991 16.2919C18.3441 16.4247 18.2634 16.5453 18.1617 16.6469L18.1289 16.6797C18.0028 16.8086 17.9183 16.9723 17.8861 17.1497C17.8539 17.3271 17.8756 17.5101 17.9484 17.675V17.7188C18.0178 17.8805 18.1329 18.0184 18.2796 18.1156C18.4263 18.2128 18.5982 18.2649 18.7742 18.2656H18.8672C19.1573 18.2656 19.4355 18.3809 19.6406 18.586C19.8457 18.7911 19.9609 19.0693 19.9609 19.3594C19.9609 19.6495 19.8457 19.9277 19.6406 20.1328C19.4355 20.3379 19.1573 20.4531 18.8672 20.4531H18.818C18.642 20.4538 18.4701 20.506 18.3233 20.6031C18.1766 20.7003 18.0615 20.8383 17.9922 21V21Z" stroke="#22379C" stroke-width="1.09375" stroke-linecap="round" stroke-linejoin="round"/>
</svg>
