<svg width="24" height="24" viewBox="0 0 24 24" fill="none" xmlns="http://www.w3.org/2000/svg">
<path d="M21 15C21 15.5304 20.7893 16.0391 20.4142 16.4142C20.0391 16.7893 19.5304 17 19 17H7L3 21V5C3 4.46957 3.21071 3.96086 3.58579 3.58579C3.96086 3.21071 4.46957 3 5 3H19C19.5304 3 20.0391 3.21071 20.4142 3.58579C20.7893 3.96086 21 4.46957 21 5V15Z" stroke="#22379C" stroke-width="0.9375" stroke-linecap="round" stroke-linejoin="round"/>
<rect x="6.75" y="6.375" width="10.5" height="0.9375" rx="0.46875" fill="#22379C"/>
<rect x="6.75" y="9.1875" width="10.5" height="0.9375" rx="0.46875" fill="#22379C"/>
<rect x="6.75" y="12" width="6.09375" height="0.9375" rx="0.46875" fill="#22379C"/>
<rect x="14.9531" y="12" width="2.29688" height="0.9375" rx="0.46875" fill="#22379C"/>
</svg>
