<svg width="24" height="26" viewBox="0 0 24 26" fill="none" xmlns="http://www.w3.org/2000/svg">
<path d="M2.375 4.19531L3.38672 3.18359H20.6133L21.625 4.19531V21.7227L20.6133 22.7344H3.38672L2.375 21.7227V5.89062" stroke="#22379C" stroke-width="1.09375" stroke-linecap="round"/>
<path d="M0.078125 7.3125C0.078125 7.01047 0.322969 6.76562 0.625 6.76562H1.82812V7.85938H0.625C0.322969 7.85938 0.078125 7.61453 0.078125 7.3125Z" fill="#22379C"/>
<path d="M0.078125 9.0625C0.078125 8.76047 0.322969 8.51562 0.625 8.51562H1.82812V9.60938H0.625C0.322969 9.60938 0.078125 9.36453 0.078125 9.0625Z" fill="#22379C"/>
<path d="M0.078125 10.8125C0.078125 10.5105 0.322969 10.2656 0.625 10.2656H1.82812V11.3594H0.625C0.322969 11.3594 0.078125 11.1145 0.078125 10.8125Z" fill="#22379C"/>
<path d="M0.078125 12.5625C0.078125 12.2605 0.322969 12.0156 0.625 12.0156H1.82812V13.1094H0.625C0.322969 13.1094 0.078125 12.8645 0.078125 12.5625Z" fill="#22379C"/>
<path d="M0.078125 14.3125C0.078125 14.0105 0.322969 13.7656 0.625 13.7656H1.82812V14.8594H0.625C0.322969 14.8594 0.078125 14.6145 0.078125 14.3125Z" fill="#22379C"/>
<path d="M0.078125 16.0625C0.078125 15.7605 0.322969 15.5156 0.625 15.5156H1.82812V16.6094H0.625C0.322969 16.6094 0.078125 16.3645 0.078125 16.0625Z" fill="#22379C"/>
<path d="M0.078125 17.8125C0.078125 17.5105 0.322969 17.2656 0.625 17.2656H1.82812V18.3594H0.625C0.322969 18.3594 0.078125 18.1145 0.078125 17.8125Z" fill="#22379C"/>
<path d="M0.078125 19.5625C0.078125 19.2605 0.322969 19.0156 0.625 19.0156H1.82812V20.1094H0.625C0.322969 20.1094 0.078125 19.8645 0.078125 19.5625Z" fill="#22379C"/>
<path d="M0.078125 21.3125C0.078125 21.0105 0.322969 20.7656 0.625 20.7656H1.82812V21.8594H0.625C0.322969 21.8594 0.078125 21.6145 0.078125 21.3125Z" fill="#22379C"/>
<path d="M22.1719 6.10938H23.375C23.677 6.10938 23.9219 6.35422 23.9219 6.65625C23.9219 6.95828 23.677 7.20312 23.375 7.20312H22.1719V6.10938Z" fill="#22379C"/>
<path d="M22.1719 7.85938H23.375C23.677 7.85938 23.9219 8.10422 23.9219 8.40625C23.9219 8.70828 23.677 8.95312 23.375 8.95312H22.1719V7.85938Z" fill="#22379C"/>
<path d="M22.1719 9.60938H23.375C23.677 9.60938 23.9219 9.85422 23.9219 10.1562C23.9219 10.4583 23.677 10.7031 23.375 10.7031H22.1719V9.60938Z" fill="#22379C"/>
<path d="M22.1719 11.3594H23.375C23.677 11.3594 23.9219 11.6042 23.9219 11.9062C23.9219 12.2083 23.677 12.4531 23.375 12.4531H22.1719V11.3594Z" fill="#22379C"/>
<path d="M22.1719 13.1094H23.375C23.677 13.1094 23.9219 13.3542 23.9219 13.6562C23.9219 13.9583 23.677 14.2031 23.375 14.2031H22.1719V13.1094Z" fill="#22379C"/>
<path d="M22.1719 14.8594H23.375C23.677 14.8594 23.9219 15.1042 23.9219 15.4062C23.9219 15.7083 23.677 15.9531 23.375 15.9531H22.1719V14.8594Z" fill="#22379C"/>
<path d="M22.1719 16.6094H23.375C23.677 16.6094 23.9219 16.8542 23.9219 17.1562C23.9219 17.4583 23.677 17.7031 23.375 17.7031H22.1719V16.6094Z" fill="#22379C"/>
<path d="M22.1719 18.3594H23.375C23.677 18.3594 23.9219 18.6042 23.9219 18.9062C23.9219 19.2083 23.677 19.4531 23.375 19.4531H22.1719V18.3594Z" fill="#22379C"/>
<path d="M5.82031 1.46094C5.82031 1.15891 6.06516 0.914062 6.36719 0.914062C6.66922 0.914062 6.91406 1.15891 6.91406 1.46094V2.66406H5.82031V1.46094Z" fill="#22379C"/>
<path d="M19.1641 24.4844C19.1641 24.7864 18.9192 25.0313 18.6172 25.0313C18.3152 25.0313 18.0703 24.7864 18.0703 24.4844L18.0703 23.2813L19.1641 23.2812L19.1641 24.4844Z" fill="#22379C"/>
<path d="M7.57031 1.46094C7.57031 1.15891 7.81516 0.914062 8.11719 0.914062C8.41922 0.914062 8.66406 1.15891 8.66406 1.46094V2.66406H7.57031V1.46094Z" fill="#22379C"/>
<path d="M17.4141 24.4844C17.4141 24.7864 17.1692 25.0313 16.8672 25.0313C16.5652 25.0313 16.3203 24.7864 16.3203 24.4844L16.3203 23.2813L17.4141 23.2812L17.4141 24.4844Z" fill="#22379C"/>
<path d="M9.32031 1.46094C9.32031 1.15891 9.56516 0.914062 9.86719 0.914062C10.1692 0.914062 10.4141 1.15891 10.4141 1.46094V2.66406H9.32031V1.46094Z" fill="#22379C"/>
<path d="M15.6641 24.4844C15.6641 24.7864 15.4192 25.0313 15.1172 25.0313C14.8152 25.0313 14.5703 24.7864 14.5703 24.4844L14.5703 23.2813L15.6641 23.2812L15.6641 24.4844Z" fill="#22379C"/>
<path d="M11.0703 1.46094C11.0703 1.15891 11.3152 0.914062 11.6172 0.914062C11.9192 0.914062 12.1641 1.15891 12.1641 1.46094V2.66406H11.0703V1.46094Z" fill="#22379C"/>
<path d="M13.9141 24.4844C13.9141 24.7864 13.6692 25.0313 13.3672 25.0313C13.0652 25.0313 12.8203 24.7864 12.8203 24.4844L12.8203 23.2813L13.9141 23.2812L13.9141 24.4844Z" fill="#22379C"/>
<path d="M12.8203 1.46094C12.8203 1.15891 13.0652 0.914062 13.3672 0.914062C13.6692 0.914062 13.9141 1.15891 13.9141 1.46094V2.66406H12.8203V1.46094Z" fill="#22379C"/>
<path d="M12.1641 24.4844C12.1641 24.7864 11.9192 25.0313 11.6172 25.0313C11.3152 25.0313 11.0703 24.7864 11.0703 24.4844L11.0703 23.2813L12.1641 23.2812L12.1641 24.4844Z" fill="#22379C"/>
<path d="M14.5703 1.46094C14.5703 1.15891 14.8152 0.914062 15.1172 0.914062C15.4192 0.914062 15.6641 1.15891 15.6641 1.46094V2.66406H14.5703V1.46094Z" fill="#22379C"/>
<path d="M10.4141 24.4844C10.4141 24.7864 10.1692 25.0313 9.86719 25.0313C9.56516 25.0313 9.32031 24.7864 9.32031 24.4844L9.32031 23.2813L10.4141 23.2812L10.4141 24.4844Z" fill="#22379C"/>
<path d="M16.3203 1.46094C16.3203 1.15891 16.5652 0.914062 16.8672 0.914062C17.1692 0.914062 17.4141 1.15891 17.4141 1.46094V2.66406H16.3203V1.46094Z" fill="#22379C"/>
<path d="M8.66406 24.4844C8.66406 24.7864 8.41922 25.0313 8.11719 25.0313C7.81516 25.0313 7.57031 24.7864 7.57031 24.4844L7.57031 23.2813L8.66406 23.2812L8.66406 24.4844Z" fill="#22379C"/>
<path d="M18.0703 1.46094C18.0703 1.15891 18.3152 0.914062 18.6172 0.914062C18.9192 0.914062 19.1641 1.15891 19.1641 1.46094V2.66406H18.0703V1.46094Z" fill="#22379C"/>
<path d="M6.91406 24.4844C6.91406 24.7864 6.66922 25.0313 6.36719 25.0313C6.06516 25.0313 5.82031 24.7864 5.82031 24.4844L5.82031 23.2813L6.91406 23.2812L6.91406 24.4844Z" fill="#22379C"/>
<path d="M6.44922 14.4766V12.3164C6.44922 10.2022 8.16313 8.48828 10.2773 8.48828H12.4102C12.4706 8.48828 12.5195 8.43931 12.5195 8.37891V6.79343C12.5195 6.7087 12.6117 6.65615 12.6846 6.69932L16.5235 8.97235C16.5935 9.01377 16.5954 9.11433 16.5271 9.15838L12.6882 11.6335C12.6154 11.6804 12.5195 11.6281 12.5195 11.5415V10.1562" stroke="#22379C" stroke-width="1.09375" stroke-linecap="round"/>
<path d="M17.4688 11.8516L17.4688 14.0117C17.4688 16.1259 15.7548 17.8398 13.6406 17.8398L11.5078 17.8398C11.4474 17.8398 11.3984 17.8888 11.3984 17.9492L11.3984 19.5347C11.3984 19.6194 11.3062 19.672 11.2333 19.6288L7.39445 17.3558C7.32449 17.3144 7.32258 17.2138 7.39091 17.1697L11.2298 14.6947C11.3026 14.6477 11.3984 14.7 11.3984 14.7866L11.3984 16.1719" stroke="#22379C" stroke-width="1.09375" stroke-linecap="round"/>
</svg>
