<svg xmlns="http://www.w3.org/2000/svg" width="28" height="28" fill="none" ><style><![CDATA[.B{stroke:#22379c}.C{stroke-width:2.188}]]></style><path d="M25.785 25.375H3.035c-.302 0-.547-.245-.547-.547V3.527c0-.302.245-.547.547-.547h7.383c.302 0 .547.245.547.547v1.695h14.82c.302 0 .547.245.547.547v19.059c0 .302-.245.547-.547.547z" stroke-width="1.094" class="B"/><mask id="A" fill="#fff"><rect x="5.688" y="8.313" width="8.422" height="3.281" rx="1"/></mask><rect x="5.688" y="8.313" width="8.422" height="3.281" rx="1" mask="url(#A)" class="B C"/><mask id="B" fill="#fff"><rect x="5.688" y="13.781" width="8.422" height="3.281" rx="1"/></mask><rect x="5.688" y="13.781" width="8.422" height="3.281" rx="1" mask="url(#B)" class="B C"/><mask id="C" fill="#fff"><rect x="5.688" y="19.086" width="8.422" height="3.281" rx="1"/></mask><rect x="5.688" y="19.086" width="8.422" height="3.281" rx="1" mask="url(#C)" class="B C"/><mask id="D" fill="#fff"><rect x="16.57" y="8.313" width="6.07" height="14.055" rx="1"/></mask><rect x="16.57" y="8.313" width="6.07" height="14.055" rx="1" mask="url(#D)" class="B C"/></svg>