<svg width="28" height="28" viewBox="0 0 28 28" fill="none" xmlns="http://www.w3.org/2000/svg">
<g clip-path="url(#clip0_2701_15648)">
<mask id="mask0_2701_15648" style="mask-type:luminance" maskUnits="userSpaceOnUse" x="0" y="0" width="28" height="28">
<path d="M0 1.90735e-06H28V28H0V1.90735e-06Z" fill="white"/>
</mask>
<g mask="url(#mask0_2701_15648)">
<path d="M16.6359 3.78881C17.6029 4.03835 18.5163 4.42143 19.3549 4.91745C19.3549 4.91745 19.759 4.51325 20.2129 4.0594C20.5424 3.72953 20.9896 3.54452 21.4558 3.54452C21.9214 3.54452 22.3687 3.72953 22.6982 4.0594C23.0979 4.45922 23.5408 4.90202 23.9405 5.30185C24.2705 5.63134 24.4554 6.07857 24.4554 6.54424C24.4554 7.01039 24.2705 7.45757 23.9405 7.78706C23.4867 8.24092 23.0826 8.64506 23.0826 8.64506C23.5785 9.48374 23.9616 10.3971 24.2112 11.3641H25.4224C26.3928 11.3641 27.1797 12.1509 27.1797 13.1213V14.8787C27.1797 15.8491 26.3928 16.6359 25.4224 16.6359H24.2112C23.9616 17.6029 23.5785 18.5163 23.0826 19.3549C23.0826 19.3549 23.4867 19.7591 23.9405 20.2129C24.2705 20.5424 24.4554 20.9896 24.4554 21.4558C24.4554 21.9214 24.2705 22.3687 23.9405 22.6982C23.5408 23.0979 23.0979 23.5408 22.6982 23.9405C22.3687 24.2705 21.9214 24.4554 21.4558 24.4554C20.9896 24.4554 20.5424 24.2705 20.2129 23.9405C19.759 23.4867 19.3549 23.0826 19.3549 23.0826C18.5163 23.5785 17.6029 23.9617 16.6359 24.2111V25.4224C16.6359 26.3928 15.8491 27.1797 14.8786 27.1797H13.1213C12.1509 27.1797 11.3641 26.3928 11.3641 25.4224V24.2111C10.3971 23.9617 9.48374 23.5785 8.64505 23.0826C8.64505 23.0826 8.24091 23.4867 7.78706 23.9405C7.45757 24.2705 7.01034 24.4554 6.54423 24.4554C6.07857 24.4554 5.63128 24.2705 5.30184 23.9405C4.90208 23.5408 4.45922 23.0979 4.0594 22.6982C3.72952 22.3687 3.54452 21.9214 3.54452 21.4558C3.54452 20.9896 3.72952 20.5424 4.0594 20.2129C4.51325 19.7591 4.91745 19.3549 4.91745 19.3549C4.42143 18.5163 4.0384 17.6029 3.7888 16.6359H2.57764C1.60716 16.6359 0.820312 15.8491 0.820312 14.8787V13.1213C0.820312 12.1509 1.60716 11.3641 2.57764 11.3641H3.7888C4.0384 10.3971 4.42143 9.48374 4.91745 8.64506C4.91745 8.64506 4.51325 8.24092 4.0594 7.78706C3.72952 7.45757 3.54452 7.01039 3.54452 6.54424C3.54452 6.07857 3.72952 5.63134 4.0594 5.30185C4.45922 4.90202 4.90208 4.45922 5.30184 4.0594C5.63128 3.72953 6.07857 3.54452 6.54423 3.54452C7.01034 3.54452 7.45757 3.72953 7.78706 4.0594C8.24091 4.51325 8.64505 4.91745 8.64505 4.91745C9.48374 4.42143 10.3971 4.03835 11.3641 3.78881V2.57759C11.3641 1.6071 12.1509 0.820314 13.1213 0.820314H14.8786C15.8491 0.820314 16.6359 1.6071 16.6359 2.57759V3.78881Z" stroke="#22379C" stroke-miterlimit="10" stroke-linecap="round" stroke-linejoin="round"/>
<path d="M14.0014 8.72676C16.911 8.72676 19.2732 11.089 19.2732 13.9986C19.2732 16.9082 16.911 19.2705 14.0014 19.2705C11.0917 19.2705 8.72949 16.9082 8.72949 13.9986C8.72949 11.089 11.0917 8.72676 14.0014 8.72676Z" stroke="#22379C" stroke-miterlimit="10" stroke-linecap="round" stroke-linejoin="round"/>
</g>
</g>
<defs>
<clipPath id="clip0_2701_15648">
<rect width="28" height="28" fill="white"/>
</clipPath>
</defs>
</svg>
