<svg width="28" height="28" viewBox="0 0 28 28" fill="none" xmlns="http://www.w3.org/2000/svg">
<g clip-path="url(#clip0_2701_15662)">
<path d="M27.7821 2.18587C27.6378 2.09498 27.4555 2.08997 27.3065 2.1728C26.0809 2.81633 24.7053 3.12006 23.3226 3.05247C23.2098 1.33662 21.7862 0.00194934 20.0667 0H3.26667C1.46339 0.00205737 0.00205737 1.46339 0 3.26667V24.7333C0.00205737 26.5366 1.46339 27.9979 3.26667 28H20.0667C21.7702 27.9869 23.1777 26.6668 23.2998 24.9675C23.4219 23.2683 22.2175 21.7605 20.5333 21.504V10.8733C21.5068 10.0375 22.7481 9.64227 24.0389 9.23113L24.3721 9.12473C27.6197 8.0822 27.9851 2.83267 28 2.6096C28.0104 2.43912 27.9268 2.27659 27.7821 2.18587ZM20.0667 0.933333C21.2572 0.93707 22.2531 1.83836 22.3753 3.0226C22.0276 3.0044 21.6753 2.9806 21.3234 2.95587C20.0157 2.81776 18.6965 2.82903 17.3913 2.98947C17.3796 2.98947 17.3693 2.99227 17.3581 2.9946C15.711 3.25264 14.1947 4.04612 13.0438 5.25233C12.9285 5.36853 12.8189 5.48567 12.712 5.6H5.55333C6.18149 4.98615 6.53561 4.14496 6.53561 3.26667C6.53561 2.38838 6.18149 1.54718 5.55333 0.933333H20.0667ZM0.933333 24.7333V3.26667C0.933333 1.978 1.978 0.933333 3.26667 0.933333C4.55533 0.933333 5.6 1.978 5.6 3.26667C5.6 4.55533 4.55533 5.6 3.26667 5.6C3.00893 5.6 2.8 5.80893 2.8 6.06667C2.8 6.3244 3.00893 6.53333 3.26667 6.53333H11.9429C9.53587 9.80467 10.3665 12.7722 10.8668 13.944C10.0124 15.4159 9.3842 17.0079 9.0034 18.6667H4.2C3.94227 18.6667 3.73333 18.8756 3.73333 19.1333C3.73333 19.3911 3.94227 19.6 4.2 19.6H9.38793C9.4871 19.6 9.58371 19.5685 9.66373 19.5099L11.7936 17.9508C11.9129 17.8637 11.9838 17.7252 11.9849 17.5775C12.0118 16.8418 12.0897 16.1089 12.2183 15.3841C12.8193 15.6677 13.4768 15.8113 14.1414 15.8041C14.4936 15.8037 14.8448 15.7682 15.19 15.6982C16.5643 15.4068 17.7874 14.6295 18.6349 13.5091C18.6438 13.5002 18.6485 13.4885 18.6569 13.4792C18.9367 13.1194 19.1829 12.7346 19.3923 12.3298C19.4586 12.2005 19.5291 12.0783 19.6023 11.9607V21.4667H3.26667C3.00893 21.4667 2.8 21.6756 2.8 21.9333C2.8 22.1911 3.00893 22.4 3.26667 22.4C4.55533 22.4 5.6 23.4447 5.6 24.7333C5.6 26.022 4.55533 27.0667 3.26667 27.0667C1.978 27.0667 0.933333 26.022 0.933333 24.7333ZM11.3237 15.0542C11.1851 15.8067 11.097 16.5677 11.06 17.332L10.1397 18.0054C10.4396 16.9862 10.836 15.998 11.3237 15.0542ZM22.4 24.7333C22.3985 26.0214 21.3547 27.0651 20.0667 27.0667H5.55333C6.18149 26.4528 6.53561 25.6116 6.53561 24.7333C6.53561 23.855 6.18149 23.0138 5.55333 22.4H20.0667C21.3547 22.4015 22.3985 23.4453 22.4 24.7333ZM24.0861 8.23573L23.7557 8.34167C22.8039 8.61207 21.8815 8.97695 21.0023 9.43087C20.606 9.41572 20.227 9.26461 19.929 9.00293C19.811 8.88506 19.639 8.83911 19.4779 8.8824C19.3168 8.92569 19.191 9.05164 19.148 9.2128C19.1049 9.37397 19.1511 9.54586 19.2691 9.66373C19.4731 9.86289 19.7132 10.0213 19.9766 10.1304C19.3884 10.6201 18.906 11.2244 18.5589 11.9065C18.4138 12.1879 18.2486 12.4585 18.0647 12.7162C17.2166 12.7195 16.3781 12.5376 15.6077 12.1833C15.377 12.0681 15.0966 12.1617 14.9814 12.3923C14.8662 12.623 14.9598 12.9034 15.1905 13.0186C15.8497 13.3343 16.5595 13.5311 17.2872 13.6001C16.6467 14.1958 15.8563 14.6061 15.0005 14.7873C14.1228 14.9906 13.2009 14.8643 12.4101 14.4326C12.5745 13.713 12.8048 13.01 13.0979 12.3326C16.6992 7.88667 19.3144 6.85487 23.8 6.2328C23.9654 6.21016 24.1061 6.10089 24.169 5.94626C24.2319 5.79163 24.2074 5.61518 24.1047 5.48353C24.0021 5.35188 23.837 5.28507 23.6717 5.30833C19.0176 5.9542 16.1345 7.08773 12.3438 11.7843C12.3391 11.7894 12.3354 11.7945 12.3312 11.8001C12.0265 12.1781 11.7525 12.5575 11.4982 12.9351C10.9587 11.0222 11.3292 8.96745 12.5029 7.36353C12.5238 7.59419 12.5615 7.823 12.6159 8.04813C12.6793 8.29813 12.9333 8.4494 13.1833 8.386C13.4333 8.3226 13.5846 8.06853 13.5212 7.81853C13.394 7.28014 13.3714 6.72234 13.4545 6.1754C13.5366 6.0872 13.6197 5.999 13.7074 5.91033C14.5022 5.08232 15.4942 4.46972 16.5905 4.13C16.4201 4.60137 16.3331 5.09879 16.3333 5.6C16.3333 5.85773 16.5423 6.06667 16.8 6.06667C17.0577 6.06667 17.2667 5.85773 17.2667 5.6C17.2601 4.99417 17.4237 4.39867 17.7389 3.88127C18.5168 3.78827 19.3016 3.7664 20.0835 3.81593C19.9125 4.01207 19.7658 4.22815 19.6467 4.45947C19.5322 4.6904 19.6267 4.97036 19.8576 5.0848C19.9225 5.11718 19.9941 5.13381 20.0667 5.13333C20.2447 5.13404 20.4076 5.03339 20.4867 4.87387C20.6937 4.48238 20.9917 4.1463 21.3556 3.89387C23.2022 4.0208 25.1011 4.137 26.9691 3.37027C26.7433 4.7866 26.0545 7.60667 24.0861 8.23573Z" fill="#22379C"/>
<path d="M4.20007 14.9333H8.86673C9.12447 14.9333 9.3334 14.7244 9.3334 14.4667C9.3334 14.2089 9.12447 14 8.86673 14H4.20007C3.94233 14 3.7334 14.2089 3.7334 14.4667C3.7334 14.7244 3.94233 14.9333 4.20007 14.9333Z" fill="#22379C"/>
<path d="M4.20007 10.2663H8.86673C9.12447 10.2663 9.3334 10.0574 9.3334 9.79967C9.3334 9.54194 9.12447 9.33301 8.86673 9.33301H4.20007C3.94233 9.33301 3.7334 9.54194 3.7334 9.79967C3.7334 10.0574 3.94233 10.2663 4.20007 10.2663Z" fill="#22379C"/>
</g>
<defs>
<clipPath id="clip0_2701_15662">
<rect width="28" height="28" fill="white"/>
</clipPath>
</defs>
</svg>
