<svg width="28" height="28" viewBox="0 0 28 28" fill="none" xmlns="http://www.w3.org/2000/svg">
<path fill-rule="evenodd" clip-rule="evenodd" d="M1.3125 1.75H26.6875C27.0347 1.75286 27.3669 1.89206 27.6124 2.13758C27.8579 2.38311 27.9971 2.71529 28 3.0625V21.4375C27.9971 21.7847 27.8579 22.1169 27.6124 22.3624C27.3669 22.6079 27.0347 22.7471 26.6875 22.75H14.4375V25.375H21.2188C21.3348 25.375 21.4461 25.4211 21.5281 25.5031C21.6102 25.5852 21.6562 25.6965 21.6562 25.8125C21.6562 25.9285 21.6102 26.0398 21.5281 26.1219C21.4461 26.2039 21.3348 26.25 21.2188 26.25H6.78125C6.66522 26.25 6.55394 26.2039 6.47189 26.1219C6.38984 26.0398 6.34375 25.9285 6.34375 25.8125C6.34375 25.6965 6.38984 25.5852 6.47189 25.5031C6.55394 25.4211 6.66522 25.375 6.78125 25.375H13.5625V22.75H1.3125C0.965287 22.7471 0.633106 22.6079 0.387581 22.3624C0.142056 22.1169 0.00285786 21.7847 0 21.4375V3.0625C0.00285786 2.71529 0.142056 2.38311 0.387581 2.13758C0.633106 1.89206 0.965287 1.75286 1.3125 1.75ZM26.6875 2.625H1.3125C1.19647 2.625 1.08519 2.67109 1.00314 2.75314C0.921094 2.83519 0.875 2.94647 0.875 3.0625V5.25H27.125V3.0625C27.125 2.94647 27.0789 2.83519 26.9969 2.75314C26.9148 2.67109 26.8035 2.625 26.6875 2.625ZM1.00314 21.7469C1.08519 21.8289 1.19647 21.875 1.3125 21.875H26.6875C26.8035 21.875 26.9148 21.8289 26.9969 21.7469C27.0789 21.6648 27.125 21.5535 27.125 21.4375V6.125H0.875V21.4375C0.875 21.5535 0.921094 21.6648 1.00314 21.7469ZM5.63882 9.99855C6.43023 9.46975 7.36068 9.1875 8.3125 9.1875C8.94449 9.1875 9.57029 9.31198 10.1542 9.55383C10.738 9.79568 11.2686 10.1502 11.7155 10.597C12.1623 11.0439 12.5168 11.5745 12.7587 12.1583C13.0005 12.7422 13.125 13.368 13.125 14C13.125 14.9518 12.8428 15.8823 12.3139 16.6737C11.7851 17.4651 11.0335 18.0819 10.1542 18.4462C9.2748 18.8104 8.30716 18.9057 7.37363 18.72C6.4401 18.5343 5.58259 18.076 4.90955 17.403C4.23651 16.7299 3.77816 15.8724 3.59247 14.9389C3.40678 14.0053 3.50209 13.0377 3.86633 12.1583C4.23058 11.279 4.84741 10.5274 5.63882 9.99855ZM6.74264 15.6674C6.31418 16.0602 6.04853 16.5994 5.99813 17.1784C6.66896 17.6717 7.47984 17.9377 8.3125 17.9377C9.14516 17.9377 9.95604 17.6717 10.6269 17.1784C10.5765 16.5994 10.3108 16.0602 9.88237 15.6674C9.4539 15.2747 8.89376 15.0568 8.3125 15.0568C7.73124 15.0568 7.1711 15.2747 6.74264 15.6674ZM7.40308 12.4889C7.2829 12.6688 7.21875 12.8802 7.21875 13.0966C7.21875 13.3866 7.33399 13.6648 7.5391 13.87C7.74422 14.0751 8.02242 14.1903 8.3125 14.1903C8.52882 14.1903 8.74029 14.1262 8.92016 14.006C9.10002 13.8858 9.24021 13.715 9.32299 13.5151C9.40578 13.3153 9.42744 13.0953 9.38524 12.8832C9.34303 12.671 9.23886 12.4761 9.0859 12.3232C8.93294 12.1702 8.73805 12.066 8.52588 12.0238C8.31371 11.9816 8.0938 12.0033 7.89394 12.0861C7.69409 12.1689 7.52326 12.309 7.40308 12.4889ZM11.3744 16.4655C11.245 16.0385 11.028 15.6432 10.7373 15.3047C10.4461 14.9657 10.0874 14.6912 9.68406 14.4987C9.96486 14.2256 10.1578 13.875 10.2382 13.4916C10.3186 13.1082 10.2829 12.7096 10.1355 12.3467C9.9881 11.9838 9.7358 11.673 9.41086 11.4543C9.08592 11.2355 8.70312 11.1187 8.31141 11.1187C7.9197 11.1187 7.53689 11.2355 7.21195 11.4543C6.88702 11.673 6.63472 11.9838 6.48733 12.3467C6.33995 12.7096 6.30418 13.1082 6.38459 13.4916C6.46501 13.875 6.65795 14.2256 6.93875 14.4987C6.53543 14.6912 6.17671 14.9657 5.88554 15.3047C5.59437 15.6437 5.37717 16.0397 5.24781 16.4675C4.78059 15.8893 4.48657 15.1907 4.39976 14.4525C4.31295 13.7142 4.43688 12.9665 4.75724 12.2957C5.07759 11.6249 5.58128 11.0585 6.21004 10.662C6.83881 10.2655 7.56697 10.0551 8.31031 10.0551C9.05366 10.0551 9.78182 10.2655 10.4106 10.662C11.0394 11.0585 11.543 11.6249 11.8634 12.2957C12.1837 12.9665 12.3077 13.7142 12.2209 14.4525C12.1342 15.1899 11.8407 15.8878 11.3744 16.4655ZM25.375 4.375C25.6166 4.375 25.8125 4.17912 25.8125 3.9375C25.8125 3.69588 25.6166 3.5 25.375 3.5C25.1334 3.5 24.9375 3.69588 24.9375 3.9375C24.9375 4.17912 25.1334 4.375 25.375 4.375ZM24.0625 3.9375C24.0625 4.17912 23.8666 4.375 23.625 4.375C23.3834 4.375 23.1875 4.17912 23.1875 3.9375C23.1875 3.69588 23.3834 3.5 23.625 3.5C23.8666 3.5 24.0625 3.69588 24.0625 3.9375ZM21.875 4.375C22.1166 4.375 22.3125 4.17912 22.3125 3.9375C22.3125 3.69588 22.1166 3.5 21.875 3.5C21.6334 3.5 21.4375 3.69588 21.4375 3.9375C21.4375 4.17912 21.6334 4.375 21.875 4.375ZM18.2984 10.0632H24.0625C24.1785 10.0632 24.2898 10.1093 24.3719 10.1913C24.4539 10.2734 24.5 10.3846 24.5 10.5007C24.5 10.6167 24.4539 10.728 24.3719 10.81C24.2898 10.8921 24.1785 10.9382 24.0625 10.9382H18.2984C18.2073 11.193 18.0397 11.4135 17.8184 11.5694C17.5972 11.7253 17.3332 11.8089 17.0625 11.8089C16.7918 11.8089 16.5278 11.7253 16.3066 11.5694C16.0853 11.4135 15.9177 11.193 15.8266 10.9382H14.4375C14.3215 10.9382 14.2102 10.8921 14.1281 10.81C14.0461 10.728 14 10.6167 14 10.5007C14 10.3846 14.0461 10.2734 14.1281 10.1913C14.2102 10.1093 14.3215 10.0632 14.4375 10.0632H15.8266C15.9177 9.8083 16.0853 9.58783 16.3066 9.43194C16.5278 9.27606 16.7918 9.19238 17.0625 9.19238C17.3332 9.19238 17.5972 9.27606 17.8184 9.43194C18.0397 9.58783 18.2073 9.8083 18.2984 10.0632ZM16.8194 10.8644C16.8914 10.9125 16.976 10.9382 17.0625 10.9382C17.1785 10.9382 17.2898 10.8921 17.3719 10.81C17.4539 10.728 17.5 10.6167 17.5 10.5007C17.5 10.4141 17.4743 10.3295 17.4263 10.2576C17.3782 10.1857 17.3099 10.1296 17.2299 10.0965C17.15 10.0634 17.062 10.0547 16.9771 10.0716C16.8923 10.0885 16.8143 10.1301 16.7531 10.1913C16.692 10.2525 16.6503 10.3304 16.6334 10.4153C16.6165 10.5002 16.6252 10.5881 16.6583 10.6681C16.6914 10.748 16.7475 10.8164 16.8194 10.8644ZM23.1875 12.6875C22.9163 12.6878 22.6519 12.7721 22.4306 12.9288C22.2093 13.0855 22.042 13.3068 21.9516 13.5625H14.4375C14.3215 13.5625 14.2102 13.6086 14.1281 13.6906C14.0461 13.7727 14 13.884 14 14C14 14.116 14.0461 14.2273 14.1281 14.3094C14.2102 14.3914 14.3215 14.4375 14.4375 14.4375H21.9516C22.0318 14.6644 22.1729 14.8649 22.3594 15.017C22.5459 15.1692 22.7706 15.2671 23.0091 15.3001C23.2475 15.3331 23.4904 15.2999 23.7112 15.2042C23.932 15.1084 24.1222 14.9538 24.2611 14.7572C24.3999 14.5606 24.482 14.3296 24.4984 14.0894C24.5149 13.8493 24.4649 13.6093 24.3541 13.3956C24.2433 13.182 24.0758 13.0029 23.8701 12.878C23.6643 12.7531 23.4282 12.6872 23.1875 12.6875ZM23.1875 14.4375C23.101 14.4375 23.0164 14.4118 22.9444 14.3638C22.8725 14.3157 22.8164 14.2474 22.7833 14.1674C22.7502 14.0875 22.7415 13.9995 22.7584 13.9146C22.7753 13.8298 22.817 13.7518 22.8781 13.6906C22.9393 13.6295 23.0173 13.5878 23.1021 13.5709C23.187 13.554 23.275 13.5627 23.3549 13.5958C23.4349 13.6289 23.5032 13.685 23.5513 13.7569C23.5993 13.8289 23.625 13.9135 23.625 14C23.625 14.116 23.5789 14.2273 23.4969 14.3094C23.4148 14.3914 23.3035 14.4375 23.1875 14.4375ZM20.4859 17.0632H24.0625C24.1785 17.0632 24.2898 17.1093 24.3719 17.1913C24.4539 17.2734 24.5 17.3846 24.5 17.5007C24.5 17.6167 24.4539 17.728 24.3719 17.81C24.2898 17.8921 24.1785 17.9382 24.0625 17.9382H20.4859C20.3948 18.193 20.2272 18.4135 20.0059 18.5694C19.7847 18.7253 19.5207 18.8089 19.25 18.8089C18.9793 18.8089 18.7153 18.7253 18.4941 18.5694C18.2728 18.4135 18.1052 18.193 18.0141 17.9382H14.4375C14.3215 17.9382 14.2102 17.8921 14.1281 17.81C14.0461 17.728 14 17.6167 14 17.5007C14 17.3846 14.0461 17.2734 14.1281 17.1913C14.2102 17.1093 14.3215 17.0632 14.4375 17.0632H18.0141C18.1052 16.8083 18.2728 16.5878 18.4941 16.4319C18.7153 16.2761 18.9793 16.1924 19.25 16.1924C19.5207 16.1924 19.7847 16.2761 20.0059 16.4319C20.2272 16.5878 20.3948 16.8083 20.4859 17.0632ZM19.0069 17.8644C19.0789 17.9125 19.1635 17.9382 19.25 17.9382C19.366 17.9382 19.4773 17.8921 19.5594 17.81C19.6414 17.728 19.6875 17.6167 19.6875 17.5007C19.6875 17.4141 19.6618 17.3296 19.6138 17.2576C19.5657 17.1857 19.4974 17.1296 19.4174 17.0965C19.3375 17.0634 19.2495 17.0547 19.1646 17.0716C19.0798 17.0885 19.0018 17.1301 18.9406 17.1913C18.8795 17.2525 18.8378 17.3304 18.8209 17.4153C18.804 17.5002 18.8127 17.5881 18.8458 17.6681C18.8789 17.748 18.935 17.8164 19.0069 17.8644Z" fill="#22379C"/>
</svg>
