<svg width="28" height="28" viewBox="0 0 28 28" fill="none" xmlns="http://www.w3.org/2000/svg">
<path fill-rule="evenodd" clip-rule="evenodd" d="M13.6918 2.37578C13.8729 2.23412 14.1271 2.23412 14.3082 2.37578L16.503 4.09345H11.497L13.6918 2.37578ZM17.9019 3.91845L18.1255 4.09345H22.3438C23.1722 4.09345 23.8438 4.76502 23.8438 5.59345V8.56858L24.3707 8.98095L25.4245 9.80567C25.7877 10.09 26 10.5256 26 10.9869V11.4997V25.4997C26 26.3281 25.3284 26.9997 24.5 26.9997H3.5C2.67157 26.9997 2 26.3281 2 25.4997V11.4997V10.9869C2 10.5256 2.21226 10.09 2.57554 9.80567L3.62935 8.98095L4 8.69087V5.59345C4 4.76502 4.67157 4.09345 5.5 4.09345H9.87448L10.0981 3.91845L10.8168 3.35595L13.0755 1.58827C13.6186 1.16328 14.3814 1.16328 14.9245 1.58827L17.1832 3.35595L17.9019 3.91845ZM23.8438 12.2194V9.83842L24.8082 10.5932C24.9292 10.6879 25 10.8332 25 10.9869V11.2642L23.8438 12.2194ZM23.6622 13.6664L25 12.5613V25.4997C25 25.7758 24.7761 25.9997 24.5 25.9997H3.5C3.22386 25.9997 3 25.7758 3 25.4997V12.5613L4.18156 13.5374L13.0447 20.8591C13.5992 21.3171 14.4008 21.3171 14.9553 20.8591L23.6622 13.6664ZM4 12.0903L3 11.2642V10.9869C3 10.8332 3.07075 10.6879 3.19185 10.5932L4 9.9607V12.0903ZM13.6816 20.0881L5 12.9164V5.59345C5 5.31731 5.22386 5.09345 5.5 5.09345H22.3438C22.6199 5.09345 22.8438 5.31731 22.8438 5.59345V13.0455L14.3184 20.0881C14.1336 20.2408 13.8664 20.2408 13.6816 20.0881ZM10 7.9997C9.72386 7.9997 9.5 8.22356 9.5 8.4997C9.5 8.77584 9.72386 8.9997 10 8.9997H13.5V14.9997C13.5 15.2758 13.7239 15.4997 14 15.4997C14.2761 15.4997 14.5 15.2758 14.5 14.9997V8.9997H18C18.2761 8.9997 18.5 8.77584 18.5 8.4997C18.5 8.22356 18.2761 7.9997 18 7.9997H14H10Z" fill="#22379C"/>
</svg>
