<svg width="28" height="28" viewBox="0 0 28 28" fill="none" xmlns="http://www.w3.org/2000/svg">
<path d="M6.55814 25.7768C6.66477 26.1269 6.88086 26.4336 7.17468 26.6518C7.4685 26.87 7.82455 26.9883 8.19054 26.9892C8.35638 26.9893 8.52138 26.9657 8.68054 26.9192L19.7741 23.5788L21.7705 23.3184C21.9925 23.2897 22.2067 23.2176 22.4008 23.106C22.5949 22.9945 22.765 22.8458 22.9016 22.6684C23.0381 22.4911 23.1383 22.2885 23.1965 22.0724C23.2547 21.8562 23.2696 21.6307 23.2405 21.4088L22.1877 13.3728L25.5029 8.28797L26.3205 7.05317L26.7125 6.43997C26.9877 6.01891 27.0843 5.50581 26.9811 5.01352C26.8779 4.52124 26.5834 4.09011 26.1623 3.81497C25.7413 3.53984 25.2282 3.44323 24.7359 3.54642C24.2436 3.6496 23.8125 3.94411 23.5373 4.36517L23.1341 4.98397L22.3277 6.21597L21.4233 7.59917L20.7485 2.46117C20.7195 2.23943 20.6471 2.02556 20.5355 1.83181C20.4238 1.63805 20.2751 1.46819 20.0977 1.33194C19.9204 1.19569 19.7179 1.09571 19.502 1.03772C19.286 0.979733 19.0607 0.964866 18.8389 0.993973L7.05654 2.54237C6.62791 2.59772 6.23656 2.81455 5.96234 3.14861C5.68812 3.48267 5.55171 3.90877 5.58094 4.33997L2.19294 5.35917C1.76086 5.4893 1.39811 5.78565 1.18443 6.1831C0.970737 6.58055 0.92359 7.04658 1.05334 7.47877L6.55814 25.7768ZM23.6073 5.79317L24.4921 6.36997L25.3741 6.94677L25.0269 7.47877L23.2601 6.32517L23.6073 5.79317ZM24.2401 4.82157C24.3935 4.58691 24.6338 4.42277 24.9081 4.36528C25.1825 4.30778 25.4685 4.36162 25.7031 4.51497C25.9378 4.66832 26.1019 4.90861 26.1594 5.18297C26.2169 5.45734 26.1631 5.74331 26.0097 5.97797L25.8361 6.24397L24.0805 5.08757L24.2401 4.82157ZM22.8009 7.02797L23.6857 7.60477L24.5677 8.18157L19.1777 16.436L18.2929 15.8592L17.4109 15.2824L22.8009 7.02797ZM16.3609 18.3148L16.5289 17.7772C16.8105 17.85 17.0604 18.0133 17.2401 18.242L16.8145 18.6116C16.7686 18.6533 16.7102 18.6786 16.6484 18.6835C16.5865 18.6884 16.5248 18.6726 16.4729 18.6387C16.421 18.6047 16.3819 18.5545 16.3616 18.4958C16.3413 18.4372 16.3411 18.3735 16.3609 18.3148ZM17.8729 17.6904C17.591 17.3426 17.2071 17.0919 16.7753 16.9736L17.0553 16.058L18.5925 17.0632L17.8729 17.6904ZM6.59174 3.70437C6.66104 3.6143 6.74739 3.53877 6.84588 3.48207C6.94437 3.42538 7.05306 3.38865 7.16574 3.37397L18.9481 1.82837C18.9864 1.8256 19.0247 1.8256 19.0629 1.82837C19.2695 1.83257 19.4677 1.91053 19.6218 2.04816C19.7758 2.18579 19.8756 2.37401 19.9029 2.57877L20.7205 8.67997L18.5757 11.9588L14.3589 12.5188C14.2476 12.5258 14.1435 12.5768 14.0697 12.6606C13.996 12.7444 13.9585 12.854 13.9655 12.9654C13.9726 13.0768 14.0236 13.1808 14.1074 13.2546C14.1911 13.3283 14.3008 13.3658 14.4121 13.3588H14.4681L17.9709 12.88L16.4785 15.1676C16.478 15.1769 16.478 15.1862 16.4785 15.1956C16.4678 15.2131 16.4594 15.2319 16.4533 15.2516L16.1929 16.0916L10.2233 16.8952C10.1682 16.8988 10.1143 16.9134 10.0647 16.9379C10.0152 16.9624 9.97096 16.9964 9.93456 17.038C9.89816 17.0796 9.87031 17.128 9.8526 17.1803C9.83489 17.2327 9.82767 17.288 9.83134 17.3432C9.83502 17.3983 9.84953 17.4522 9.87403 17.5018C9.89853 17.5513 9.93256 17.5956 9.97416 17.632C10.0158 17.6684 10.0641 17.6962 10.1165 17.7139C10.1688 17.7316 10.2242 17.7388 10.2793 17.7352H10.3325L15.8961 17.0072L15.5657 18.0768C15.4938 18.3091 15.4994 18.5585 15.5818 18.7873C15.6641 19.0162 15.8187 19.212 16.0221 19.3452C16.2042 19.4651 16.4173 19.5294 16.6353 19.53C16.9057 19.5282 17.1662 19.4288 17.3689 19.25L19.5753 17.3404L19.5977 17.3152C19.6148 17.2994 19.6299 17.2815 19.6425 17.262L21.4681 14.462L22.4005 21.518C22.4156 21.6304 22.4083 21.7447 22.3789 21.8542C22.3496 21.9638 22.2989 22.0665 22.2297 22.1564C22.1628 22.2454 22.0788 22.3202 21.9826 22.3764C21.8865 22.4327 21.7801 22.4692 21.6697 22.484L9.87614 24.0324C9.76381 24.0469 9.64971 24.0392 9.54036 24.0096C9.43102 23.9801 9.32857 23.9292 9.23886 23.8601C9.14916 23.7909 9.07395 23.7048 9.01755 23.6065C8.96115 23.5083 8.92465 23.3999 8.91014 23.2876L6.42094 4.34277C6.39116 4.11576 6.45258 3.88619 6.59174 3.70437ZM2.43654 6.15997L5.68454 5.18277L8.07574 23.3968C8.12981 23.8049 8.32969 24.1796 8.63847 24.4519C8.94725 24.7241 9.34409 24.8755 9.75574 24.878C9.83072 24.8779 9.9056 24.8723 9.97974 24.8612L14.5941 24.2564L8.43414 26.11C8.21619 26.1753 7.98121 26.1516 7.78071 26.044C7.58021 25.9364 7.43055 25.7537 7.36454 25.536L1.85694 7.23797C1.82418 7.12913 1.81319 7.01491 1.82459 6.90182C1.83599 6.78873 1.86957 6.67899 1.92339 6.57888C1.97722 6.47877 2.05024 6.39025 2.13829 6.31837C2.22634 6.24649 2.32769 6.19267 2.43654 6.15997ZM10.9037 5.71197C10.8894 5.60172 10.9194 5.4903 10.9871 5.40212C11.0548 5.31395 11.1547 5.25621 11.2649 5.24157L17.9849 4.35677C18.0401 4.3496 18.0961 4.35337 18.1498 4.36785C18.2035 4.38233 18.2538 4.40725 18.2979 4.44118C18.342 4.47511 18.3789 4.51739 18.4067 4.5656C18.4344 4.61381 18.4524 4.66702 18.4595 4.72217C18.4667 4.77733 18.463 4.83336 18.4485 4.88706C18.434 4.94076 18.4091 4.99108 18.3751 5.03515C18.3412 5.07922 18.2989 5.11618 18.2507 5.14391C18.2025 5.17164 18.1493 5.1896 18.0941 5.19677L11.3741 6.07877H11.3209C11.2188 6.07832 11.1203 6.04093 11.0437 5.97351C10.967 5.90608 10.9173 5.81318 10.9037 5.71197ZM8.87094 9.81677C8.86391 9.76155 8.86793 9.70549 8.88276 9.65184C8.89759 9.59818 8.92294 9.54802 8.95733 9.50425C8.99172 9.46048 9.03447 9.42398 9.08309 9.39688C9.13171 9.36977 9.18523 9.35261 9.24054 9.34637L18.4805 8.11997C18.5919 8.10549 18.7045 8.13585 18.7935 8.20438C18.8825 8.27291 18.9407 8.37398 18.9551 8.48537C18.9696 8.59676 18.9393 8.70934 18.8707 8.79835C18.8022 8.88735 18.7011 8.94549 18.5897 8.95997L9.34134 10.1808H9.28814C9.18645 10.1804 9.0883 10.1434 9.01167 10.0766C8.93505 10.0097 8.88509 9.91748 8.87094 9.81677ZM12.0097 13.244C12.0176 13.299 12.0145 13.355 12.0006 13.4088C11.9866 13.4626 11.9622 13.5131 11.9286 13.5574C11.895 13.6017 11.8529 13.6389 11.8048 13.6668C11.7568 13.6947 11.7037 13.7128 11.6485 13.72L9.83694 13.958H9.78374C9.67235 13.9654 9.56257 13.9283 9.47856 13.8548C9.39454 13.7812 9.34317 13.6774 9.33574 13.566C9.32832 13.4546 9.36545 13.3448 9.43896 13.2608C9.51247 13.1768 9.61635 13.1254 9.72774 13.118L11.5393 12.88C11.5941 12.8729 11.6498 12.8767 11.7031 12.8912C11.7564 12.9057 11.8064 12.9305 11.8501 12.9644C11.8938 12.9982 11.9304 13.0403 11.9578 13.0883C11.9852 13.1362 12.0028 13.1892 12.0097 13.244ZM10.3605 21.14C10.3462 21.0297 10.3762 20.9183 10.4439 20.8301C10.5116 20.7419 10.6115 20.6842 10.7217 20.6696L13.9445 20.2468C13.9997 20.2394 14.0558 20.243 14.1095 20.2573C14.1633 20.2716 14.2137 20.2964 14.2579 20.3302C14.3021 20.364 14.3392 20.4062 14.3671 20.4543C14.395 20.5025 14.4132 20.5556 14.4205 20.6108C14.4279 20.6659 14.4243 20.722 14.41 20.7758C14.3957 20.8295 14.3709 20.88 14.3371 20.9242C14.3033 20.9684 14.2612 21.0055 14.213 21.0334C14.1649 21.0613 14.1117 21.0794 14.0565 21.0868L10.8281 21.5012H10.7749C10.674 21.5008 10.5765 21.4641 10.5004 21.3978C10.4243 21.3315 10.3747 21.2399 10.3605 21.14Z" fill="#22379C"/>
</svg>
