<svg width="28" height="28" viewBox="0 0 28 28" fill="none" xmlns="http://www.w3.org/2000/svg">
<g clip-path="url(#clip0_2701_15680)">
<path d="M14.5778 15.8633C13.5317 15.8585 12.4925 15.6946 11.4957 15.3773C9.90304 14.8445 8.72008 13.4962 8.39899 11.8477C8.04763 10.1553 8.68795 8.36591 10.1554 6.93837C10.3128 6.78503 10.4764 6.63814 10.6462 6.4977C12.1487 5.23982 14.1744 4.80268 16.0619 5.32898C17.8892 5.91223 19.1519 7.58221 19.2151 9.49935C19.2835 10.6029 18.9238 11.6903 18.2108 12.5354C17.661 13.2281 16.77 13.5553 15.9026 13.3831C15.5478 13.3095 15.2383 13.0946 15.0453 12.788C14.8721 12.4902 14.8276 12.1346 14.9222 11.8033C15.3303 10.2607 15.7453 7.91641 15.7494 7.89266C15.7783 7.72844 15.8927 7.59215 16.0495 7.53514C16.2062 7.47813 16.3814 7.50906 16.5091 7.61627C16.6369 7.72349 16.6977 7.8907 16.6687 8.05492C16.6514 8.15245 16.2428 10.4616 15.8247 12.0419C15.7948 12.1295 15.8023 12.2254 15.8454 12.3073C15.9099 12.3966 16.0073 12.4566 16.1161 12.4741C16.6471 12.5627 17.1835 12.3497 17.509 11.9209C18.0627 11.2585 18.3401 10.4084 18.2837 9.54699C18.2381 8.02099 17.2374 6.68869 15.7845 6.21966C14.1986 5.78347 12.4997 6.1561 11.2419 7.21599C11.092 7.34045 10.9461 7.47075 10.8062 7.60701C10.0808 8.31271 8.92226 9.77701 9.31263 11.6577C9.57491 12.9716 10.5133 14.0484 11.779 14.4878C13.9677 15.186 17.1126 15.27 18.7697 13.2097C18.9325 13.0136 19.2225 12.9844 19.4211 13.1441C19.6197 13.3037 19.6535 13.5932 19.497 13.7944C18.2717 15.3182 16.4071 15.8633 14.5778 15.8633Z" fill="#22379C"/>
<path d="M12.9803 13.4436C12.487 13.452 12.0059 13.2903 11.6179 12.9855C10.7222 12.2687 10.6976 11.0234 10.9487 10.1753C11.0332 9.89289 11.1468 9.61996 11.2875 9.36089C11.6377 8.65441 12.1976 8.07337 12.8906 7.69727C13.7536 7.24946 14.808 7.41927 15.4868 8.1154C15.8236 8.48446 16.0772 8.92146 16.2307 9.39692C16.312 9.63819 16.1848 9.90008 15.945 9.9855C15.7052 10.0709 15.4411 9.94833 15.3516 9.71001C15.2409 9.35874 15.057 9.03495 14.812 8.76001C14.4163 8.3553 13.7996 8.26322 13.3029 8.53466C12.7832 8.82776 12.3655 9.27277 12.1059 9.81001C11.9968 10.0113 11.9087 10.2233 11.8429 10.4426C11.6616 11.056 11.7015 11.8566 12.2019 12.2573C12.7489 12.6966 13.6719 12.5109 14.1911 12.0629C14.5781 11.7146 14.9106 11.3101 15.1775 10.863C15.2639 10.7182 15.4218 10.6312 15.5904 10.6356C15.759 10.64 15.9121 10.7351 15.9909 10.8842C16.0697 11.0334 16.0618 11.2134 15.9704 11.3551C15.6542 11.8819 15.2606 12.3582 14.8028 12.7679C14.2925 13.1984 13.6479 13.4374 12.9803 13.4436Z" fill="#22379C"/>
<path d="M26.6 28.0008H1.4C0.627153 28 0.000848731 27.3737 0 26.6008V9.33415C7.336e-06 9.15319 0.104635 8.98854 0.268465 8.91169C0.432296 8.83483 0.625792 8.85961 0.76496 8.97529L12.2156 18.4918C13.2517 19.3474 14.7493 19.3472 15.7851 18.4911L27.2347 8.97529C27.3738 8.85938 27.5675 8.83445 27.7315 8.91134C27.8954 8.98823 28.0001 9.15304 28 9.33415V26.6008C27.9992 27.3737 27.3728 28 26.6 28.0008ZM0.933333 10.3288V26.6008C0.933668 26.8584 1.14241 27.0672 1.4 27.0675H26.6C26.8576 27.0673 27.0664 26.8585 27.0667 26.6008V10.3288L16.381 19.2094C14.9994 20.3512 13.0017 20.3515 11.6197 19.2101L0.933333 10.3288Z" fill="#22379C"/>
<path d="M0.467123 9.80049C0.263857 9.80067 0.0838525 9.66926 0.0220942 9.47561C-0.039664 9.28195 0.0310318 9.07059 0.196877 8.95307L4.39688 5.97573C4.60715 5.82999 4.89557 5.88073 5.04348 6.08949C5.19139 6.29824 5.14365 6.58717 4.93644 6.73724L0.736437 9.71457C0.657792 9.77054 0.563647 9.80057 0.467123 9.80049Z" fill="#22379C"/>
<path d="M27.5324 9.80049C27.4359 9.80057 27.3417 9.77054 27.2631 9.71457L23.0631 6.73724C22.8559 6.58717 22.8081 6.29824 22.956 6.08949C23.104 5.88073 23.3924 5.82999 23.6026 5.97573L27.8026 8.95307C27.9685 9.07059 28.0392 9.28195 27.9774 9.47561C27.9157 9.66926 27.7357 9.80067 27.5324 9.80049Z" fill="#22379C"/>
<path d="M18.311 3.26766C18.2144 3.26771 18.1201 3.23769 18.0414 3.18175L15.8107 1.59975C14.7752 0.724744 13.2621 0.715629 12.2162 1.5781L9.9575 3.1818C9.82147 3.27826 9.64431 3.29483 9.49275 3.22526C9.34119 3.15569 9.23826 3.01054 9.22274 2.84451C9.20721 2.67847 9.28144 2.51676 9.41747 2.42029L11.6481 0.83829C13.0265 -0.288726 15.0105 -0.279762 16.3786 0.859664L18.5813 2.4201C18.7473 2.5376 18.8181 2.74906 18.7563 2.94281C18.6945 3.13656 18.5143 3.26798 18.311 3.26766Z" fill="#22379C"/>
<path d="M0.769832 27.7486C0.573164 27.7488 0.397496 27.6256 0.330592 27.4407C0.263687 27.2558 0.319908 27.0487 0.471165 26.923L11.1205 18.075C11.2485 17.9662 11.425 17.9346 11.5828 17.9922C11.7406 18.0498 11.8553 18.1877 11.883 18.3534C11.9108 18.519 11.8474 18.6869 11.717 18.7928L1.06771 27.6408C0.984095 27.7105 0.878684 27.7486 0.769832 27.7486Z" fill="#22379C"/>
<path d="M27.2297 27.7495C27.121 27.7496 27.0156 27.7114 26.9321 27.6417L16.2828 18.7937C16.1524 18.6878 16.089 18.52 16.1168 18.3544C16.1446 18.1887 16.2592 18.0507 16.417 17.9931C16.5748 17.9355 16.7514 17.9672 16.8793 18.076L27.5284 26.924C27.6796 27.0497 27.7359 27.2567 27.669 27.4417C27.6021 27.6266 27.4264 27.7497 27.2297 27.7495Z" fill="#22379C"/>
<path d="M23.3335 13.2916C23.0758 13.2916 22.8669 13.0827 22.8669 12.825V3.27127C22.8655 3.28107 22.8468 3.26786 22.8155 3.26763H5.18486C5.16423 3.26636 5.14399 3.27361 5.12886 3.28769L5.13353 12.825C5.13353 13.0827 4.92459 13.2916 4.66686 13.2916C4.40913 13.2916 4.2002 13.0827 4.2002 12.825V3.26763C4.21525 2.73838 4.65557 2.32102 5.18486 2.33429H22.8155C23.3448 2.32107 23.7851 2.7384 23.8002 3.26763V12.825C23.8002 13.0827 23.5913 13.2916 23.3335 13.2916Z" fill="#22379C"/>
</g>
<defs>
<clipPath id="clip0_2701_15680">
<rect width="28" height="28" fill="white"/>
</clipPath>
</defs>
</svg>
