<svg xmlns="http://www.w3.org/2000/svg" width="24" height="24" fill="none" xmlns:v="https://vecta.io/nano"><path d="M.71 2.052c0-.357.289-.646.646-.646h21.289c.357 0 .646.289.646.646v19.896c0 .357-.289.646-.646.646H1.356c-.357 0-.646-.289-.646-.646V2.052z" stroke="#22379c" stroke-width=".938"/><g fill="#22379c"><circle cx="2.66" cy="3.665" r=".469"/><circle cx="4.723" cy="3.665" r=".469"/><circle cx="6.785" cy="3.665" r=".469"/><rect x="10.105" y="3.196" width="12.149" height=".938" rx=".469"/><path d="M1.172 5.391h21.656v.938H1.172zm3.193 1.956h15.214v.938H4.365zm0 1.56h13.71v.938H4.365zm14.1 0h.938v.938h-.937z"/></g><g stroke="#22379c" stroke-width=".938"><circle cx="7.04" cy="15.762" r="4.937"/><path d="M4.476 19.803v-1.839c0-.831.674-1.505 1.505-1.505h2.062c.831 0 1.505.674 1.505 1.505v1.839" stroke-linecap="round" stroke-linejoin="round"/><circle cx="7.04" cy="14.313" r="1.76"/></g><mask id="A" fill="#fff"><rect x="13.707" y="12.418" width="8.36" height="3.065" rx=".334"/></mask><rect x="13.707" y="12.418" width="8.36" height="3.065" rx=".334" stroke="#22379c" stroke-width="1.875" mask="url(#A)"/><mask id="B" fill="#fff"><rect x="13.707" y="17.044" width="8.36" height="3.065" rx=".334"/></mask><rect x="13.707" y="17.044" width="8.36" height="3.065" rx=".334" stroke="#22379c" stroke-width="1.875" mask="url(#B)"/></svg>