<svg width="28" height="28" viewBox="0 0 28 28" fill="none" xmlns="http://www.w3.org/2000/svg">
<path fill-rule="evenodd" clip-rule="evenodd" d="M11.3536 2.35355C11.5488 2.15829 11.5488 1.84171 11.3536 1.64645C11.1583 1.45118 10.8417 1.45118 10.6464 1.64645L5.64645 6.64645C5.45118 6.84171 5.45118 7.15829 5.64645 7.35355L10.6464 12.3536C10.8417 12.5488 11.1583 12.5488 11.3536 12.3536C11.5488 12.1583 11.5488 11.8417 11.3536 11.6464L6.70711 7L11.3536 2.35355ZM16.6464 2.35355C16.4512 2.15829 16.4512 1.84171 16.6464 1.64645C16.8417 1.45118 17.1583 1.45118 17.3536 1.64645L22.3536 6.64645C22.5488 6.84171 22.5488 7.15829 22.3536 7.35355L17.3536 12.3536C17.1583 12.5488 16.8417 12.5488 16.6464 12.3536C16.4512 12.1583 16.4512 11.8417 16.6464 11.6464L21.2929 7L16.6464 2.35355ZM10.5625 25.9102C9.17188 25.8945 8.47656 25.3008 8.47656 24.1289V22.4004C8.47656 21.627 8.17188 21.2207 7.5625 21.1816V20.3262C8.17188 20.2871 8.47656 19.873 8.47656 19.084V17.4023C8.47656 16.2148 9.17188 15.6133 10.5625 15.5977V16.5059C9.94141 16.5215 9.63086 16.8945 9.63086 17.625V19.2773C9.63086 20.0664 9.24219 20.5527 8.46484 20.7363V20.7539C9.24219 20.9258 9.63086 21.4082 9.63086 22.2012V23.8359C9.63086 24.2539 9.69922 24.5508 9.83594 24.7266C9.97656 24.9062 10.2188 25 10.5625 25.0078V25.9102ZM19.5234 24.1289C19.5234 25.3008 18.8281 25.8945 17.4375 25.9102V25.0078C17.7813 25 18.0234 24.9062 18.1641 24.7266C18.3008 24.5508 18.3691 24.2539 18.3691 23.8359V22.2012C18.3691 21.4082 18.7578 20.9258 19.5352 20.7539V20.7363C18.7578 20.5527 18.3691 20.0664 18.3691 19.2773V17.625C18.3691 16.8945 18.0586 16.5215 17.4375 16.5059V15.5977C18.8281 15.6133 19.5234 16.2148 19.5234 17.4023V19.084C19.5234 19.873 19.8281 20.2871 20.4375 20.3262V21.1816C19.8281 21.2207 19.5234 21.627 19.5234 22.4004V24.1289ZM15 22C15 22.5523 14.5523 23 14 23C13.4477 23 13 22.5523 13 22C13 21.4477 13.4477 21 14 21C14.5523 21 15 21.4477 15 22ZM14 8C14.5523 8 15 7.55228 15 7C15 6.44772 14.5523 6 14 6C13.4477 6 13 6.44772 13 7C13 7.55228 13.4477 8 14 8Z" fill="#22379C"/>
</svg>
