<svg width="28" height="28" viewBox="0 0 158 158" fill="none" xmlns="http://www.w3.org/2000/svg"><g clip-path="url(#clip0_1002_1094)" fill="#22379C"><path d="M120.8 51.74H45.64a8.78 8.78 0 0 1-8.77-8.77V21.93a8.78 8.78 0 0 1 8.77-8.77h75.16a8.78 8.78 0 0 1 8.76 8.77v21.04a8.78 8.78 0 0 1-8.76 8.77ZM45.64 17.21a4.73 4.73 0 0 0-4.72 4.72v21.04c0 2.6 2.11 4.72 4.72 4.72h75.16c2.6 0 4.71-2.11 4.71-4.72V21.93c0-2.6-2.11-4.72-4.71-4.72H45.64Z"/><path d="m62.3 25.72-4.04 2.84v-4.94H54.2v4.94l-4.04-2.84-2.32 3.32 4.86 3.41-4.86 3.4 2.32 3.33 4.04-2.84v4.95h4.05v-4.95l4.04 2.84 2.32-3.32-4.86-3.41 4.86-3.4-2.32-3.33ZM89.26 25.72l-4.05 2.84v-4.94h-4.04v4.94l-4.05-2.84-2.32 3.32 4.87 3.41-4.87 3.4 2.32 3.33 4.05-2.84v4.95h4.04v-4.95l4.05 2.84 2.32-3.32-4.86-3.41 4.86-3.4-2.32-3.33ZM118.54 29.04l-2.32-3.32-4.05 2.84v-4.94h-4.04v4.94l-4.05-2.84-2.32 3.32 4.86 3.41-4.86 3.4 2.32 3.33 4.05-2.84v4.95h4.04v-4.95l4.05 2.84 2.32-3.32-4.87-3.41 4.87-3.4ZM82 75.09l-5.94-4.52 2.44-3.22 4.36 3.31 7.4-9.36 3.17 2.5-8.62 10.93c-.4.5-1.2 1.18-2.81.36Z"/><path d="M157.32 69.22h-4.04V8.77c0-2.6-2.12-4.72-4.72-4.72H17.82a4.73 4.73 0 0 0-4.71 4.72v47.97H9.06V8.77A8.78 8.78 0 0 1 17.82 0h130.74a8.78 8.78 0 0 1 8.76 8.77v60.45ZM153.28 73.97h4.04v4.72h-4.04v-4.72ZM155.3 84.5H67.75V71.1a8.78 8.78 0 0 0-8.77-8.76H9.44A8.78 8.78 0 0 0 .68 71.1v77.97a8.78 8.78 0 0 0 8.76 8.78h49.54a8.78 8.78 0 0 0 8.77-8.78v-17.47h40.04v-4.05h-5.1v-19.44h45.87a8.78 8.78 0 0 0 8.76-8.77V86.52c0-1.12-.9-2.02-2.02-2.02Zm-91.6 64.58c0 2.6-2.11 4.73-4.72 4.73H9.44a4.73 4.73 0 0 1-4.72-4.73V71.11c0-2.6 2.11-4.73 4.72-4.73h8.87v2.68c0 4.1 3.33 7.42 7.41 7.42H42.7a7.43 7.43 0 0 0 7.41-7.42v-2.68h8.87c2.6 0 4.72 2.12 4.72 4.73v77.97Zm34.94-21.52h-30.9v-19.44h30.9v19.44Z"/><path d="M34.87 89.5a20.7 20.7 0 0 0-20.67 20.67 20.7 20.7 0 0 0 20.67 20.67 20.7 20.7 0 0 0 20.68-20.67 20.7 20.7 0 0 0-20.68-20.68Zm-18.59 20.67c0-2.7.58-5.26 1.61-7.57l8.87 24.3a18.6 18.6 0 0 1-10.48-16.73Zm18.6 18.59c-1.83 0-3.6-.27-5.26-.76l5.58-16.2 5.71 15.65.14.25c-1.94.68-4.01 1.06-6.18 1.06Zm2.55-27.3c1.12-.07 2.13-.18 2.13-.18 1-.12.89-1.6-.12-1.54 0 0-3 .24-4.95.24-1.83 0-4.9-.24-4.9-.24-1-.06-1.12 1.48-.12 1.54 0 0 .95.11 1.95.17l2.9 7.94-4.07 12.2-6.77-20.14c1.12-.06 2.13-.17 2.13-.17 1-.12.88-1.6-.12-1.54 0 0-3 .24-4.95.24-.35 0-.76 0-1.2-.02a18.57 18.57 0 0 1 28.09-3.5l-.25-.02c-1.82 0-3.12 1.6-3.12 3.3 0 1.53.89 2.83 1.83 4.36a9.8 9.8 0 0 1 1.53 5.13c0 1.6-.61 3.44-1.41 6l-1.86 6.2-6.72-19.98Zm6.79 24.78 5.68-16.42a17.52 17.52 0 0 0 1.4-6.66c0-.68-.04-1.32-.12-1.91a18.58 18.58 0 0 1-6.97 24.99Z"/></g><defs><clipPath id="clip0_1002_1094"><path fill="#fff" d="M0 0h158v158H0z"/></clipPath></defs></svg>