<svg xmlns="http://www.w3.org/2000/svg" width="28" height="29" fill="none" ><g clip-path="url(#A)"><circle cx="14" cy="14.344" r="13.453" stroke="#22379c" stroke-width="1.094"/><path fill="#22379c" d="M4.448 5.565l.773-.773 18.33 18.33-.773.773z"/><g stroke="#22379c" stroke-width=".82"><path d="M15.75 9.934c.738-.328 2.521-.656 3.746.656m-7.273-.656c-.738-.328-2.521-.656-3.746.656"/></g><g fill="#22379c"><path d="M18.243 11.311l.773.773-2.9 2.9-.773-.773z"/><path d="M15.362 12.104l.773-.773 2.9 2.9-.773.773zm-3.493-.793l.773.773-2.9 2.9-.773-.773z"/><path d="M8.988 12.104l.773-.773 2.9 2.9-.773.773z"/><circle cx="14.027" cy="18.363" r="2.434"/></g><circle cx="14" cy="14.344" r="8.094" stroke="#22379c" stroke-width="1.094"/></g><defs><clipPath id="A"><path fill="#fff" transform="translate(0 .344)" d="M0 0h28v28.311H0z"/></clipPath></defs></svg>