<svg xmlns="http://www.w3.org/2000/svg" width="28" height="28" fill="none" ><mask id="A" fill="#fff"><rect width="28" height="28" rx=".438"/></mask><rect width="28" height="28" rx=".438" stroke="#22379c" stroke-width="2.188" mask="url(#A)"/><g fill="#22379c"><path d="M1.094 4.922h25.813v1.094H1.094z"/><rect x="1.859" y="2.133" width="14.438" height="1.094" rx=".547"/></g><g stroke="#22379c" stroke-width="1.094"><circle cx="21" cy="9.352" r="1.203"/><circle cx="21" cy="15.148" r="1.203"/><circle cx="6.891" cy="15.148" r="1.203"/><circle cx="6.891" cy="21.109" r="1.203"/></g><path fill="#22379c" d="M8.531 14.602h10.828v1.094H8.531z"/><path d="M12.961 15.285v2.816c0 1.691-1.371 3.063-3.062 3.063H7.93m7.218-5.988V12.36c0-1.691 1.371-3.063 3.062-3.063h1.969" stroke="#22379c" stroke-width="1.094"/><g fill="#22379c"><rect x="19.852" y="2.133" width="1.094" height="1.094" rx=".547"/><rect x="22.258" y="2.133" width="1.094" height="1.094" rx=".547"/><rect x="24.664" y="2.133" width="1.094" height="1.094" rx=".547"/></g></svg>