<svg xmlns="http://www.w3.org/2000/svg" width="28" height="29" fill="none" ><g clip-path="url(#A)"><g stroke="#22379c" stroke-width="1.094"><path d="M24.91 17.488V6.852l-2.789-2.844-2.816-2.762H1.066a.44.44 0 0 0-.438.438V25.5a.44.44 0 0 0 .438.438H17.5m1.313-24.227v2.898c0 1.51 1.224 2.734 2.734 2.734h2.898"/><g stroke-linecap="round" stroke-linejoin="round"><path d="M10.076 15.335a3.72 3.72 0 0 0 1.197 1.038 3.74 3.74 0 0 0 1.52.447c.533.039 1.068-.039 1.568-.226s.955-.479 1.333-.857l2.235-2.235a3.73 3.73 0 0 0 1.046-2.621c-.008-.977-.4-1.911-1.091-2.602s-1.625-1.083-2.602-1.091a3.73 3.73 0 0 0-2.621 1.046L11.38 9.508m1.677 4.337a3.72 3.72 0 0 0-1.197-1.038 3.74 3.74 0 0 0-1.52-.447 3.72 3.72 0 0 0-1.568.225c-.5.186-.955.479-1.333.857l-2.235 2.235a3.73 3.73 0 0 0-1.046 2.621c.008.977.4 1.911 1.091 2.602s1.625 1.083 2.602 1.091a3.73 3.73 0 0 0 2.621-1.046l1.274-1.274"/></g><circle cx="21.875" cy="22.219" r="5.578"/></g><g fill="#22379c"><rect x="23.615" y="19.705" width="1.094" height="6.016" rx=".109" transform="rotate(45 23.615 19.705)"/><rect x="24.388" y="23.959" width="1.094" height="6.016" rx=".109" transform="rotate(135 24.388 23.959)"/></g></g><defs><clipPath id="A"><path fill="#fff" transform="translate(0 .344)" d="M0 0h28v28.311H0z"/></clipPath></defs></svg>