<svg width="28" height="28" viewBox="0 0 28 28" fill="none" xmlns="http://www.w3.org/2000/svg">
<path fill-rule="evenodd" clip-rule="evenodd" d="M15.4973 4.55238C15.5262 4.27776 15.327 4.0317 15.0523 4.00279C14.7777 3.97388 14.5317 4.17307 14.5027 4.4477L12.5027 23.4477C12.4738 23.7223 12.673 23.9684 12.9477 23.9973C13.2223 24.0262 13.4683 23.827 13.4973 23.5524L15.4973 4.55238ZM10.3796 7.67464C10.5593 7.88431 10.5351 8.19996 10.3254 8.37967L3.7683 14L10.3254 19.6204C10.5351 19.8001 10.5593 20.1158 10.3796 20.3254C10.1999 20.5351 9.88427 20.5594 9.6746 20.3797L2.6746 14.3797C2.56378 14.2847 2.5 14.146 2.5 14C2.5 13.8541 2.56378 13.7154 2.6746 13.6204L9.6746 7.62041C9.88427 7.4407 10.1999 7.46498 10.3796 7.67464ZM17.6204 7.67464C17.4407 7.88431 17.4649 8.19996 17.6746 8.37967L24.2317 14L17.6746 19.6204C17.4649 19.8001 17.4407 20.1158 17.6204 20.3254C17.8001 20.5351 18.1157 20.5594 18.3254 20.3797L25.3254 14.3797C25.4362 14.2847 25.5 14.146 25.5 14C25.5 13.8541 25.4362 13.7154 25.3254 13.6204L18.3254 7.62041C18.1157 7.4407 17.8001 7.46498 17.6204 7.67464Z" fill="#22379C"/>
</svg>
