<svg width="28" height="28" viewBox="0 0 28 28" fill="none" xmlns="http://www.w3.org/2000/svg">
<path d="M8.62406 13.8881C6.38406 12.7681 4.87206 10.5281 4.87206 7.84012C4.87206 4.14412 7.89606 1.12012 11.5921 1.12012C15.2881 1.12012 18.3121 4.14412 18.3121 7.84012C18.3121 11.4801 15.4561 14.4481 11.8161 14.5601H11.7601C6.21606 14.5601 1.68006 19.0961 1.68006 24.6401C1.68006 24.9761 1.45606 25.2001 1.12006 25.2001C0.784059 25.2001 0.560059 24.9761 0.560059 24.6401C0.560059 19.5441 3.97606 15.2321 8.62406 13.8881ZM11.5921 13.4401C14.6721 13.4401 17.1921 10.9201 17.1921 7.84012C17.1921 4.76012 14.6721 2.24012 11.5921 2.24012C8.51206 2.24012 5.99206 4.76012 5.99206 7.84012C5.99206 10.9201 8.51206 13.4401 11.5921 13.4401ZM26.9361 17.1361L27.0481 17.4161L25.7041 19.0401C25.4801 19.3201 25.4801 19.7681 25.7041 20.0481L27.0481 21.6161L26.9361 21.8961C26.6561 22.6801 26.2641 23.4641 25.7041 24.0801L25.4801 24.3041L23.4081 23.9681C23.0721 23.9121 22.6801 24.1361 22.5681 24.4721L21.8401 26.4881L21.5601 26.5441C20.4961 26.7681 19.4321 26.7681 18.3681 26.5441L18.0321 26.4881L17.3601 24.5281C17.2481 24.1921 16.8561 23.9681 16.5201 24.0241L14.3921 24.3601L14.1681 24.1361C13.8881 23.8561 13.6641 23.5201 13.4961 23.1841C13.2721 22.7921 13.0481 22.3441 12.9361 21.8961L12.8241 21.6161L14.2241 20.0481C14.4481 19.7681 14.4481 19.3201 14.2241 19.0961L12.8801 17.4721L12.9921 17.1921C13.2721 16.3521 13.7201 15.6241 14.2801 14.9521L14.5041 14.7281L16.5201 15.0641C16.8561 15.1201 17.2481 14.8961 17.4161 14.5601L18.1441 12.6001L18.4241 12.5441C19.4321 12.3201 20.4961 12.3201 21.5601 12.5441L21.8961 12.6001L22.5681 14.5041C22.6801 14.8401 23.0721 15.1201 23.4641 15.0641L25.5361 14.7841L25.7601 15.0081C26.0401 15.3441 26.2641 15.6241 26.4321 16.0161C26.6001 16.2961 26.7681 16.7441 26.9361 17.1361ZM25.3681 16.4641C25.2561 16.2401 25.1441 16.0721 24.9761 15.8481L23.5201 16.0161C22.6241 16.1281 21.7281 15.5681 21.4481 14.7281L21.0001 13.4401C20.3281 13.3281 19.6561 13.3281 18.9841 13.4401L18.4801 14.7841C18.2001 15.6241 17.2481 16.1841 16.3521 16.0161L14.9521 15.7921C14.6161 16.1841 14.3921 16.6881 14.1681 17.1361L15.1201 18.2561C15.6801 18.9281 15.6801 19.9921 15.1201 20.6641L14.1681 21.7841C14.2801 22.0641 14.3921 22.2881 14.5601 22.5681C14.6721 22.7921 14.7841 22.9601 14.9521 23.1281L16.4641 22.9041C17.3601 22.7921 18.2561 23.3521 18.5361 24.1921L18.9841 25.5361C19.6561 25.6481 20.3841 25.6481 21.0561 25.5361L21.5601 24.1361C21.8401 23.2961 22.7921 22.7361 23.6321 22.9041L25.0321 23.1281C25.3121 22.7361 25.5921 22.2881 25.7601 21.7841L24.8641 20.7201C24.3041 20.0481 24.2481 18.9841 24.8081 18.3121L25.7601 17.1921C25.6481 16.9681 25.5361 16.7441 25.3681 16.4641ZM19.9921 22.0641C18.5921 22.0641 17.4721 20.9441 17.4721 19.5441C17.4721 18.1441 18.5921 17.0241 19.9921 17.0241C21.3921 17.0241 22.5121 18.1441 22.5121 19.5441C22.5121 20.9441 21.3361 22.0641 19.9921 22.0641ZM19.9921 20.9441C20.7761 20.9441 21.3921 20.3281 21.3921 19.5441C21.3921 18.7601 20.7761 18.1441 19.9921 18.1441C19.2081 18.1441 18.5921 18.7601 18.5921 19.5441C18.5921 20.3281 19.2081 20.9441 19.9921 20.9441Z" fill="#22379C"/>
</svg>
