<svg xmlns="http://www.w3.org/2000/svg" width="28" height="28" fill="none" ><path d="M9.297 12.578V1.367h17.391v11.211H9.297z" stroke="#22379c" stroke-width="1.094"/><path fill="#22379c" d="M9.844 4.047h16.297v1.094H9.844z"/><path d="M9.297 4.594h5.968l-1.017 3.445H9.297V4.594zM1.531 26.578V15.367h17.391v11.211H1.531z" stroke="#22379c" stroke-width="1.094"/><path fill="#22379c" d="M2.078 18.047h16.297v1.094H2.078z"/><g stroke="#22379c" stroke-width="1.094"><path d="M1.531 18.594h5.968l-1.017 3.445H1.531v-3.445z"/><g stroke-linecap="round" stroke-linejoin="round"><path d="M5.455 8.285l1.709-1.709-1.709-1.709m-3.76 5.469V7.943a1.37 1.37 0 0 1 .4-.967c.256-.257.604-.4.967-.4h4.102m15.381 13.139l-1.709 1.709 1.709 1.709"/><path d="M26.305 17.664v2.392c0 .363-.144.71-.401.967s-.604.4-.967.4h-4.102"/></g></g></svg>