<svg xmlns="http://www.w3.org/2000/svg" width="28" height="28" fill="none" ><circle cx="22.537" cy="22.537" r="4.917" stroke="#22379c" stroke-width="1.094"/><g fill="#22379c"><path d="M23.972 20.109l.858.858-3.863 3.863-.858-.858z"/><path d="M20.108 20.969l.858-.858 3.863 3.863-.858.858z"/></g><g stroke="#22379c" stroke-width="1.094"><path d="M21.656 17.664V5.77L16.434.547H2.844v24.555h15.258M16.406.574v5.277h5.223"/><path d="M9.543 12.906l-2.789-2.789 2.789-2.789m5.004 5.578l2.789-2.789-2.789-2.789" stroke-linecap="round" stroke-linejoin="round"/></g><g fill="#22379c"><rect x="13.117" y="5.581" width="1.094" height="8.772" rx=".547" transform="rotate(19.4 13.117 5.581)"/><path d="M3.391 16.734H21.11v1.094H3.391zm3.5 2.079l.963 1.602h.034l.968-1.602h.904L8.412 21l1.369 2.188h-.919l-.974-1.591h-.034l-.974 1.592h-.914L7.348 21l-1.365-2.187h.908zm3.491 0h.97l1.299 3.17h.051l1.299-3.17h.97v4.375h-.761v-3.006h-.04l-1.209 2.993h-.568l-1.209-2.999h-.041v3.012h-.761v-4.375zm5.452 4.375v-4.375h.793v3.711h1.927v.664h-2.719z"/></g></svg>