<svg width="24" height="24" viewBox="0 0 24 24" fill="none" xmlns="http://www.w3.org/2000/svg">
<path fill-rule="evenodd" clip-rule="evenodd" d="M1.03125 13.7812V8.08594H22.9688V12.0703C22.9688 12.3292 23.1786 12.5391 23.4375 12.5391C23.6964 12.5391 23.9062 12.3292 23.9062 12.0703V7.71094C23.9062 7.40028 23.6544 7.14844 23.3438 7.14844H0.65625C0.345589 7.14844 0.09375 7.40028 0.09375 7.71094V14.1562C0.09375 14.4669 0.34559 14.7188 0.65625 14.7188H14.5078C14.7667 14.7188 14.9766 14.5089 14.9766 14.25C14.9766 13.9911 14.7667 13.7812 14.5078 13.7812H1.03125ZM4.57027 9.1875C4.57027 8.92862 4.36041 8.71875 4.10152 8.71875C3.84264 8.71875 3.63277 8.92862 3.63277 9.1875V10.0398L2.89453 9.61358C2.67033 9.48414 2.38365 9.56096 2.25421 9.78516C2.12477 10.0094 2.20158 10.296 2.42578 10.4255L3.16378 10.8516L2.42578 11.2776C2.20158 11.4071 2.12477 11.6938 2.25421 11.918C2.38365 12.1422 2.67033 12.219 2.89453 12.0895L3.63277 11.6633V12.5156C3.63277 12.7745 3.84264 12.9844 4.10152 12.9844C4.36041 12.9844 4.57027 12.7745 4.57027 12.5156V11.6636L5.30802 12.0895C5.53222 12.219 5.8189 12.1422 5.94835 11.918C6.07779 11.6938 6.00097 11.4071 5.77677 11.2776L5.03878 10.8516L5.77677 10.4255C6.00097 10.296 6.07779 10.0094 5.94835 9.78516C5.8189 9.56096 5.53222 9.48414 5.30802 9.61358L4.57027 10.0395V9.1875ZM8.65962 8.71875C8.91851 8.71875 9.12837 8.92862 9.12837 9.1875V10.0398L9.86666 9.61358C10.0909 9.48414 10.3775 9.56096 10.507 9.78516C10.6364 10.0094 10.5596 10.296 10.3354 10.4255L9.59741 10.8516L10.3354 11.2776C10.5596 11.4071 10.6364 11.6938 10.507 11.918C10.3775 12.1422 10.0909 12.219 9.86665 12.0895L9.12837 11.6633V12.5156C9.12837 12.7745 8.91851 12.9844 8.65962 12.9844C8.40074 12.9844 8.19087 12.7745 8.19087 12.5156V11.6636L7.45316 12.0895C7.22896 12.219 6.94228 12.1422 6.81284 11.918C6.6834 11.6938 6.76021 11.4071 6.98441 11.2776L7.72241 10.8516L6.98441 10.4255C6.76021 10.296 6.6834 10.0094 6.81284 9.78516C6.94228 9.56096 7.22896 9.48414 7.45316 9.61358L8.19087 10.0395V9.1875C8.19087 8.92862 8.40074 8.71875 8.65962 8.71875ZM13.6752 9.1875C13.6752 8.92862 13.4654 8.71875 13.2065 8.71875C12.9476 8.71875 12.7377 8.92862 12.7377 9.1875V10.0395L12 9.61358C11.7758 9.48414 11.4892 9.56096 11.3597 9.78516C11.2303 10.0094 11.3071 10.296 11.5313 10.4255L12.2693 10.8516L11.5313 11.2776C11.3071 11.4071 11.2303 11.6938 11.3597 11.918C11.4892 12.1422 11.7758 12.219 12 12.0895L12.7377 11.6636V12.5156C12.7377 12.7745 12.9476 12.9844 13.2065 12.9844C13.4654 12.9844 13.6752 12.7745 13.6752 12.5156V11.6633L14.4135 12.0895C14.6377 12.219 14.9244 12.1422 15.0539 11.918C15.1833 11.6938 15.1065 11.4071 14.8823 11.2776L14.1443 10.8516L14.8823 10.4255C15.1065 10.296 15.1833 10.0094 15.0539 9.78516C14.9244 9.56096 14.6377 9.48414 14.4135 9.61358L13.6752 10.0398V9.1875ZM22.3125 13.875C22.3125 13.7714 22.2286 13.6875 22.125 13.6875H21.5625H17.4375H16.875C16.7714 13.6875 16.6875 13.7714 16.6875 13.875V17.625C16.6875 17.7286 16.7714 17.8125 16.875 17.8125H22.125C22.2286 17.8125 22.3125 17.7286 22.3125 17.625V13.875ZM16.5 12.814V12.75V11.5312C16.5 10.3404 17.4654 9.375 18.6562 9.375H20.3438C21.5346 9.375 22.5 10.3404 22.5 11.5312V12.75V12.814C22.9369 12.9685 23.25 13.3852 23.25 13.875V17.625C23.25 18.2463 22.7463 18.75 22.125 18.75H16.875C16.2537 18.75 15.75 18.2463 15.75 17.625V13.875C15.75 13.3852 16.0631 12.9685 16.5 12.814ZM17.4375 12.75H21.5625V11.5312C21.5625 10.8582 21.0168 10.3125 20.3438 10.3125H18.6562C17.9832 10.3125 17.4375 10.8582 17.4375 11.5312V12.75ZM19.6875 15.375C19.6875 15.4786 19.6036 15.5625 19.5 15.5625C19.3964 15.5625 19.3125 15.4786 19.3125 15.375C19.3125 15.2714 19.3964 15.1875 19.5 15.1875C19.6036 15.1875 19.6875 15.2714 19.6875 15.375ZM20.625 15.375C20.625 15.8198 20.3668 16.2043 19.9922 16.3869V16.9922C19.9922 17.2511 19.7823 17.4609 19.5234 17.4609C19.2646 17.4609 19.0547 17.2511 19.0547 16.9922V16.4084C18.6549 16.2359 18.375 15.8381 18.375 15.375C18.375 14.7537 18.8787 14.25 19.5 14.25C20.1213 14.25 20.625 14.7537 20.625 15.375Z" fill="#22379C"/>
</svg>
