<svg xmlns="http://www.w3.org/2000/svg" width="28" height="28" fill="none" ><circle cx="14" cy="14" r="5.25" stroke="#22379c" stroke-width="1.094"/><g fill="#22379c"><path d="M16.435 15.662l-.773.773-4.099-4.099.773-.773z"/><path d="M15.68 11.579l.773.773-4.099 4.099-.773-.773z"/></g><path d="M.547.547h7.109v7.109H.547zm0 19.797h7.109v7.109H.547zM20.344.547h7.109v7.109h-7.109zm0 19.797h7.109v7.109h-7.109z" stroke="#22379c" stroke-width="1.094"/><path d="M3.555 8.203h1.094v11.594H3.555zm19.797 0h1.094v11.594h-1.094zm-3.555 15.149v1.094H8.203v-1.094zm0-19.797v1.094H8.203V3.555z" fill="#22379c"/></svg>