<svg width="32" height="32" viewBox="0 0 32 32" fill="none" xmlns="http://www.w3.org/2000/svg"><path fill-rule="evenodd" clip-rule="evenodd" d="M1.66 15.71a14.06 14.06 0 1 1 28.11 0v.58a14.06 14.06 0 0 1-28.11 0v-.58Zm4.57-8.59a12.75 12.75 0 0 0-3.32 8.6v.57c0 3.16 1.15 6.05 3.05 8.29l.27-.27V7.12Zm2.35-2.03h14.27a12.74 12.74 0 0 0-14.27 0Zm14.8 2.08v-.31a.51.51 0 0 0-.52-.52H8a.51.51 0 0 0-.51.52v16.2l15.88-15.9ZM8.57 26.9h14.27a12.74 12.74 0 0 1-14.27 0Zm16.01-1.4a12.76 12.76 0 0 0 3.92-9.22v-.58c0-3.3-1.25-6.32-3.31-8.6l-.57.58v17.45c0 .13-.01.25-.04.37ZM23.37 8.95v16.2c0 .28-.23.5-.51.5H8a.51.51 0 0 1-.51-.5v-.32l12.77-12.77h.31a.63.63 0 0 0 .58-.89l2.22-2.22ZM9.66 11.43c0-.35.28-.63.63-.63h6.28a.63.63 0 1 1 0 1.26H10.3a.63.63 0 0 1-.63-.63Zm0 4.57c0-.35.28-.63.63-.63H12a.63.63 0 1 1 0 1.26h-1.71a.63.63 0 0 1-.63-.63Zm8 0c0-.35.28-.63.63-.63h2.28a.63.63 0 1 1 0 1.26H18.3a.63.63 0 0 1-.63-.63Zm-4 4.57c0-.35.28-.63.63-.63h6.28a.63.63 0 0 1 0 1.26H14.3a.63.63 0 0 1-.63-.63Z" fill="#22379C"/></svg>