<svg xmlns="http://www.w3.org/2000/svg" width="28" height="28" fill="none" ><circle cx="21.602" cy="21.656" r="5.25" stroke="#22379c" stroke-width="1.094"/><g fill="#22379c"><path d="M24.037 23.318l-.773.773-4.099-4.099.773-.773z"/><path d="M23.282 19.235l.773.773-4.099 4.099-.773-.773z"/></g><g stroke="#22379c" stroke-width="1.094"><path d="M24.828 17.418V1.859c0-.242-.196-.437-.437-.437H2.406c-.242 0-.437.196-.437.437v21.984c0 .242.196.437.438.437h14.328"/><path d="M7.346 12.095a6.81 6.81 0 0 1 6.809 6.809M7.346 6.8c3.21 0 6.626.938 8.896 3.208s3.208 3.653 3.208 6.863" stroke-linecap="round" stroke-linejoin="round"/><path d="M7.893 18.484c.302 0 .547-.245.547-.547s-.245-.547-.547-.547-.547.245-.547.547.245.547.547.547z" stroke-linejoin="round"/></g></svg>