<svg width="24" height="24" viewBox="0 0 24 24" fill="none" xmlns="http://www.w3.org/2000/svg">
<path fill-rule="evenodd" clip-rule="evenodd" d="M3.5 2C3.77614 2 4 2.22386 4 2.5V3.5H14.5V2.5C14.5 2.22386 14.7239 2 15 2C15.2761 2 15.5 2.22386 15.5 2.5V4V5.5C15.5 5.77614 15.2761 6 15 6C14.7239 6 14.5 5.77614 14.5 5.5V4.5H4V5.5C4 5.77614 3.77614 6 3.5 6C3.22386 6 3 5.77614 3 5.5V4V2.5C3 2.22386 3.22386 2 3.5 2ZM4.5 8.5C4.22386 8.5 4 8.72386 4 9V16.5C4 16.7144 4.13495 16.8973 4.32454 16.9683L11.1464 10.1464L11.5 9.79289L11.8536 10.1464L15 13.2929V9C15 8.72386 14.7761 8.5 14.5 8.5H4.5ZM16 9V13.3759C16.5337 13.1344 17.1261 13 17.75 13C20.0972 13 22 14.9028 22 17.25C22 19.5972 20.0972 21.5 17.75 21.5C16.5823 21.5 15.5246 21.0291 14.7565 20.2668C14.7525 20.2631 14.7486 20.2593 14.7448 20.2555C14.7409 20.2516 14.7371 20.2478 14.7335 20.2438C14.1371 19.643 13.7191 18.865 13.5652 17.9958C13.5439 17.9986 13.5221 18 13.5 18H4.70711H4.5C3.67157 18 3 17.3284 3 16.5V9C3 8.17157 3.67157 7.5 4.5 7.5H14.5C15.3284 7.5 16 8.17157 16 9ZM15.8328 19.8746C16.3702 20.2678 17.033 20.5 17.75 20.5C19.5449 20.5 21 19.0449 21 17.25C21 16.533 20.7678 15.8702 20.3746 15.3328L15.8328 19.8746ZM19.6675 14.6257L15.1257 19.1675C14.7323 18.63 14.5 17.9671 14.5 17.25C14.5 15.4551 15.9551 14 17.75 14C18.4671 14 19.13 14.2323 19.6675 14.6257ZM14.643 14.3501C13.987 15.0527 13.5665 15.9779 13.5072 17.0001L13.5 17H5.70711L11.5 11.2071L14.643 14.3501ZM6.5 10C5.94772 10 5.5 10.4477 5.5 11C5.5 11.5523 5.94772 12 6.5 12C7.05228 12 7.5 11.5523 7.5 11C7.5 10.4477 7.05228 10 6.5 10ZM6.5 9C5.39543 9 4.5 9.89543 4.5 11C4.5 12.1046 5.39543 13 6.5 13C7.60457 13 8.5 12.1046 8.5 11C8.5 9.89543 7.60457 9 6.5 9Z" fill="#22379C"/>
</svg>
