<svg xmlns="http://www.w3.org/2000/svg" width="28" height="28" fill="none" ><path d="M24.035 15.887V1.531c0-.242-.196-.437-.437-.437H1.449c-.242 0-.437.196-.437.438v20.453c0 .242.196.438.438.438h15.148" stroke="#22379c" stroke-width="1.094"/><path d="M.547 4.922h23.734v1.094H.547zm13.508-2.188h2.188v1.094h-2.187zm3.062 0h2.188v1.094h-2.187zm3.063 0h2.188v1.094H20.18zM6.943 14.785H5.224l-.276.814H3.773l1.667-4.607h1.3l1.667 4.607H7.219l-.276-.814zm-.289-.866l-.571-1.687-.564 1.687h1.135zm5.771-1.444a1.5 1.5 0 0 1-.184.735 1.36 1.36 0 0 1-.564.532c-.253.136-.569.203-.945.203h-.696v1.654H8.914v-4.607h1.818c.367 0 .678.063.932.19s.444.302.571.525.19.479.19.768zm-1.778.577c.214 0 .374-.05.479-.151s.157-.243.157-.427-.053-.326-.157-.427-.265-.151-.479-.151h-.61v1.155h.61zm3.484-2.06v4.607h-1.122v-4.607h1.122z" fill="#22379c"/><g clip-path="url(#A)" stroke="#22379c" stroke-width="1.094" stroke-linejoin="round"><path d="M20.891 21.984a1.64 1.64 0 1 0 0-3.281 1.64 1.64 0 1 0 0 3.281z"/><path d="M24.938 21.984a.9.9 0 0 0 .18.995l.033.033c.102.102.182.222.237.355s.083.275.083.419-.028.286-.083.419-.136.253-.237.355-.222.182-.355.237-.275.083-.419.083-.286-.028-.419-.083-.253-.136-.355-.237l-.033-.033c-.129-.126-.293-.211-.47-.243s-.36-.01-.525.062-.3.184-.397.331-.149.319-.15.495v.093c0 .29-.115.568-.32.773s-.483.32-.773.32-.568-.115-.773-.32-.32-.483-.32-.773v-.049a.9.9 0 0 0-.168-.504c-.105-.147-.253-.259-.422-.322a.9.9 0 0 0-.995.181l-.033.033c-.102.102-.222.182-.355.237s-.275.083-.419.083-.286-.028-.419-.083-.253-.136-.355-.237-.182-.222-.237-.355-.083-.275-.083-.419.028-.286.083-.419.136-.253.237-.355l.033-.033a.9.9 0 0 0 .18-.995.9.9 0 0 0-.331-.397c-.147-.097-.319-.149-.495-.15h-.093c-.29 0-.568-.115-.773-.32s-.32-.483-.32-.773.115-.568.32-.773.483-.32.773-.32h.049a.9.9 0 0 0 .826-.591.9.9 0 0 0-.18-.995l-.033-.033c-.102-.102-.182-.222-.237-.355s-.083-.275-.083-.419.028-.286.083-.419.136-.253.237-.355.222-.182.355-.237.275-.083.419-.083.286.028.419.083.253.136.355.237l.033.033c.129.126.293.211.47.243s.36.01.525-.062h.044c.162-.069.3-.184.397-.331s.149-.319.15-.495v-.093c0-.29.115-.568.32-.773s.483-.32.773-.32.568.115.773.32.32.483.32.773v.049a.9.9 0 0 0 .15.495c.097.147.235.262.397.331a.9.9 0 0 0 .995-.181l.033-.033c.102-.102.222-.182.355-.237a1.09 1.09 0 0 1 .838 0 1.09 1.09 0 0 1 .355.237c.102.102.182.222.237.355s.083.275.083.419-.028.286-.083.419-.136.253-.237.355l-.033.033a.9.9 0 0 0-.243.47c-.032.177-.01.36.062.525v.044c.069.162.184.3.331.397a.9.9 0 0 0 .495.15h.093c.29 0 .568.115.773.32s.32.483.32.773-.115.568-.32.773-.483.32-.773.32h-.049a.9.9 0 0 0-.826.547h0z"/></g><defs><clipPath id="A"><path fill="#fff" transform="translate(14.328 13.781)" d="M0 0h13.125v13.125H0z"/></clipPath></defs></svg>