<svg width="194" height="194" viewBox="0 0 194 194" fill="none" xmlns="http://www.w3.org/2000/svg">
<path d="M101.01 153.497H106.01V153.4H101.01V153.497Z" fill="#ECECEC"/>
<path d="M155.275 87.6457C156.223 84.3609 156.049 81.0196 154.986 78.0257C155.817 76.837 156.473 75.4964 156.897 74.025C158.848 67.2656 155.291 60.225 148.876 57.6908C147.638 48.8361 141.35 41.0965 132.2 38.4589C124.965 36.3736 117.547 37.9416 111.906 42.066C110.495 40.5891 108.688 39.4528 106.584 38.8461C100.24 37.0172 93.613 40.675 91.7832 47.016C91.4771 48.0766 91.328 49.1447 91.316 50.1971C84.9316 51.4825 79.4643 56.1859 77.5346 62.8728C75.8012 68.8799 77.3354 75.0533 81.0861 79.4991C80.6015 80.3742 80.2033 81.3148 79.914 82.3169C77.837 89.5153 81.9914 97.0339 89.1935 99.1099C91.5683 99.7944 93.9768 99.7982 96.2147 99.2424C98.8624 102.891 102.697 105.721 107.366 107.066C113.374 108.798 119.523 107.721 124.417 104.617C126.608 109.71 128.409 117.348 124.533 124.839C138.615 123.459 148.784 109.959 146.711 97.5903C150.73 95.7422 153.953 92.2271 155.275 87.6457Z" fill="#E9EBF5"/>
<path d="M124.461 100.681C124.489 100.681 124.517 100.685 124.544 100.694C124.623 100.718 124.687 100.775 124.72 100.851L125.763 103.269C127.557 107.429 129.294 113.728 127.555 120.358C131.776 119.015 135.6 116.316 138.364 112.718C141.803 108.242 143.3 102.846 142.471 97.9149L142.187 96.2229C142.166 96.0981 142.231 95.975 142.347 95.922L143.91 95.2052C147.27 93.6633 149.784 90.7526 150.807 87.2186C151.545 84.6666 151.464 81.9962 150.574 79.4951L150.187 78.4064C150.156 78.3212 150.169 78.2267 150.221 78.1524L150.885 77.2056C151.551 76.2551 152.051 75.2096 152.373 74.0977C153.887 68.8637 151.203 63.409 146.128 61.4097L144.908 60.9287C144.814 60.8917 144.747 60.8067 144.733 60.7069L144.552 59.4118C143.457 51.6013 137.844 45.1441 130.252 42.9611C128.434 42.4383 126.564 42.1736 124.693 42.1736C120.48 42.1736 116.274 43.5494 112.849 46.0474L111.256 47.209C111.142 47.2923 110.984 47.278 110.887 47.1765L109.523 45.754C108.427 44.6101 107.04 43.7735 105.511 43.3341C104.693 43.0985 103.85 42.979 103.008 42.979C99.0182 42.979 95.4587 45.6517 94.3515 49.4789C94.127 50.2544 94.0088 51.0595 93.9996 51.8723L93.979 53.6879C93.9773 53.82 93.8834 53.9333 93.7531 53.9593L91.9676 54.318C86.4944 55.4168 82.1349 59.4154 80.5905 64.7537C79.2107 69.523 80.3069 74.6406 83.5235 78.4432L84.5224 79.6241C84.5975 79.7128 84.6099 79.839 84.5533 79.9408L83.8031 81.2925C83.4149 81.9914 83.1071 82.729 82.8885 83.4845C82.1056 86.19 82.4266 89.0379 83.7924 91.5033C85.1585 93.9687 87.4053 95.7563 90.1194 96.5368C91.9055 97.05 93.7942 97.0848 95.5881 96.64L97.0614 96.2748C97.1722 96.2465 97.2898 96.2894 97.357 96.3825L98.2482 97.6075C100.586 100.821 103.844 103.101 107.67 104.201C109.277 104.663 110.93 104.897 112.584 104.897C115.94 104.897 119.224 103.942 122.081 102.135L124.31 100.724C124.356 100.696 124.409 100.681 124.461 100.681ZM127.148 121.056C127.075 121.056 127.004 121.027 126.95 120.974C126.877 120.902 126.85 120.796 126.878 120.698C128.794 114.046 127.048 107.669 125.246 103.491L124.333 101.374L122.382 102.609C119.435 104.473 116.047 105.458 112.584 105.458C110.878 105.458 109.172 105.217 107.514 104.74C103.567 103.605 100.205 101.252 97.7928 97.9368L97.013 96.8649L95.724 97.1843C93.8342 97.6527 91.8444 97.6156 89.9638 97.0758C87.1051 96.2538 84.7385 94.3712 83.2998 91.7745C81.8615 89.1778 81.5233 86.1787 82.3479 83.3288C82.5782 82.5332 82.9023 81.7567 83.3108 81.0208L83.9674 79.8381L83.0931 78.8047C79.7556 74.8591 78.6179 69.548 80.0498 64.5981C81.6527 59.0581 86.1768 54.9084 91.8568 53.7681L93.4189 53.4545L93.4369 51.8658C93.4465 51.0026 93.5725 50.1475 93.8108 49.3233C94.9873 45.2576 98.7689 42.4181 103.008 42.4181C103.903 42.4181 104.798 42.5449 105.667 42.795C107.291 43.262 108.765 44.1513 109.93 45.3667L111.123 46.6111L112.517 45.595C116.037 43.027 120.361 41.6127 124.693 41.6127C126.616 41.6127 128.539 41.885 130.407 42.422C138.213 44.6665 143.983 51.3049 145.109 59.3338L145.267 60.4671L146.335 60.8881C151.681 62.9942 154.509 68.7397 152.914 74.2533C152.575 75.4245 152.047 76.5258 151.346 77.5264L150.765 78.3551L151.104 79.3078C152.034 81.9199 152.118 84.7089 151.347 87.3743C150.279 91.0647 147.654 94.1047 144.145 95.7145L142.777 96.3419L143.026 97.8223C143.88 102.907 142.344 108.46 138.811 113.059C135.869 116.889 131.755 119.725 127.227 121.044C127.201 121.052 127.175 121.056 127.148 121.056Z" fill="#22379C"/>
<path d="M33.8234 57.0333L39.5635 55.6819L40.7558 60.7449L35.0153 62.0967L33.8234 57.0333ZM39.0307 54.3037L33.6713 55.5655L33.5452 55.0296C33.3303 54.1175 33.2596 53.3527 33.3322 52.735C33.4051 52.1173 33.591 51.5256 33.8894 50.9591C34.1877 50.3927 34.9117 49.3486 36.0625 47.8276C36.6779 47.0275 36.9247 46.3695 36.8029 45.8523C36.681 45.3355 36.4339 44.9692 36.0606 44.7542C35.6874 44.5393 35.1907 44.5048 34.5703 44.651C33.9026 44.8082 33.402 45.1589 33.0691 45.7041C32.7358 46.2488 32.6373 47.0854 32.7742 48.2144L27.1424 48.8263C26.8569 46.7699 27.2064 44.9781 28.192 43.451C29.1771 41.9238 30.986 40.8506 33.6185 40.2306C35.6687 39.7479 37.424 39.7867 38.8856 40.3454C40.8691 41.0989 42.0878 42.4398 42.5414 44.3666C42.7299 45.1663 42.6904 45.9892 42.4234 46.8363C42.1561 47.6833 41.467 48.803 40.3562 50.1956C39.5833 51.1722 39.1262 51.9167 38.9846 52.4316C38.843 52.9465 38.8585 53.57 39.0307 54.3037Z" fill="#ECECEC"/>
<path d="M29.0324 36.9904C-8.1046 61.0402 53.1276 72.3508 68.9351 85.3899C80.2767 94.7453 76.2408 115.009 93.7244 126.269C112.098 138.103 139.137 137.898 152.815 131.229C173.483 121.15 173.073 75.8792 139.381 59.764C113.829 47.5428 94.6816 65.7338 68.4307 55.9779C51.9268 49.8444 49.2507 23.8977 29.0324 36.9904Z" fill="#BDC3E1"/>
<g opacity="0.899994">
<g opacity="0.899994">
<path opacity="0.899994" d="M29.0324 36.9904C-8.1046 61.0402 53.1276 72.3508 68.9351 85.3899C80.2767 94.7453 76.2408 115.009 93.7244 126.269C112.098 138.103 139.137 137.898 152.815 131.229C173.483 121.15 173.073 75.8792 139.381 59.764C113.829 47.5428 94.6816 65.7338 68.4307 55.9779C51.9268 49.8444 49.2507 23.8977 29.0324 36.9904Z" fill="#BDC3E1"/>
</g>
</g>
<path d="M172.229 161.5C172.229 163.927 138.548 165.894 97.0002 165.894C55.4524 165.894 21.7712 163.927 21.7712 161.5C21.7712 159.074 55.4524 157.107 97.0002 157.107C138.548 157.107 172.229 159.074 172.229 161.5Z" fill="#E9EBF5"/>
<path d="M61.0011 91.5613C60.2484 89.9073 58.8488 88.8643 56.9539 88.545L57.0183 88.1621C59.046 88.5039 60.5456 89.624 61.3542 91.4007L61.0011 91.5613ZM61.1536 96.0059L60.7962 95.8542C61.1167 95.096 61.3014 94.4671 61.3604 93.9316L61.746 93.9743C61.6828 94.5478 61.4892 95.212 61.1536 96.0059Z" fill="#22379C"/>
<path d="M55.4835 102.721L59.5719 100.859L61.2139 104.466L57.1252 106.327L55.4835 102.721ZM58.9693 99.9089L55.1522 101.646L54.9784 101.265C54.6827 100.615 54.5163 100.054 54.479 99.5822C54.4418 99.1096 54.493 98.6401 54.6315 98.1722C54.7704 97.705 55.1568 96.8177 55.7908 95.5105C56.1319 94.8214 56.2188 94.2929 56.0512 93.9247C55.8836 93.5565 55.6442 93.3198 55.3338 93.2143C55.023 93.1092 54.6466 93.1573 54.2047 93.3583C53.729 93.5748 53.4074 93.9115 53.2393 94.3678C53.071 94.8241 53.1218 95.4643 53.3914 96.2877L49.2744 97.5797C48.7556 96.0855 48.751 94.6949 49.2608 93.4079C49.7702 92.1209 50.963 91.0504 52.8382 90.1968C54.2978 89.5322 55.6155 89.3002 56.7903 89.5011C58.3838 89.7696 59.4935 90.5906 60.1186 91.9634C60.3778 92.533 60.4701 93.1538 60.3964 93.8262C60.3223 94.4986 59.9739 95.4375 59.3503 96.6431C58.9177 97.487 58.6865 98.1112 58.657 98.5167C58.6275 98.9226 58.7319 99.3862 58.9693 99.9089Z" fill="#919BCE"/>
<path d="M48.217 111.778L50.2971 108.955L52.7873 110.789L50.7076 113.613L48.217 111.778ZM49.5246 108.536L47.5826 111.172L47.3192 110.978C46.8703 110.647 46.5436 110.328 46.3387 110.02C46.1338 109.713 45.9899 109.373 45.9069 109.001C45.8238 108.63 45.7501 107.878 45.6853 106.745C45.6558 106.146 45.5142 105.753 45.2597 105.565C45.0051 105.378 44.7522 105.307 44.5004 105.354C44.2485 105.4 44.0103 105.576 43.7853 105.881C43.5435 106.209 43.452 106.561 43.511 106.937C43.5699 107.312 43.8477 107.728 44.3448 108.187L42.0288 110.634C41.1073 109.812 40.5753 108.866 40.4337 107.794C40.2913 106.723 40.6976 105.54 41.6517 104.245C42.3943 103.237 43.2044 102.578 44.0817 102.268C45.2705 101.845 46.3395 101.983 47.2874 102.682C47.6804 102.972 47.9795 103.36 48.1848 103.846C48.3901 104.333 48.5096 105.106 48.5425 106.164C48.5685 106.904 48.6485 107.418 48.7827 107.706C48.9166 107.993 49.1637 108.27 49.5246 108.536Z" fill="#919BCE"/>
<path d="M90.8264 160.103C90.1967 160.103 89.5887 159.76 89.2794 159.162C87.7201 156.15 85.7611 152.615 82.2353 148.79C81.8232 148.342 81.6746 147.712 81.843 147.128C83.1521 142.584 85.2074 136.373 85.2276 136.311C85.5302 135.398 86.5145 134.904 87.4271 135.206C88.3397 135.508 88.8344 136.493 88.5321 137.405C88.5131 137.463 86.7431 142.813 85.458 147.166C88.6986 150.841 90.6964 154.328 92.3702 157.562C92.8126 158.415 92.4785 159.465 91.6249 159.907C91.3692 160.04 91.0957 160.103 90.8264 160.103Z" fill="#919BCE"/>
<path d="M93.7255 161.5H80.2278L87.3809 157.442L93.3775 157.675L93.7255 161.5Z" fill="#7A87C4"/>
<path d="M101.041 134.803C101.087 140.21 95.9792 145.097 89.6323 145.719C83.2851 146.34 78.1025 142.462 78.056 137.055C78.0098 131.648 83.1178 126.761 89.4651 126.14C95.812 125.518 100.995 129.397 101.041 134.803Z" fill="#7A87C4"/>
<path d="M58.8417 129.584C58.1588 129.584 57.5104 129.18 57.233 128.509C56.8652 127.621 57.287 126.603 58.1747 126.235C59.1858 125.817 59.3263 124.783 59.3271 124.773C59.4 123.995 59.9824 123.361 60.751 123.222C61.1658 123.147 61.5666 123.03 62.0306 122.895C64.3885 122.206 67.309 121.352 76.5065 123.928C85.5784 118.854 85.6816 109.34 85.6816 108.93C85.6812 107.97 86.4568 107.189 87.4163 107.186H87.4221C88.3786 107.186 89.1561 107.955 89.1623 108.912C89.1658 109.417 89.1092 121.36 77.506 127.342C77.1107 127.545 76.6532 127.591 76.2256 127.467C67.4588 124.935 64.9903 125.656 63.0072 126.236C62.8315 126.287 62.6534 126.34 62.4714 126.39C62.0423 127.494 61.1479 128.771 59.5071 129.451C59.289 129.542 59.0636 129.584 58.8417 129.584Z" fill="#919BCE"/>
<path d="M79.1836 117.133C75.8832 104.009 67.0842 70.1613 95.2728 68.0921C120.562 66.2359 127.503 99.8969 129.19 111.558C130.173 118.354 130.503 124.519 130.561 129.336C130.635 135.55 126.27 140.908 120.18 142.145C106.401 144.943 93.3626 145.341 84.5814 141.875C82.2069 140.938 80.7705 138.518 80.999 135.976C81.3373 132.206 81.3436 125.723 79.1836 117.133Z" fill="#919BCE"/>
<g opacity="0.100006">
<g opacity="0.100006">
<path opacity="0.100006" d="M129.189 111.556C127.599 100.567 121.343 70.0242 99.4446 68.1144C96.8962 67.8925 94.3816 69.1465 93.2079 71.4194C92.2305 73.3117 92.2623 75.6063 93.7255 77.8742C98.5522 85.3587 110.062 111.227 108.324 125.323C107.532 131.737 103.51 136.857 107.011 144.067C111.236 143.718 115.667 143.062 120.179 142.143C126.271 140.909 130.636 135.551 130.562 129.335C130.504 124.52 130.174 118.355 129.189 111.556Z" fill="#F88989"/>
</g>
</g>
<path d="M125.417 129.51C125.322 129.51 125.244 129.433 125.243 129.338C125.171 123.342 124.71 117.368 123.873 111.583C119.683 82.618 108.402 67.9687 91.2438 69.2324C91.1503 69.2441 91.0646 69.1676 91.0576 69.0718C91.0506 68.976 91.1224 68.8925 91.2182 68.8855C108.582 67.6048 119.997 82.3581 124.218 111.533C125.057 117.334 125.519 123.323 125.591 129.334C125.592 129.43 125.515 129.509 125.419 129.51H125.417Z" fill="#22379C"/>
<path d="M133.761 135.732C133.807 141.139 128.699 146.026 122.352 146.647C116.005 147.269 110.822 143.39 110.776 137.984C110.73 132.577 115.838 127.69 122.185 127.069C128.532 126.447 133.715 130.325 133.761 135.732Z" fill="#7A87C4"/>
<path d="M126.215 160.103C125.585 160.103 124.977 159.76 124.668 159.162C123.108 156.15 121.15 152.616 117.624 148.79C117.212 148.342 117.063 147.712 117.231 147.128C118.541 142.584 120.596 136.373 120.616 136.311C120.919 135.398 121.902 134.902 122.816 135.206C123.728 135.508 124.223 136.493 123.921 137.405C123.902 137.463 122.132 142.813 120.846 147.166C124.087 150.841 126.085 154.328 127.759 157.562C128.201 158.415 127.867 159.465 127.013 159.907C126.758 160.04 126.484 160.103 126.215 160.103Z" fill="#919BCE"/>
<path d="M122.56 107.051C121.934 107.051 121.329 106.712 121.017 106.119C120.571 105.269 120.897 104.22 121.745 103.771C122.08 103.593 129.658 99.451 131.785 89.5046C126.733 87.392 117.653 82.6223 115.668 80.2248C115.476 79.9928 115.347 79.7146 115.295 79.4174C115.248 79.1555 114.921 77.098 115.683 75.1486L114.767 73.379C114.325 72.5254 114.658 71.4754 115.512 71.0331C116.365 70.5924 117.416 70.9249 117.858 71.7785L119.176 74.3245C119.458 74.8693 119.433 75.5215 119.109 76.0426C118.693 76.7138 118.641 77.6963 118.675 78.3365C120.911 80.3564 129.943 85.1431 134.361 86.7836C135.136 87.0711 135.601 87.8646 135.475 88.6813C133.507 101.395 123.781 106.634 123.367 106.851C123.109 106.987 122.833 107.051 122.56 107.051Z" fill="#919BCE"/>
<path d="M117.008 79.9854C116.844 79.9854 116.679 79.9396 116.532 79.8437C116.13 79.5807 116.017 79.0413 116.28 78.639C116.34 78.547 117.779 76.377 119.967 75.7907C120.431 75.6654 120.909 75.942 121.033 76.4061C121.157 76.8705 120.882 77.3473 120.418 77.4715C118.889 77.8812 117.748 79.5737 117.737 79.5908C117.57 79.8464 117.292 79.9854 117.008 79.9854Z" fill="#7A87C4"/>
<path d="M129.114 161.5H115.616L122.769 157.442L128.766 157.675L129.114 161.5Z" fill="#7A87C4"/>
<path d="M109.353 100.381C109.76 104.977 105.95 109.069 100.844 109.521C95.7371 109.972 91.2677 106.613 90.8611 102.018C90.4541 97.4218 94.2642 93.3296 99.3703 92.8776C104.477 92.4256 108.946 95.7849 109.353 100.381Z" fill="white"/>
<path d="M100.298 101.312C101 103.777 100.471 106.087 99.1161 106.473C97.7612 106.859 96.0939 105.175 95.3916 102.71C94.6897 100.246 95.2186 97.9353 96.5731 97.5496C97.928 97.1636 99.5952 98.8479 100.298 101.312Z" fill="#7A87C4"/>
<path d="M89.5488 102.766C95.408 102.011 107.011 98.7044 108.925 97.3705C107.417 92.9613 100.405 89.1907 94.1319 91.3142C88.4768 93.229 89.5488 102.766 89.5488 102.766Z" fill="#7A87C4"/>
<path d="M90.6887 105.597C97.9606 104.215 107.417 101.895 110.121 100.408C109.954 105.153 108.577 109.959 101.152 111.583C95.084 112.91 90.6887 105.597 90.6887 105.597Z" fill="#7A87C4"/>
<path d="M86.9078 105.149C87.1267 108.862 84.5286 111.413 81.1049 110.846C77.6812 110.279 74.7281 106.809 74.5097 103.096C74.2909 99.3833 76.8889 96.8322 80.3126 97.3994C83.7363 97.9663 86.689 101.436 86.9078 105.149Z" fill="white"/>
<path d="M80.8348 104.247C81.2759 106.325 80.8949 108.059 79.9835 108.119C79.0725 108.18 77.9756 106.544 77.5344 104.465C77.0929 102.387 77.4739 100.653 78.3853 100.592C79.2967 100.532 80.3936 102.168 80.8348 104.247Z" fill="#7A87C4"/>
<path d="M73.6223 103.451C77.5535 103.915 85.3593 103.398 86.6564 102.688C85.698 98.9232 81.0482 94.6672 76.8237 95.2131C73.0159 95.7051 73.6223 103.451 73.6223 103.451Z" fill="#7A87C4"/>
<path d="M74.3525 105.901C79.2367 106.124 85.5941 105.999 87.4219 105.311C87.2547 109.038 86.2766 112.595 81.2869 112.536C77.2098 112.489 74.3525 105.901 74.3525 105.901Z" fill="#7A87C4"/>
<path d="M102.466 88.9678C95.1389 88.9678 90.2667 85.3477 90.0273 85.1661C89.2614 84.5853 89.1117 83.4939 89.6925 82.7276C90.2722 81.9636 91.3609 81.8131 92.1264 82.3896C92.2106 82.4513 97.998 86.6716 106.032 85.1487C106.977 84.9714 107.887 85.5906 108.066 86.5346C108.245 87.479 107.625 88.3897 106.68 88.5689C105.204 88.8487 103.794 88.9678 102.466 88.9678Z" fill="#7A87C4"/>
<path d="M71.3448 85.9668C71.1493 85.9672 70.9506 85.9338 70.7562 85.864C69.8518 85.5388 69.3819 84.5421 69.7071 83.6376C70.6297 81.0695 72.1596 79.4018 74.2544 78.6817C78.0518 77.3738 82.1413 79.9163 82.3136 80.0253C83.126 80.5391 83.3685 81.6138 82.8556 82.4263C82.3431 83.2368 81.271 83.4809 80.4593 82.971C79.667 82.4783 77.2102 81.3395 75.3765 81.9766C74.3196 82.3436 73.5366 83.2725 72.9826 84.8144C72.7276 85.5245 72.0583 85.9668 71.3448 85.9668Z" fill="#7A87C4"/>
<path d="M85.0618 115.331C85.0137 115.331 84.9652 115.324 84.9167 115.31C84.6428 115.23 84.4829 114.948 84.5594 114.673C84.5726 114.626 84.8997 113.498 86.3294 112.761C88.3261 111.731 91.3688 111.944 95.3733 113.394C95.6442 113.492 95.7846 113.791 95.6864 114.062C95.5883 114.334 95.2887 114.475 95.0179 114.376C90.4259 112.712 88.0425 113.072 86.8509 113.667C85.8111 114.186 85.5732 114.928 85.5635 114.959C85.4945 115.184 85.2865 115.331 85.0618 115.331Z" fill="#7A87C4"/>
<path d="M68.6304 113.419C58.5032 114.329 51.2534 118.522 51.2534 118.522C54.2519 117.955 64.9712 131.22 67.7271 141.45C72.8107 139.565 78.7393 138.282 85.0622 137.279C81.2326 126.735 74.2296 114.79 68.6304 113.419Z" fill="#BDC3E1"/>
<g opacity="0.600006">
<g opacity="0.600006">
<path d="M68.6304 113.419C58.5032 114.329 51.2534 118.522 51.2534 118.522C54.2519 117.955 64.9712 131.22 67.7271 141.45C72.8107 139.565 78.7393 138.282 85.0622 137.279C81.2326 126.735 74.2296 114.79 68.6304 113.419Z" fill="#E9EBF5"/>
</g>
</g>
<path d="M68.6302 113.419C62.0032 112.671 51.2432 118.22 51.2432 118.22C49.3369 119.435 49.8545 121.716 50.8948 122.678C51.8927 121.246 63.0132 117.52 67.1931 117.02C65.113 115.096 67.046 113.7 68.6302 113.419Z" fill="#BDC3E1"/>
<g opacity="0.199997">
<g opacity="0.199997">
<path opacity="0.199997" d="M68.6305 113.419C62.0034 112.671 51.2434 118.22 51.2434 118.22C49.3372 119.435 49.8548 121.716 50.895 122.678C51.8929 121.246 63.0134 117.52 67.1933 117.02C65.1133 115.096 67.0463 113.7 68.6305 113.419Z" fill="#BDC3E1"/>
</g>
</g>
<path d="M58.8426 129.584C58.2742 129.584 57.7174 129.306 57.3834 128.794C56.1212 126.86 56.9096 123.909 57.0803 123.338C57.3554 122.416 58.325 121.893 59.2465 122.169C60.1661 122.443 60.6895 123.411 60.4167 124.331C60.1319 125.305 60.0745 126.549 60.2984 126.892C60.8237 127.697 60.5968 128.775 59.7921 129.301C59.4983 129.492 59.1685 129.584 58.8426 129.584Z" fill="#919BCE"/>
</svg>
