<svg width="28" height="28" viewBox="0 0 28 28" fill="none" xmlns="http://www.w3.org/2000/svg">
<rect x="0.546875" y="0.546875" width="26.9062" height="21.1094" rx="2.07812" stroke="#22379C" stroke-width="1.09375"/>
<rect x="1.03906" y="16.7344" width="25.9766" height="1.09375" fill="#22379C"/>
<rect x="11.2656" y="18.9219" width="4.42969" height="1.09375" rx="0.546875" fill="#22379C"/>
<rect x="16.7891" y="18.9219" width="1.09375" height="1.09375" rx="0.546875" fill="#22379C"/>
<rect x="11.2656" y="22.1484" width="1.09375" height="2.625" fill="#22379C"/>
<rect x="15.6406" y="22.1484" width="1.09375" height="2.625" fill="#22379C"/>
<mask id="path-7-inside-1_766_31322" fill="white">
<path d="M7.98438 26.3594C7.98438 25.4533 8.71891 24.7188 9.625 24.7188H18.375C19.2811 24.7188 20.0156 25.4533 20.0156 26.3594V27.4531C20.0156 27.7552 19.7708 28 19.4688 28H8.53125C8.22922 28 7.98438 27.7552 7.98438 27.4531V26.3594Z"/>
</mask>
<path d="M7.98438 26.3594C7.98438 25.4533 8.71891 24.7188 9.625 24.7188H18.375C19.2811 24.7188 20.0156 25.4533 20.0156 26.3594V27.4531C20.0156 27.7552 19.7708 28 19.4688 28H8.53125C8.22922 28 7.98438 27.7552 7.98438 27.4531V26.3594Z" stroke="#22379C" stroke-width="2.1875" mask="url(#path-7-inside-1_766_31322)"/>
<rect x="4.15625" y="8.53125" width="4.375" height="8.75" stroke="#22379C" stroke-width="1.09375"/>
<path d="M6.19158 4.24104C6.21905 4.18889 6.27315 4.15625 6.33209 4.15625C6.39055 4.15625 6.44429 4.18837 6.47198 4.23987L7.63709 6.40698L8.53125 8.1442V8.53125H4.15625V8.1442L5.05145 6.40495L6.19158 4.24104L5.71265 3.9887L6.19158 4.24104Z" stroke="#22379C" stroke-width="1.09375"/>
<rect x="5.79688" y="9.02344" width="1.09375" height="7.71094" fill="#22379C"/>
<mask id="path-11-inside-2_766_31322" fill="white">
<path fill-rule="evenodd" clip-rule="evenodd" d="M14.013 3.99219C13.8866 3.99219 13.7699 4.05995 13.7073 4.16973L11.8125 7.49219H11.8229C11.6417 7.83503 11.5391 8.22584 11.5391 8.64062C11.5391 9.99976 12.6409 11.1016 14 11.1016C15.3591 11.1016 16.4609 9.99976 16.4609 8.64062C16.4609 8.22584 16.3583 7.83503 16.1771 7.49219H16.1875L14.3196 4.17154C14.2573 4.06075 14.1401 3.99219 14.013 3.99219Z"/>
</mask>
<path d="M13.7073 4.16973L14.6574 4.71158L14.6574 4.71158L13.7073 4.16973ZM11.8125 7.49219L10.8624 6.95034L9.9296 8.58594H11.8125V7.49219ZM11.8229 7.49219L12.7899 8.00333L13.6382 6.39844H11.8229V7.49219ZM16.1771 7.49219V6.39844H14.3618L15.2101 8.00333L16.1771 7.49219ZM16.1875 7.49219V8.58594H18.0576L17.1408 6.95596L16.1875 7.49219ZM14.3196 4.17154L13.3663 4.70776L13.3663 4.70776L14.3196 4.17154ZM14.6574 4.71158C14.5254 4.94304 14.2794 5.08594 14.013 5.08594V2.89844C13.4938 2.89844 13.0145 3.17687 12.7572 3.62787L14.6574 4.71158ZM12.7626 8.03404L14.6574 4.71158L12.7572 3.62787L10.8624 6.95034L12.7626 8.03404ZM11.8229 6.39844H11.8125V8.58594H11.8229V6.39844ZM12.6328 8.64062C12.6328 8.40827 12.6899 8.19247 12.7899 8.00333L10.8559 6.98105C10.5935 7.47759 10.4453 8.04342 10.4453 8.64062H12.6328ZM14 10.0078C13.2449 10.0078 12.6328 9.3957 12.6328 8.64062H10.4453C10.4453 10.6038 12.0368 12.1953 14 12.1953V10.0078ZM15.3672 8.64062C15.3672 9.3957 14.7551 10.0078 14 10.0078V12.1953C15.9632 12.1953 17.5547 10.6038 17.5547 8.64062H15.3672ZM15.2101 8.00333C15.3101 8.19247 15.3672 8.40827 15.3672 8.64062H17.5547C17.5547 8.04342 17.4065 7.47759 17.1441 6.98105L15.2101 8.00333ZM16.1875 6.39844H16.1771V8.58594H16.1875V6.39844ZM13.3663 4.70776L15.2342 8.02841L17.1408 6.95596L15.2729 3.63531L13.3663 4.70776ZM14.013 5.08594C13.7449 5.08594 13.4978 4.94137 13.3663 4.70776L15.2729 3.63531C15.0169 3.18013 14.5352 2.89844 14.013 2.89844V5.08594Z" fill="#22379C" mask="url(#path-11-inside-2_766_31322)"/>
<path d="M12.4256 17.2812L13.1206 11.2109H14.8974L15.4766 17.2812H12.4256Z" stroke="#22379C" stroke-width="1.09375"/>
<rect x="13.125" y="14.5469" width="1.69531" height="1.09375" fill="#22379C"/>
<mask id="path-15-inside-3_766_31322" fill="white">
<rect x="18.9766" y="3.60938" width="5.41406" height="14.2188" rx="0.492188"/>
</mask>
<rect x="18.9766" y="3.60938" width="5.41406" height="14.2188" rx="0.492188" stroke="#22379C" stroke-width="2.1875" mask="url(#path-15-inside-3_766_31322)"/>
<path d="M22.2031 6.34375C22.2031 6.04172 22.448 5.79688 22.75 5.79688H23.2969V6.89062H22.75C22.448 6.89062 22.2031 6.64578 22.2031 6.34375Z" fill="#22379C"/>
<path d="M22.2031 9.07812C22.2031 8.77609 22.448 8.53125 22.75 8.53125H23.2969V9.625H22.75C22.448 9.625 22.2031 9.38016 22.2031 9.07812Z" fill="#22379C"/>
<path d="M22.2031 11.8125C22.2031 11.5105 22.448 11.2656 22.75 11.2656H23.2969V12.3594H22.75C22.448 12.3594 22.2031 12.1145 22.2031 11.8125Z" fill="#22379C"/>
<path d="M22.2031 15.0938C22.2031 14.7917 22.448 14.5469 22.75 14.5469H23.2969V15.6406H22.75C22.448 15.6406 22.2031 15.3958 22.2031 15.0938Z" fill="#22379C"/>
</svg>
