<svg width="28" height="28" viewBox="0 0 28 28" fill="none" xmlns="http://www.w3.org/2000/svg">
<path d="M4.85938 22.332C4.85938 19.796 6.91516 17.7402 9.45111 17.7402H18.5864C21.1224 17.7402 23.1781 19.796 23.1781 22.332V25.358C23.1781 26.2227 22.4772 26.9237 21.6125 26.9237H6.42503C5.56034 26.9237 4.85938 26.2227 4.85938 25.358V22.332Z" stroke="#22379C" stroke-width="1.09375"/>
<circle cx="14.0191" cy="12.5123" r="5.16269" stroke="#22379C" stroke-width="1.09375"/>
<path d="M23.0135 17.7459C23.1679 17.3857 23.4243 17.0784 23.7511 16.862C24.0778 16.6456 24.4608 16.5294 24.8527 16.5279H24.9624C25.6084 16.5279 26.2281 16.2712 26.6849 15.8144C27.1418 15.3575 27.3984 14.7379 27.3984 14.0918C27.3984 13.4457 27.1418 12.8261 26.6849 12.3692C26.2281 11.9124 25.6084 11.6557 24.9624 11.6557H24.7553C24.3633 11.6542 23.9804 11.538 23.6536 11.3216C23.3268 11.1052 23.0705 10.7979 22.9161 10.4377V10.3402C22.7539 9.97285 22.7055 9.56532 22.7772 9.1702C22.8488 8.77507 23.0372 8.41047 23.318 8.1234L23.3911 8.05032C23.6176 7.82407 23.7973 7.5554 23.9199 7.25967C24.0425 6.96393 24.1056 6.64693 24.1056 6.32679C24.1056 6.00665 24.0425 5.68966 23.9199 5.39392C23.7973 5.09818 23.6176 4.82951 23.3911 4.60327C23.1648 4.37677 22.8962 4.19709 22.6004 4.07449C22.3047 3.9519 21.9877 3.8888 21.6676 3.8888C21.3474 3.8888 21.0304 3.9519 20.7347 4.07449C20.439 4.19709 20.1703 4.37677 19.944 4.60327L19.871 4.67635C19.5839 4.95715 19.2193 5.14552 18.8242 5.21716C18.429 5.28881 18.0215 5.24044 17.6541 5.0783C17.2939 4.9239 16.9866 4.66753 16.7702 4.34074C16.5538 4.01395 16.4376 3.63101 16.4361 3.23906V3.12944C16.4361 2.48335 16.1794 1.86372 15.7226 1.40687C15.2657 0.950017 14.6461 0.693359 14 0.693359C13.3539 0.693359 12.7343 0.950017 12.2774 1.40687C11.8206 1.86372 11.5639 2.48335 11.5639 3.12944V3.33651C11.5624 3.72845 11.4462 4.11139 11.2298 4.43818C11.0134 4.76497 10.7061 5.02134 10.3459 5.17575H10.2484C9.88106 5.33789 9.47353 5.38625 9.0784 5.31461C8.68328 5.24296 8.31867 5.0546 8.0316 4.77379L7.95852 4.70071C7.73228 4.47421 7.4636 4.29453 7.16787 4.17194C6.87213 4.04934 6.55514 3.98624 6.235 3.98624C5.91486 3.98624 5.59786 4.04934 5.30212 4.17194C5.00639 4.29453 4.73772 4.47421 4.51147 4.70071C4.28497 4.92696 4.10529 5.19563 3.9827 5.49136C3.8601 5.7871 3.797 6.1041 3.797 6.42424C3.797 6.74438 3.8601 7.06137 3.9827 7.35711C4.10529 7.65284 4.28497 7.92152 4.51147 8.14776L4.58455 8.22084C4.86536 8.50791 5.05372 8.87252 5.12537 9.26764C5.19701 9.66277 5.14865 10.0703 4.98651 10.4377C4.8473 10.8162 4.59746 11.144 4.26944 11.3786C3.94143 11.6132 3.55043 11.7437 3.14727 11.7532H3.03764C2.39155 11.7532 1.77193 12.0098 1.31507 12.4667C0.85822 12.9235 0.601562 13.5432 0.601562 14.1892C0.601563 14.8353 0.85822 15.455 1.31507 15.9118C1.77193 16.3687 2.39155 16.6253 3.03764 16.6253H3.24471C3.63666 16.6269 4.0196 16.743 4.34638 16.9594C4.67317 17.1759 4.92955 17.4831 5.08395 17.8434" stroke="#22379C" stroke-width="1.09375" stroke-linecap="round" stroke-linejoin="round"/>
</svg>
