<svg width="28" height="28" viewBox="0 0 166 166" fill="none" xmlns="http://www.w3.org/2000/svg"><rect x="2.5" y="2.5" width="161" height="161" rx="17.5" stroke="#22379C" stroke-width="5"/><rect x="17.44" y="17.44" width="131.12" height="131.12" rx="17.5" stroke="#22379C" stroke-width="5"/><rect x="28.22" y="67.23" width="24.9" height="24.9" rx="3" fill="#22379C"/><mask id="path-4-inside-1_1002_1072" fill="#fff"><rect x="70.55" y="67.23" width="24.9" height="24.9" rx="3"/></mask><rect x="70.55" y="67.23" width="24.9" height="24.9" rx="3" stroke="#22379C" stroke-width="10" mask="url(#path-4-inside-1_1002_1072)"/><mask id="path-5-inside-2_1002_1072" fill="#fff"><rect x="112.88" y="67.23" width="24.9" height="24.9" rx="3"/></mask><rect x="112.88" y="67.23" width="24.9" height="24.9" rx="3" stroke="#22379C" stroke-width="10" mask="url(#path-5-inside-2_1002_1072)"/><path fill-rule="evenodd" clip-rule="evenodd" d="M147.74 83H18.26v48.06a20 20 0 0 0 20 20h89.48a20 20 0 0 0 20-20V83ZM42.35 100a5 5 0 0 0-5 5v23.2a5 5 0 0 0 5 5h19.88a5 5 0 0 0 5-5V105a5 5 0 0 0-5-5H42.35Zm33.83 9a3.5 3.5 0 0 1 3.5-3.5h49.8a3.5 3.5 0 1 1 0 7h-49.8a3.5 3.5 0 0 1-3.5-3.5Zm3.5 12.5a3.5 3.5 0 1 0 0 7h39.01a3.5 3.5 0 1 0 0-7H79.68Z" fill="#22379C"/><path d="M52.3 104.58a12.46 12.46 0 0 0-12.46 12.45c0 6.86 5.59 12.45 12.45 12.45 6.87 0 12.45-5.58 12.45-12.45 0-6.86-5.58-12.45-12.45-12.45Zm-11.2 12.45c0-1.62.34-3.16.97-4.56l5.34 14.63a11.2 11.2 0 0 1-6.31-10.07Zm11.2 11.2c-1.1 0-2.17-.17-3.17-.46l3.36-9.76 3.44 9.42.08.16c-1.17.4-2.42.63-3.72.63Zm1.53-16.45c.68-.03 1.28-.1 1.28-.1.6-.08.54-.96-.07-.93 0 0-1.81.14-2.98.14-1.1 0-2.95-.14-2.95-.14-.6-.03-.67.89-.07.92 0 0 .57.08 1.17.11l1.75 4.78-2.45 7.35-4.08-12.13c.68-.03 1.28-.1 1.28-.1.6-.08.54-.96-.07-.93 0 0-1.81.15-2.98.15l-.72-.02a11.18 11.18 0 0 1 16.91-2.1l-.15-.01c-1.1 0-1.88.95-1.88 1.98 0 .92.54 1.7 1.1 2.63.43.74.93 1.7.93 3.09 0 .95-.37 2.06-.86 3.61l-1.11 3.73-4.05-12.03Zm4.09 14.92 3.42-9.88c.64-1.6.85-2.87.85-4.01 0-.41-.03-.8-.08-1.15a11.19 11.19 0 0 1-4.2 15.05Z" fill="#22379C"/><path stroke="#22379C" stroke-width="4" d="M17.43 49.46h130.31"/><circle cx="34.03" cy="33.2" r="4.98" fill="#22379C"/><circle cx="48.14" cy="33.2" r="4.23" stroke="#22379C" stroke-width="1.5"/><circle cx="62.25" cy="33.2" r="4.98" fill="#22379C"/></svg>