<svg width="28" height="28" viewBox="0 0 168 168" fill="none" xmlns="http://www.w3.org/2000/svg"><g clip-path="url(#clip0_1002_1143)"><path d="M141.75 7.88H26.25A18.38 18.38 0 0 0 7.87 26.25v115.5a18.38 18.38 0 0 0 18.38 18.38h115.5a18.38 18.38 0 0 0 18.38-18.38V26.25a18.37 18.37 0 0 0-18.38-18.38Zm-115.5 5.25h115.5a13.13 13.13 0 0 1 13.13 13.12v7.88H13.13v-7.88a13.13 13.13 0 0 1 13.12-13.13Zm115.5 141.75H26.25a13.13 13.13 0 0 1-13.13-13.13V39.37h141.75v102.38a13.13 13.13 0 0 1-13.12 13.13ZM23.62 23.63a5.25 5.25 0 1 1 10.5 0 5.25 5.25 0 0 1-10.5 0Zm42 0a5.25 5.25 0 1 1 10.5 0 5.25 5.25 0 0 1-10.5 0Zm-21 0a5.25 5.25 0 1 1 10.5 0 5.25 5.25 0 0 1-10.5 0Z" fill="#22379C"/><g clip-path="url(#clip1_1002_1143)"><path d="M168.47 108.48a2.11 2.11 0 0 0-1.53-1.74l-25.93-7.2a2.1 2.1 0 0 0-1.13 0l-25.92 7.2c-.81.23-1.41.91-1.53 1.75-.15 1.08-3.58 26.63 5.22 39.34 8.79 12.7 21.75 15.95 22.3 16.08a2.13 2.13 0 0 0 1 0c.54-.13 13.5-3.39 22.3-16.08 8.8-12.71 5.37-38.26 5.22-39.35Zm-11.3 14.92-17.69 17.69a2.1 2.1 0 0 1-2.98 0l-10.93-10.94a2.11 2.11 0 0 1 0-2.98l2.17-2.17a2.1 2.1 0 0 1 2.98 0l7.27 7.27 14.03-14.02a2.1 2.1 0 0 1 2.98 0l2.17 2.17a2.1 2.1 0 0 1 0 2.98Z" fill="#22379C"/></g></g><path d="M61.49 51.07A36.66 36.66 0 0 0 24.86 87.7a36.67 36.67 0 0 0 36.63 36.63A36.67 36.67 0 0 0 98.1 87.69 36.66 36.66 0 0 0 61.5 51.07ZM28.56 87.7c0-4.77 1.02-9.3 2.85-13.4l15.7 43.04a32.94 32.94 0 0 1-18.55-29.64Zm32.93 32.94a32.9 32.9 0 0 1-9.3-1.35l9.88-28.7 10.12 27.72c.07.17.15.32.23.46a32.89 32.89 0 0 1-10.93 1.86Zm4.54-48.37c1.98-.1 3.77-.32 3.77-.32 1.77-.2 1.56-2.81-.21-2.71 0 0-5.34.42-8.78.42-3.24 0-8.68-.42-8.68-.42-1.77-.1-1.98 2.6-.2 2.71 0 0 1.68.21 3.45.32l5.13 14.05-7.2 21.61-12-35.66c1.99-.1 3.77-.32 3.77-.32 1.78-.2 1.57-2.81-.2-2.7 0 0-5.34.41-8.78.41-.62 0-1.35-.02-2.12-.04a32.89 32.89 0 0 1 49.75-6.2l-.43-.02c-3.23 0-5.53 2.81-5.53 5.84 0 2.71 1.56 5 3.23 7.72 1.26 2.2 2.72 5.01 2.72 9.08 0 2.82-1.08 6.1-2.5 10.65l-3.3 10.97-11.9-35.4Zm12.01 43.9L88.1 87.08c1.88-4.7 2.5-8.45 2.5-11.8 0-1.2-.07-2.33-.22-3.38a32.92 32.92 0 0 1-12.34 44.26Z" fill="#22379C"/><defs><clipPath id="clip0_1002_1143"><path fill="#fff" d="M0 0h168v168H0z"/></clipPath><clipPath id="clip1_1002_1143"><path fill="#fff" d="M108.2 99.46h64.5v64.5h-64.5z"/></clipPath></defs></svg>