<svg width="28" height="28" viewBox="0 0 28 28" fill="none" xmlns="http://www.w3.org/2000/svg">
<path fill-rule="evenodd" clip-rule="evenodd" d="M6.12495 10.9922C7.48408 10.9922 8.58588 9.89039 8.58588 8.53125C8.58588 7.17211 7.48408 6.07031 6.12495 6.07031C4.76581 6.07031 3.66401 7.17211 3.66401 8.53125C3.66401 9.89039 4.76581 10.9922 6.12495 10.9922ZM6.12495 12.0859C8.08815 12.0859 9.67963 10.4944 9.67963 8.53125C9.67963 6.56805 8.08815 4.97656 6.12495 4.97656C4.16175 4.97656 2.57026 6.56805 2.57026 8.53125C2.57026 10.4944 4.16175 12.0859 6.12495 12.0859ZM13.5624 18.4592L10.7384 22.7717C10.6578 22.8947 10.5208 22.969 10.3738 22.9695L2.88005 22.9935C2.53379 22.9946 2.32353 22.6121 2.51003 22.3204L12.9558 5.98021L13.5624 5.03125H14.6562H19.4687H20.5624C20.9334 5.03125 21.3017 5.0844 21.6562 5.18848C21.789 5.22748 21.9199 5.27363 22.0483 5.32681C22.5194 5.52194 22.9475 5.80795 23.308 6.1685C23.6686 6.52905 23.9546 6.95709 24.1497 7.42817C24.3448 7.89926 24.4453 8.40416 24.4453 8.91406C24.4453 9.42396 24.3448 9.92887 24.1497 10.4C23.9546 10.871 23.6686 11.2991 23.308 11.6596C22.9475 12.0202 22.5194 12.3062 22.0483 12.5013C21.9199 12.5545 21.789 12.6006 21.6562 12.6396C21.3017 12.7437 20.9334 12.7969 20.5624 12.7969C20.9332 12.7969 21.2997 12.8374 21.6562 12.9159C22.5967 13.123 23.4671 13.5949 24.1587 14.2865C25.1125 15.2403 25.6484 16.5339 25.6484 17.8828C25.6484 19.2317 25.1125 20.5253 24.1587 21.4791C23.4671 22.1708 22.5967 22.6426 21.6562 22.8498C21.2997 22.9283 20.9332 22.9688 20.5624 22.9688H19.4687H13.9999C13.7583 22.9688 13.5624 22.7729 13.5624 22.5312V18.4592ZM20.5624 21.8749C21.6212 21.8749 22.6366 21.4543 23.3853 20.7057C24.134 19.957 24.5546 18.9416 24.5546 17.8828C24.5546 16.824 24.134 15.8086 23.3853 15.06C22.6366 14.3113 21.6212 13.8907 20.5624 13.8907V21.8749ZM20.5624 6.125V6.12486C20.9287 6.12486 21.2914 6.197 21.6298 6.33717C21.9682 6.47734 22.2757 6.6828 22.5347 6.9418C22.7937 7.2008 22.9992 7.50828 23.1393 7.84668C23.2795 8.18508 23.3517 8.54778 23.3517 8.91406C23.3517 9.28035 23.2795 9.64304 23.1393 9.98144C22.9992 10.3198 22.7937 10.6273 22.5347 10.8863C22.2757 11.1453 21.9682 11.3508 21.6298 11.491C21.2914 11.6311 20.9287 11.7033 20.5624 11.7033V6.125ZM13.5624 7.06192L4.07952 21.8959L10.0169 21.8769L13.5624 16.4628V11.6484V7.06192ZM14.6562 6.125H19.4687V21.875H14.6562V6.125Z" fill="#22379C"/>
</svg>
