<svg width="28" height="23" viewBox="0 0 28 23" fill="none" xmlns="http://www.w3.org/2000/svg">
<path d="M9.54297 0.746094H26.2227C26.8267 0.746094 27.3164 1.23578 27.3164 1.83984V20.3789C27.3164 20.983 26.8267 21.4727 26.2227 21.4727H7.71094" stroke="#22379C" stroke-width="1.09375" stroke-linecap="round"/>
<path d="M7.71094 0.746094H1.83203C1.22797 0.746094 0.738281 1.23578 0.738281 1.83984V20.3789C0.738281 20.983 1.22797 21.4727 1.83203 21.4727H5.90625" stroke="#22379C" stroke-width="1.09375" stroke-linecap="round"/>
<path d="M1.25781 4.875H17.4453C17.7473 4.875 17.9922 5.11984 17.9922 5.42188C17.9922 5.72391 17.7473 5.96875 17.4453 5.96875H1.25781V4.875Z" fill="#22379C"/>
<circle cx="3.5" cy="3.07031" r="0.546875" fill="#22379C"/>
<circle cx="8.14844" cy="3.07031" r="0.546875" fill="#22379C"/>
<circle cx="5.85156" cy="3.07031" r="0.546875" fill="#22379C"/>
<path d="M9.54537 9.55664C9.81976 9.55664 10.0734 9.63171 10.3064 9.78184C10.5394 9.9268 10.7257 10.1261 10.8655 10.3798C11.0053 10.6335 11.0752 10.9182 11.0752 11.234C11.0752 11.5498 11.0053 11.8371 10.8655 12.096C10.7257 12.3497 10.5394 12.5542 10.3064 12.7095C10.0734 12.8596 9.81976 12.9347 9.54537 12.9347H8.04661L8.10873 12.8104V14.5965C8.10873 14.7104 8.07249 14.8062 8.00002 14.8839C7.93271 14.9563 7.84211 14.9926 7.72822 14.9926C7.6195 14.9926 7.5289 14.9563 7.45642 14.8839C7.38912 14.8062 7.35547 14.7104 7.35547 14.5965V9.95269C7.35547 9.83879 7.3943 9.7456 7.47195 9.67312C7.54961 9.59547 7.6428 9.55664 7.75152 9.55664H9.54537ZM9.54537 12.1892C9.67998 12.1892 9.80164 12.1452 9.91036 12.0572C10.0243 11.9692 10.1149 11.8527 10.1822 11.7077C10.2546 11.5628 10.2909 11.4049 10.2909 11.234C10.2909 11.0632 10.2546 10.9079 10.1822 10.7681C10.1149 10.6283 10.0243 10.517 9.91036 10.4342C9.80164 10.3461 9.67998 10.3021 9.54537 10.3021H8.03108L8.10873 10.1857V12.2901L8.03884 12.1892H9.54537Z" fill="#22379C"/>
<path d="M12.4387 9.55664C12.5423 9.55664 12.6329 9.59547 12.7105 9.67312C12.7934 9.7456 12.8348 9.83879 12.8348 9.95269V14.5965C12.8296 14.7104 12.7856 14.8062 12.7028 14.8839C12.6251 14.9563 12.5319 14.9926 12.4232 14.9926C12.3041 14.9926 12.2058 14.9563 12.1281 14.8839C12.0556 14.8062 12.0194 14.7104 12.0194 14.5965V9.95269C12.0194 9.83879 12.0582 9.7456 12.1359 9.67312C12.2135 9.59547 12.3145 9.55664 12.4387 9.55664ZM15.941 9.55664C16.0653 9.55664 16.1636 9.59547 16.2361 9.67312C16.3086 9.7456 16.3448 9.83879 16.3448 9.95269V14.5965C16.3448 14.7104 16.306 14.8062 16.2284 14.8839C16.1559 14.9563 16.0575 14.9926 15.9333 14.9926C15.8245 14.9926 15.7314 14.9563 15.6537 14.8839C15.576 14.8062 15.5372 14.7104 15.5372 14.5965V9.95269C15.5372 9.83879 15.576 9.7456 15.6537 9.67312C15.7365 9.59547 15.8323 9.55664 15.941 9.55664ZM12.4077 11.8708H15.9488L15.941 12.6163H12.3999L12.4077 11.8708Z" fill="#22379C"/>
<path d="M19.7908 9.55664C20.0652 9.55664 20.3189 9.63171 20.5519 9.78184C20.7848 9.9268 20.9712 10.1261 21.111 10.3798C21.2508 10.6335 21.3207 10.9182 21.3207 11.234C21.3207 11.5498 21.2508 11.8371 21.111 12.096C20.9712 12.3497 20.7848 12.5542 20.5519 12.7095C20.3189 12.8596 20.0652 12.9347 19.7908 12.9347H18.2921L18.3542 12.8104V14.5965C18.3542 14.7104 18.318 14.8062 18.2455 14.8839C18.1782 14.9563 18.0876 14.9926 17.9737 14.9926C17.865 14.9926 17.7744 14.9563 17.7019 14.8839C17.6346 14.8062 17.6009 14.7104 17.6009 14.5965V9.95269C17.6009 9.83879 17.6398 9.7456 17.7174 9.67312C17.7951 9.59547 17.8883 9.55664 17.997 9.55664H19.7908ZM19.7908 12.1892C19.9254 12.1892 20.0471 12.1452 20.1558 12.0572C20.2697 11.9692 20.3603 11.8527 20.4276 11.7077C20.5001 11.5628 20.5363 11.4049 20.5363 11.234C20.5363 11.0632 20.5001 10.9079 20.4276 10.7681C20.3603 10.6283 20.2697 10.517 20.1558 10.4342C20.0471 10.3461 19.9254 10.3021 19.7908 10.3021H18.2765L18.3542 10.1857V12.2901L18.2843 12.1892H19.7908Z" fill="#22379C"/>
<path d="M22.9414 9.11328L25.4297 12.2305L22.9414 15.4297" stroke="#22379C" stroke-width="1.09375" stroke-linecap="round" stroke-linejoin="round"/>
<path d="M5.33203 9.11328L2.84375 12.2305L5.33203 15.4297" stroke="#22379C" stroke-width="1.09375" stroke-linecap="round" stroke-linejoin="round"/>
<path d="M19.25 5.42188C19.25 5.11984 19.4948 4.875 19.7969 4.875H26.7969V5.96875H19.7969C19.4948 5.96875 19.25 5.72391 19.25 5.42188Z" fill="#22379C"/>
</svg>
