<svg width="28" height="28" viewBox="0 0 28 28" fill="none" xmlns="http://www.w3.org/2000/svg">
<rect x="0.546875" y="0.546875" width="26.9062" height="23.1875" rx="1.14844" stroke="#22379C" stroke-width="1.09375"/>
<mask id="path-2-inside-1_766_31351" fill="white">
<rect x="1.85938" y="3.71875" width="24.2812" height="18.7031" rx="0.929688"/>
</mask>
<rect x="1.85938" y="3.71875" width="24.2812" height="18.7031" rx="0.929688" stroke="#22379C" stroke-width="2.1875" mask="url(#path-2-inside-1_766_31351)"/>
<rect x="2.29688" y="1.80469" width="1.42188" height="1.09375" rx="0.546875" fill="#22379C"/>
<rect x="4.70312" y="1.80469" width="1.42188" height="1.09375" rx="0.546875" fill="#22379C"/>
<rect x="7.10938" y="1.80469" width="1.42188" height="1.09375" rx="0.546875" fill="#22379C"/>
<rect x="21.9297" y="1.80469" width="3.77344" height="1.09375" rx="0.546875" fill="#22379C"/>
<path d="M11.8672 14.3281H10.3359V11.5938H11.8672H12.0373L12.1774 11.4972L14.4983 9.89844H16.7344V16.2422H14.5158L12.2029 14.4433L12.0548 14.3281H11.8672Z" stroke="#22379C" stroke-width="1.09375"/>
<path d="M16.7344 10.3359H20.5078C20.9911 10.3359 21.3828 10.7277 21.3828 11.2109C21.3828 11.6942 20.9911 12.0859 20.5078 12.0859H16.7344V10.3359Z" stroke="#22379C" stroke-width="1.09375"/>
<path d="M16.7344 14.0547H20.5078C20.9911 14.0547 21.3828 14.4464 21.3828 14.9297C21.3828 15.4129 20.9911 15.8047 20.5078 15.8047H16.7344V14.0547Z" stroke="#22379C" stroke-width="1.09375"/>
<path d="M10.7461 12.9609H9.95312C7.47647 12.9609 5.46875 14.9687 5.46875 17.4453V21.2187C5.46875 23.6954 7.47647 25.7031 9.95313 25.7031H23.0234" stroke="#22379C" stroke-width="1.09375"/>
<mask id="path-11-inside-2_766_31351" fill="white">
<path d="M20.8359 25.1562H23.2969C24.0822 25.1562 24.7188 25.7928 24.7188 26.5781C24.7188 27.3634 24.0822 28 23.2969 28H20.8359V25.1562Z"/>
</mask>
<path d="M20.8359 24.0625H23.2969C24.6862 24.0625 25.8125 25.1888 25.8125 26.5781H23.625C23.625 26.3969 23.4781 26.25 23.2969 26.25H20.8359V24.0625ZM25.8125 26.5781C25.8125 27.9675 24.6862 29.0938 23.2969 29.0938H20.8359V26.9062H23.2969C23.4781 26.9062 23.625 26.7593 23.625 26.5781H25.8125ZM20.8359 28V25.1562V28ZM23.2969 24.0625C24.6862 24.0625 25.8125 25.1888 25.8125 26.5781C25.8125 27.9675 24.6862 29.0938 23.2969 29.0938V26.9062C23.4781 26.9062 23.625 26.7593 23.625 26.5781C23.625 26.3969 23.4781 26.25 23.2969 26.25V24.0625Z" fill="#22379C" mask="url(#path-11-inside-2_766_31351)"/>
<path d="M0 27.4531C0 27.1511 0.244844 26.9062 0.546875 26.9062H20.8359V28H0.546875C0.244844 28 0 27.7552 0 27.4531Z" fill="#22379C"/>
</svg>
