<svg width="28" height="28" viewBox="0 0 28 28" fill="none" xmlns="http://www.w3.org/2000/svg">
<circle cx="20.7812" cy="23.4062" r="4.04688" stroke="#22379C" stroke-width="1.09375"/>
<rect x="20.3438" y="21.2734" width="0.875" height="4.26562" rx="0.4375" fill="#22379C"/>
<rect x="22.9141" y="22.9688" width="0.875" height="4.26562" rx="0.4375" transform="rotate(90 22.9141 22.9688)" fill="#22379C"/>
<path d="M23.5977 20.3711V1.12109C23.5977 0.939875 23.4507 0.792969 23.2695 0.792969H3.0625C2.88128 0.792969 2.73438 0.939875 2.73438 1.12109V23.0781C2.73438 23.2593 2.88128 23.4062 3.0625 23.4062H16.2969" stroke="#22379C" stroke-width="1.09375"/>
<rect x="5.90625" y="5.19531" width="14.7656" height="12.1406" rx="0.546875" stroke="#22379C" stroke-width="1.09375"/>
<circle cx="6.34375" cy="19.7969" r="0.546875" fill="#22379C"/>
<circle cx="8.3125" cy="19.7969" r="0.546875" fill="#22379C"/>
<circle cx="10.2812" cy="19.7969" r="0.546875" fill="#22379C"/>
<rect x="5.6875" y="2.57031" width="5.6875" height="0.820312" rx="0.410156" fill="#22379C"/>
<rect x="12.6875" y="2.57031" width="2.57031" height="0.820312" rx="0.410156" fill="#22379C"/>
<path d="M5.87891 12.168L8.21251 9.83437C8.29793 9.74894 8.43644 9.74894 8.52187 9.83437L12.1227 13.4352C12.2081 13.5206 12.3466 13.5206 12.432 13.4352L13.818 12.0492C13.9034 11.9638 14.0419 11.9638 14.1273 12.0492L19.1406 17.0625L19.3867 17.3086" stroke="#22379C" stroke-width="1.09375"/>
<circle cx="16.7344" cy="9.02344" r="0.929688" stroke="#22379C" stroke-width="1.09375"/>
</svg>
