<svg width="28" height="28" viewBox="0 0 160 160" fill="none" xmlns="http://www.w3.org/2000/svg"><path d="M57.23 51.09h45.54a2.5 2.5 0 0 0 2.48-2.77 25.32 25.32 0 0 0-16.17-21c3.05-2.58 5-6.44 5-10.74A14.1 14.1 0 0 0 80 2.5a14.1 14.1 0 0 0-14.08 14.08c0 4.3 1.95 8.16 5 10.74a25.32 25.32 0 0 0-16.17 21 2.5 2.5 0 0 0 2.48 2.77ZM39.07 32.25l-5.9 1.33a2.5 2.5 0 0 1-1.1-4.88l14.84-3.36a2.5 2.5 0 0 1 3.02 2.85l-2.25 13.59a2.5 2.5 0 0 1-4.93-.82l1.06-6.41A78.16 78.16 0 0 0 21.6 96.27a2.5 2.5 0 1 1-4.97.45 83.2 83.2 0 0 1 22.45-64.47Zm70.4-8.57a2.5 2.5 0 0 1 3.53-.32 83.2 83.2 0 0 1 29.7 61.47l3.23-5.12a2.5 2.5 0 0 1 4.23 2.67l-8.12 12.87a2.5 2.5 0 0 1-4.14.12l-8.02-11.2a2.5 2.5 0 1 1 4.06-2.9l3.79 5.28A78.16 78.16 0 0 0 109.8 27.2a2.5 2.5 0 0 1-.33-3.52ZM77.86 140.9c-6.5 0-13-.77-19.37-2.3l4.1 4.43a2.5 2.5 0 0 1-3.67 3.4L48.6 135.26a2.5 2.5 0 0 1 .95-4.03l12.9-4.85a2.5 2.5 0 0 1 1.76 4.68l-6.1 2.3a77.87 77.87 0 0 0 50.5-3.77 2.5 2.5 0 1 1 1.96 4.6 83.01 83.01 0 0 1-32.7 6.72Zm-41.01-7.18c3.05-2.58 5-6.44 5-10.74a14.1 14.1 0 0 0-14.08-14.08A14.1 14.1 0 0 0 13.69 123c0 4.3 1.94 8.16 5 10.74a25.32 25.32 0 0 0-16.18 21A2.5 2.5 0 0 0 5 157.5h45.53a2.5 2.5 0 0 0 2.49-2.77 25.32 25.32 0 0 0-16.17-21Zm120.64 21a25.32 25.32 0 0 0-16.17-21c3.05-2.58 5-6.44 5-10.74a14.1 14.1 0 0 0-14.09-14.08A14.1 14.1 0 0 0 118.16 123c0 4.3 1.94 8.16 5 10.74a25.32 25.32 0 0 0-16.18 21 2.5 2.5 0 0 0 2.49 2.77H155a2.5 2.5 0 0 0 2.49-2.77ZM79.68 63.36c-13.23 0-24 10.77-24 24s10.77 24 24 24 24-10.77 24-24-10.77-24-24-24Zm-21.58 24c0-3.13.67-6.1 1.87-8.78l10.3 28.2A21.58 21.58 0 0 1 58.1 87.36Zm21.58 21.58c-2.12 0-4.16-.31-6.1-.88l6.48-18.81 6.63 18.17.16.3a21.55 21.55 0 0 1-7.17 1.22Zm2.97-31.7c1.3-.07 2.47-.2 2.47-.2 1.17-.14 1.03-1.85-.13-1.78 0 0-3.5.27-5.76.27-2.11 0-5.68-.27-5.68-.27-1.16-.07-1.3 1.7-.14 1.78 0 0 1.1.13 2.27.2l3.36 9.21-4.72 14.17-7.86-23.38c1.3-.07 2.47-.2 2.47-.2 1.16-.14 1.03-1.85-.14-1.78 0 0-3.5.27-5.75.27-.4 0-.88 0-1.39-.02a21.55 21.55 0 0 1 32.6-4.06l-.28-.02c-2.12 0-3.62 1.85-3.62 3.83 0 1.78 1.02 3.28 2.12 5.06a11.36 11.36 0 0 1 1.78 5.95c0 1.85-.71 3.99-1.65 6.98l-2.15 7.19-7.8-23.2Zm7.88 28.77 6.59-19.06a20.34 20.34 0 0 0 1.64-7.72c0-.8-.05-1.54-.14-2.22a21.57 21.57 0 0 1-8.09 29Z" fill="#22379C"/></svg>