<svg width="24" height="24" viewBox="0 0 24 24" fill="none" xmlns="http://www.w3.org/2000/svg">
<path fill-rule="evenodd" clip-rule="evenodd" d="M2 5.5C2 4.67157 2.67157 4 3.5 4H16.5C17.3284 4 18 4.67157 18 5.5V10.601C18.2599 10.6541 18.5166 10.728 18.7676 10.8229C19.6605 11.1603 20.4332 11.7442 21 12.4999V11.5C21 11.2239 21.2239 11 21.5 11C21.7761 11 22 11.2239 22 11.5V13.5C22 13.7294 21.8439 13.9294 21.6213 13.9851L19.6213 14.4851C19.3534 14.552 19.0819 14.3892 19.0149 14.1213C18.948 13.8534 19.1108 13.5819 19.3787 13.5149L20.3418 13.2742C20.3306 13.2646 20.3197 13.2546 20.3092 13.2442C20.3032 13.2383 20.2973 13.2323 20.2916 13.2261L20.2889 13.2233C20.2727 13.2056 20.2573 13.1868 20.2431 13.1671C19.7864 12.5322 19.1508 12.0421 18.4123 11.763C17.5163 11.4244 16.5285 11.419 15.6289 11.7477C15.531 11.7835 15.4349 11.823 15.3407 11.866C15.268 11.9338 15.18 11.9758 15.0883 11.9922C14.4291 12.3514 13.8807 12.8914 13.5111 13.554C13.0445 14.3905 12.894 15.3668 13.087 16.305C13.28 17.2432 13.8037 18.0808 14.5625 18.6652C15.3214 19.2496 16.265 19.5419 17.2213 19.4889C18.1777 19.4359 19.0831 19.041 19.7727 18.3762C20.3411 17.8283 20.7316 17.1271 20.9006 16.3635C20.9059 16.3397 20.9126 16.3164 20.9206 16.2938L20.9219 16.2901C20.9235 16.2857 20.9251 16.2812 20.9268 16.2768C20.9281 16.2734 20.9295 16.27 20.9309 16.2665C21.0208 16.0456 21.2363 15.8912 21.4785 15.9135C21.7549 15.9391 21.9608 16.1846 21.9077 16.457C21.712 17.4606 21.2122 18.3846 20.4702 19.0998C19.6072 19.9318 18.4739 20.426 17.277 20.4924C16.08 20.5588 14.8991 20.1929 13.9493 19.4615C13.1345 18.834 12.5364 17.9733 12.2304 17H5H3.5C2.67157 17 2 16.3284 2 15.5V5.5ZM17 5.5V10.5C16.4192 10.5001 15.8382 10.6013 15.2839 10.8038C15.2178 10.828 15.1523 10.8535 15.0874 10.8803L13.5607 9.35355C12.9749 8.76777 12.0251 8.76777 11.4393 9.35355L4.79289 16H3.5C3.22386 16 3 15.7761 3 15.5V5.5C3 5.22386 3.22386 5 3.5 5H16.5C16.7761 5 17 5.22386 17 5.5ZM12.8536 10.0607L14.1706 11.3777C13.5396 11.8108 13.0116 12.3863 12.6334 13.0645C12.1332 13.9613 11.9233 14.9864 12.0251 16H6.20711L12.1464 10.0607C12.3417 9.8654 12.6583 9.8654 12.8536 10.0607ZM6.75 7C6.33579 7 6 7.33579 6 7.75C6 8.16421 6.33579 8.5 6.75 8.5C7.16421 8.5 7.5 8.16421 7.5 7.75C7.5 7.33579 7.16421 7 6.75 7ZM6.75 9.5C5.7835 9.5 5 8.7165 5 7.75C5 6.7835 5.7835 6 6.75 6C7.7165 6 8.5 6.7835 8.5 7.75C8.5 8.7165 7.7165 9.5 6.75 9.5Z" fill="#22379C"/>
</svg>
