<svg width="24" height="24" viewBox="0 0 24 24" fill="none" xmlns="http://www.w3.org/2000/svg">
<path fill-rule="evenodd" clip-rule="evenodd" d="M7.5 2C7.77614 2 8 2.22386 8 2.5V3.5H16V2.5C16 2.22386 16.2239 2 16.5 2C16.7761 2 17 2.22386 17 2.5V5.5C17 5.77614 16.7761 6 16.5 6C16.2239 6 16 5.77614 16 5.5V4.5H8V5.5C8 5.77614 7.77614 6 7.5 6C7.22386 6 7 5.77614 7 5.5V2.5C7 2.22386 7.22386 2 7.5 2ZM8.5 7.5C8.22386 7.5 8 7.72386 8 8V13.5C8 13.7761 8.22386 14 8.5 14H8.79289L12.9393 9.85355C13.5251 9.26777 14.4749 9.26777 15.0607 9.85355L16 10.7929V8C16 7.72386 15.7761 7.5 15.5 7.5H8.5ZM16 12.2071L14.3536 10.5607C14.1583 10.3654 13.8417 10.3654 13.6464 10.5607L10.2071 14H15.5C15.7761 14 16 13.7761 16 13.5V12.2071ZM7 8C7 7.17157 7.67157 6.5 8.5 6.5H15.5C16.3284 6.5 17 7.17157 17 8V13.5C17 14.3284 16.3284 15 15.5 15H8.5C7.67157 15 7 14.3284 7 13.5V8ZM9 9.5C9 8.67157 9.67157 8 10.5 8C11.3284 8 12 8.67157 12 9.5C12 10.3284 11.3284 11 10.5 11C9.67157 11 9 10.3284 9 9.5ZM10 9.5C10 9.77614 10.2239 10 10.5 10C10.7761 10 11 9.77614 11 9.5C11 9.22386 10.7761 9 10.5 9C10.2239 9 10 9.22386 10 9.5ZM3.5 17.5C3.22386 17.5 3 17.7239 3 18V20.5C3 20.7761 3.22386 21 3.5 21H20.5C20.7761 21 21 20.7761 21 20.5V18C21 17.7239 20.7761 17.5 20.5 17.5H3.5ZM2 18C2 17.1716 2.67157 16.5 3.5 16.5H20.5C21.3284 16.5 22 17.1716 22 18V20.5C22 21.3284 21.3284 22 20.5 22H3.5C2.67157 22 2 21.3284 2 20.5V18Z" fill="#22379C"/>
</svg>
