<svg xmlns="http://www.w3.org/2000/svg" width="28" height="28" fill="none" ><g stroke="#22379c" stroke-width="1.094"><path d="M6.152 8.477H3.773c-1.752 0-3.172 1.42-3.172 3.172h0c0 1.752 1.42 3.172 3.172 3.172h6.098c1.752 0 3.172-1.42 3.172-3.172h0v-.191a2.98 2.98 0 0 0-2.98-2.98h0m7.164 3.17h0a2.98 2.98 0 0 0 2.98-2.98v-.191c0-1.752-1.42-3.172-3.172-3.172h-6.098c-1.752 0-3.172 1.42-3.172 3.172h0v.191a2.98 2.98 0 0 0 2.98 2.98h0m7.329-3.171h0c-1.737 0-3.145 1.408-3.145 3.145v.766c0 1.344 1.09 2.434 2.434 2.434h0m4.895-6.344h1.941c1.752 0 3.172 1.42 3.172 3.172h0v1.313a1.86 1.86 0 0 1-1.859 1.859h0" stroke-linecap="round"/><circle cx="21.602" cy="17.5" r="4.648"/></g><rect x="19.305" y="16.953" width="4.484" height="1.094" rx=".547" fill="#22379c"/></svg>