<svg xmlns="http://www.w3.org/2000/svg" width="28" height="28" fill="none" ><style><![CDATA[.B{stroke:#22379c}.C{stroke-width:1.094}.D{stroke-linejoin:round}.E{stroke-linecap:round}]]></style><g clip-path="url(#A)" class="B C"><circle cx="20.945" cy="21.219" r="5.25"/><g clip-path="url(#B)" class="D E"><path d="M20.435 21.474a1.27 1.27 0 0 0 .41.355c.16.087.338.14.521.153s.366-.013.537-.077a1.28 1.28 0 0 0 .457-.294l.766-.766a1.28 1.28 0 0 0 .358-.898c-.003-.335-.137-.655-.374-.891a1.28 1.28 0 0 0-1.789-.016l-.439.436m.574 1.488a1.26 1.26 0 0 0-.41-.355c-.161-.087-.338-.14-.521-.153s-.366.013-.537.077a1.27 1.27 0 0 0-.456.294l-.766.766a1.28 1.28 0 0 0-.358.898c.003.335.137.655.374.891a1.28 1.28 0 0 0 1.789.016l.436-.436"/></g><path d="M24.172 16.981V1.422c0-.242-.196-.438-.437-.438H1.75c-.242 0-.437.196-.437.437v21.984c0 .242.196.438.438.438h14.328"/><g class="D E"><path d="M6.69 11.657a6.81 6.81 0 0 1 6.809 6.809M6.69 6.362c3.21 0 6.626.938 8.896 3.208s3.208 3.653 3.208 6.863"/></g><path d="M7.237 18.047c.302 0 .547-.245.547-.547s-.245-.547-.547-.547-.547.245-.547.547.245.547.547.547z" class="D"/></g><defs><clipPath id="A"><path fill="#fff" d="M0 0h28v28H0z"/></clipPath><clipPath id="B"><path fill="#fff" transform="translate(17.883 18.156)" d="M0 0h6.125v6.125H0z"/></clipPath></defs></svg>