<svg width="28" height="28" viewBox="0 0 166 166" fill="none" xmlns="http://www.w3.org/2000/svg"><path d="m24.2 32.62 10.7 120.05L82.93 166l48.16-13.35L141.8 32.62H24.2Zm21.88 24.54h36.87v14.73H47.42l-1.34-14.73ZM83 101.69h18.08l-1.71 19.09L83 125.2v-23.52Zm0-14.73V71.9h20.7l-1.34 15.07H83Zm-34.27 0h34.22v14.73h-32.9l-1.32-14.73Zm73.19 58.05L83 155.79v-15.27l-.07.02-30.16-8.38-2.06-23.12H65.5l1.05 11.75 16.4 4.43v15.3H83l30.13-8.36 6.7-75H83V42.44h48.07L121.92 145Z" fill="#22379C"/><path d="m119.83 57.16-6.7 75L83 140.51V125.2l16.37-4.42 1.7-19.1H83V86.97h19.36l1.33-15.07H83V57.16h36.83ZM83 86.96h-.05v14.73H83V86.95ZM83 57.16h-.05v14.73H83V57.16ZM83 125.2v15.31l-.05.02V125.2l.05-.01ZM51.88 0H69.7v7.46H59.33v7.45h10.38v7.46H51.88V0ZM73.27 0h17.84v6.48H80.73v1.3h10.38V22.7H73.27v-6.81h10.38v-1.3H73.27V0ZM94.67 0h17.83v6.48h-10.37v1.3h10.37V22.7H94.67v-6.81h10.38v-1.3H94.67V0Z" fill="#22379C"/><path d="m119.83 57.16-6.7 75L83 140.51l-.05.02V125.2l.05-.01 16.37-4.42 1.7-19.1H82.96V86.97h19.4l1.34-15.07H82.95V57.16h36.88Z" fill="#22379C"/></svg>