<svg xmlns="http://www.w3.org/2000/svg" width="20" height="24" fill="none" ><g stroke="#22379c" stroke-width=".938" stroke-linejoin="round"><path d="M14.219.773l4.641 4.641v17.719H1.141V.773h13.078z"/><path d="M13.656 1.008v4.641h4.899" stroke-linecap="round"/></g><path d="M6.494 14.265h-.06a.22.22 0 0 1-.053-.008c-.365-.075-.647-.18-.848-.315a1.08 1.08 0 0 1-.412-.48c-.075-.19-.113-.402-.113-.638l.015-.765a1.04 1.04 0 0 0-.09-.465c-.055-.12-.133-.208-.232-.263-.1-.06-.215-.092-.345-.098h-.03a.35.35 0 0 1-.248-.098c-.065-.065-.098-.147-.098-.247s.033-.183.098-.248a.35.35 0 0 1 .248-.098h.045c.125-.01.235-.043.33-.098a.59.59 0 0 0 .232-.27c.06-.12.09-.272.09-.457l-.015-.765c0-.175.02-.338.06-.487a1.13 1.13 0 0 1 .218-.413 1.3 1.3 0 0 1 .412-.315c.175-.09.407-.162.683-.217.14-.025.245 0 .315.075s.105.155.105.255c0 .065-.025.125-.075.18a.41.41 0 0 1-.18.12c-.2.07-.35.148-.45.232a.59.59 0 0 0-.202.293 1.56 1.56 0 0 0-.045.405l.015.78c0 .29-.072.517-.218.682-.145.16-.343.28-.593.36v-.03a1.3 1.3 0 0 1 .593.367c.145.164.218.385.218.675l-.015.78c0 .155.015.287.045.398a.59.59 0 0 0 .202.285c.1.085.25.168.45.248.17.065.255.17.255.315 0 .085-.03.16-.09.225s-.133.098-.218.098zm3.86-1.973c0 .13-.043.24-.127.33s-.193.127-.323.127-.238-.043-.322-.127c-.085-.09-.128-.2-.128-.33V9.195c0-.13.043-.237.128-.322a.44.44 0 0 1 .322-.135c.13 0 .238.045.323.135s.127.193.127.322v3.097zM9.896 8.25c-.17 0-.29-.027-.36-.082s-.105-.152-.105-.292v-.143c0-.145.037-.243.113-.293s.2-.082.36-.082c.175 0 .298.027.368.082s.105.152.105.293v.143c0 .145-.037.245-.112.3-.075.05-.197.075-.368.075zm3.402 6.007c-.095 0-.168-.043-.217-.128a.42.42 0 0 1-.075-.217c0-.07.023-.133.068-.187a.47.47 0 0 1 .188-.113c.205-.07.355-.147.45-.232.1-.08.165-.177.195-.292s.053-.25.053-.405l-.015-.78c0-.295.072-.523.218-.682a1.38 1.38 0 0 1 .592-.36v.03a1.44 1.44 0 0 1-.592-.368c-.15-.16-.218-.385-.218-.675l.015-.78c0-.16-.018-.293-.053-.398-.03-.11-.095-.207-.195-.292s-.25-.165-.45-.24c-.17-.065-.255-.17-.255-.315 0-.085.03-.16.09-.225s.133-.097.218-.097h.053c.02 0 .04.002.06.007.365.07.645.173.84.308a1.06 1.06 0 0 1 .413.487c.08.19.12.402.12.638l-.015.765c0 .19.028.345.083.465s.14.21.24.27c.105.055.22.085.345.09h.03c.095 0 .175.033.24.098.07.065.105.148.105.248s-.035.182-.105.248c-.065.065-.145.098-.24.098h-.045a.7.7 0 0 0-.338.097c-.095.06-.173.15-.232.27a1.07 1.07 0 0 0-.083.457l.015.765c0 .175-.02.337-.06.487s-.112.293-.217.412c-.1.12-.24.225-.42.315s-.4.162-.675.217c-.02.005-.04.008-.06.008s-.038.008-.068.008zM1.469 15.984h17.063v.938H1.469zm2.417 6.151c-.214 0-.413-.043-.596-.129s-.334-.21-.45-.371c-.045-.067-.067-.133-.067-.197 0-.094.036-.172.107-.236s.148-.096.219-.096c.056 0 .111.017.163.051s.107.073.152.118a.81.81 0 0 0 .219.146c.071.03.159.039.253.039a.62.62 0 0 0 .315-.084.68.68 0 0 0 .236-.225c.06-.094.09-.195.09-.304v-2.363a.31.31 0 0 1 .107-.242.35.35 0 0 1 .248-.101c.105 0 .189.034.253.101a.33.33 0 0 1 .096.242v2.363a1.19 1.19 0 0 1-.18.636 1.39 1.39 0 0 1-.484.472 1.31 1.31 0 0 1-.681.18zm3.452 0c-.263 0-.499-.032-.709-.096s-.411-.184-.602-.349a.43.43 0 0 1-.112-.141.35.35 0 0 1-.039-.158c0-.086.03-.161.09-.225a.32.32 0 0 1 .236-.101c.071 0 .135.023.191.068a1.81 1.81 0 0 0 .422.264 1.35 1.35 0 0 0 .523.09c.139 0 .266-.021.382-.062a.8.8 0 0 0 .281-.174c.071-.075.107-.159.107-.253 0-.113-.034-.208-.101-.287a.75.75 0 0 0-.309-.197c-.138-.053-.315-.099-.529-.129a2.47 2.47 0 0 1-.534-.135c-.154-.064-.283-.142-.388-.236s-.178-.21-.231-.337a1.17 1.17 0 0 1-.079-.439c0-.244.062-.452.186-.624a1.2 1.2 0 0 1 .512-.394 1.81 1.81 0 0 1 .709-.135 1.96 1.96 0 0 1 .675.113c.21.071.381.163.512.276.109.086.163.186.163.298a.32.32 0 0 1-.096.225.3.3 0 0 1-.225.101c-.056 0-.107-.017-.152-.051a.95.95 0 0 0-.242-.146 1.81 1.81 0 0 0-.321-.118 1.1 1.1 0 0 0-.315-.051 1.2 1.2 0 0 0-.411.062c-.109.041-.191.098-.247.169a.39.39 0 0 0-.084.248.42.42 0 0 0 .096.281.73.73 0 0 0 .287.174 2.98 2.98 0 0 0 .444.112 4.4 4.4 0 0 1 .591.146c.169.056.315.129.428.219s.197.197.253.332.084.293.084.484c0 .244-.068.454-.203.63s-.313.311-.534.405a1.77 1.77 0 0 1-.709.141zm5.713-2.025c0 .281-.047.544-.141.788a2.03 2.03 0 0 1-.399.647 1.79 1.79 0 0 1-.607.433 1.85 1.85 0 0 1-.765.158c-.277 0-.533-.053-.765-.158s-.435-.249-.607-.433-.3-.403-.394-.647a2.17 2.17 0 0 1-.141-.788 2.16 2.16 0 0 1 .141-.787 2 2 0 0 1 .394-.641 1.86 1.86 0 0 1 .607-.439c.232-.105.488-.157.765-.157s.533.052.765.157a1.78 1.78 0 0 1 .607.439 1.95 1.95 0 0 1 .399.641 2.17 2.17 0 0 1 .141.787zm-.731 0a1.5 1.5 0 0 0-.152-.681 1.24 1.24 0 0 0-.416-.489c-.176-.12-.381-.18-.613-.18s-.437.06-.613.18-.315.281-.416.484-.146.431-.146.686a1.58 1.58 0 0 0 .146.686 1.19 1.19 0 0 0 .416.484c.176.12.381.18.613.18s.437-.06.613-.18.315-.281.416-.484a1.53 1.53 0 0 0 .152-.686zm4.364-1.969c.09 0 .163.03.219.09s.084.135.084.225v3.279c0 .098-.034.18-.101.247a.32.32 0 0 1-.242.096c-.049 0-.099-.008-.152-.023a.28.28 0 0 1-.113-.073l-2.211-2.807.146-.09v2.677c0 .09-.03.165-.09.225s-.131.09-.225.09a.28.28 0 0 1-.219-.09c-.056-.06-.084-.135-.084-.225v-3.279c0-.098.032-.178.096-.242s.15-.101.247-.101a.44.44 0 0 1 .163.034c.056.019.098.049.124.09l2.143 2.734-.096.067v-2.61c0-.09.028-.165.084-.225s.131-.09.225-.09z" fill="#22379c"/></svg>