<svg width="28" height="28" viewBox="0 0 174 174" fill="none" xmlns="http://www.w3.org/2000/svg"><g clip-path="url(#clip0_1002_1113)" fill="#22379C"><path d="M123.28 87c0-6.18-1.55-12-4.28-17.1L89.1 50.7h-.5v.08h-.04c-.5-.04-1.03-.08-1.55-.08a36.06 36.06 0 0 0-16.48 3.97c4.6-14.76 12.31-22.84 18.91-27.24a35.76 35.76 0 0 1 8.75-4.3 26.1 26.1 0 0 1 3.56-.88H101.81v-.02l-.1-.98.04.5-.04-.5h-.04a11.68 11.68 0 0 0-.55.06c-.37.05-.92.12-1.62.24a61.44 61.44 0 0 0-23.28 9.25C63.44 39.31 50.72 55.25 50.72 84.9v.5h.07c-.04.52-.07 1.06-.07 1.6 0 5.93 1.43 11.53 3.95 16.49-14.75-4.6-22.84-12.31-27.24-18.9a35.75 35.75 0 0 1-4.3-8.75 26.12 26.12 0 0 1-.88-3.56V72.2h-.02l-.98.1.5-.04-.5.04v.07a10.63 10.63 0 0 0 .07.52 56.4 56.4 0 0 0 1.53 7.4 61.44 61.44 0 0 0 7.96 17.5c8.5 12.77 24.45 25.5 54.1 25.5h.5v-.09l.16.02c.47.03.96.06 1.44.06 5.92 0 11.52-1.44 16.45-3.97-4.6 14.76-12.3 22.85-18.9 27.25a35.68 35.68 0 0 1-8.74 4.29 25.93 25.93 0 0 1-3.38.86l-.13.02h-.05l-.05.01v.01l.1.99-.02-.13.02.13h.04l.1-.02a21.78 21.78 0 0 0 2.07-.28 61.42 61.42 0 0 0 23.28-9.25c12.76-8.52 25.47-24.46 25.47-54.1v-.5h-.07l.01-.13c.03-.48.06-.98.06-1.47Zm28.97 14.73-.5.06 1-.1-.5.04ZM34.8.5h104.4a34.4 34.4 0 0 1 34.3 34.3v104.4a34.4 34.4 0 0 1-34.3 34.3H34.8A34.4 34.4 0 0 1 .5 139.2V34.8A34.4 34.4 0 0 1 34.8.5Z" stroke="#22379C"/><path d="M87 67.51A19.51 19.51 0 0 0 67.51 87a19.51 19.51 0 0 0 19.5 19.49 19.51 19.51 0 0 0 19.48-19.5A19.5 19.5 0 0 0 87 67.52ZM69.48 87c0-2.54.54-4.95 1.52-7.13l8.35 22.9A17.53 17.53 0 0 1 69.48 87ZM87 104.52a17.5 17.5 0 0 1-4.95-.71l5.26-15.28 5.38 14.76.13.24c-1.82.64-3.78 1-5.82 1Zm2.42-25.74c1.05-.05 2-.16 2-.16.94-.11.83-1.5-.11-1.45 0 0-2.84.23-4.67.23-1.72 0-4.62-.23-4.62-.23-.94-.05-1.05 1.4-.1 1.45 0 0 .89.1 1.83.16l2.73 7.48-3.83 11.5-6.38-18.98c1.05-.05 2-.16 2-.16.94-.11.83-1.5-.11-1.44 0 0-2.84.22-4.67.22l-1.13-.02a17.5 17.5 0 0 1 26.47-3.3l-.22-.02c-1.72 0-2.95 1.5-2.95 3.11 0 1.45.84 2.67 1.72 4.11a9.23 9.23 0 0 1 1.45 4.84c0 1.5-.58 3.23-1.33 5.66l-1.75 5.84-6.33-18.84Zm6.39 23.36 5.35-15.47c1-2.5 1.33-4.5 1.33-6.27 0-.65-.04-1.25-.11-1.8a17.52 17.52 0 0 1-6.57 23.55Z"/></g><defs><clipPath id="clip0_1002_1113"><path fill="#fff" d="M0 0h174v174H0z"/></clipPath></defs></svg>