<svg xmlns="http://www.w3.org/2000/svg" width="28" height="28" fill="none" ><circle cx="14" cy="14" r="12.578" stroke="#22379c" stroke-width="1.094"/><g clip-path="url(#A)" stroke="#22379c" stroke-width="1.094" stroke-linecap="round" stroke-linejoin="round"><path d="M11.813 17.646H9.625c-.479 0-.953-.094-1.395-.278s-.844-.452-1.183-.79c-.684-.684-1.068-1.611-1.068-2.578s.384-1.894 1.068-2.578 1.611-1.068 2.578-1.068h2.188m4.375 0h2.188c.479 0 .953.094 1.395.277s.844.452 1.183.79.607.741.79 1.183.277.916.277 1.395-.094.953-.277 1.395-.452.844-.79 1.183-.741.607-1.183.79-.916.278-1.395.278h-2.187v-7.292z"/><path d="M11.083 14h5.833"/></g><defs><clipPath id="A"><path fill="#fff" transform="translate(5.25 5.25)" d="M0 0h17.5v17.5H0z"/></clipPath></defs></svg>