<svg xmlns="http://www.w3.org/2000/svg" width="28" height="28" fill="none" ><g stroke="#22379c" stroke-width="1.094"><path d="M19.787 16.215A6.07 6.07 0 0 1 14 20.453a6.07 6.07 0 0 1-5.673-3.91"/><path d="M21.786 16.406a.94.94 0 0 1-.076.246c-.029.064-.061.122-.107.206l-.076.14-.298.63c-.39.942-.962 1.798-1.683 2.519s-1.577 1.293-2.519 1.683-1.952.591-2.972.591-2.03-.201-2.972-.591-1.798-.962-2.519-1.683S7.27 18.57 6.88 17.628l-.298-.63-.076-.14-.107-.206a.94.94 0 0 1-.076-.246h7.731 7.731z"/><path d="M9.352 21.438l-.82 1.777 3.172 1.34.793-1.832m6.124-1.285l.82 1.777-3.172 1.34-.793-1.832m-9.788-6.344l-1.559.574 1.285 3.035 1.805-.711m15.312-2.843l1.559.574-1.285 3.035L21 19.332" stroke-linecap="round" stroke-linejoin="round"/></g><mask id="A" fill="#fff"><path fill-rule="evenodd" d="M22.658 16.953a3.28 3.28 0 0 0 3.231-3.277 3.28 3.28 0 0 0-3.277-3.277l-.215.007a3.71 3.71 0 0 0-3.677-3.227 3.73 3.73 0 0 0-.675.061 5.55 5.55 0 0 0-10.594.322 4.76 4.76 0 0 0-.603-.038c-2.604 0-4.714 2.111-4.714 4.714s2.111 4.714 4.714 4.714h.03 15.695.04.04.007 0z"/></mask><path d="M22.658 16.953l-.015-1.094-1.079.015v1.079h1.094zm-.261-6.547l-1.085.141.132 1.017 1.023-.066-.071-1.091zm-4.352-3.165l-1.034.356.306.89.925-.17-.198-1.076zm-10.594.322l-.139 1.085.94.12.253-.913-1.054-.292zm-.573 9.39v-1.094H6.87l.007 1.094zm15.695 0l.013-1.094h-.013v1.094zm.079 0v-1.094h-.013l.013 1.094zm.007 0v1.094h1.094v-1.094h-1.094zm.015 1.094a4.37 4.37 0 0 0 4.309-4.37h-2.187c0 1.195-.961 2.167-2.152 2.183l.03 2.187zm4.309-4.37a4.37 4.37 0 0 0-4.371-4.371v2.188c1.206 0 2.183.977 2.183 2.183h2.188zm-4.371-4.371l-.285.009.141 2.183.144-.005V9.305zm.87.96c-.306-2.358-2.32-4.18-4.762-4.18v2.188c1.328 0 2.426.991 2.593 2.273l2.169-.281zm-4.762-4.18c-.297 0-.589.027-.872.079l.395 2.151c.154-.028.313-.043.477-.043V6.086zm.359.799c-.897-2.605-3.369-4.478-6.281-4.478v2.188c1.95 0 3.611 1.254 4.213 3.003l2.068-.712zm-6.281-4.478c-3.054 0-5.624 2.06-6.401 4.864l2.108.584c.522-1.881 2.248-3.261 4.293-3.261V2.406zM7.589 6.478c-.243-.031-.491-.047-.742-.047v2.188c.158 0 .313.01.465.029l.277-2.17zm-.742-.047a5.81 5.81 0 0 0-5.808 5.808h2.188a3.62 3.62 0 0 1 3.621-3.621V6.431zm-5.808 5.808a5.81 5.81 0 0 0 5.808 5.808v-2.188a3.62 3.62 0 0 1-3.621-3.621H1.039zm5.808 5.808h.037l-.014-2.187h-.023v2.188zm15.725-2.188H6.877v2.188h15.695v-2.188zm-.013 2.188h.052V15.86c-.009 0-.018 0-.027 0l-.026 2.187zm.052 0h.052l-.026-2.187h-.027v2.188zm.046-2.188h-.007v2.188h.007v-2.188zm-1.094 1.094h0 2.188 0-2.187z" fill="#22379c" mask="url(#A)"/><path d="M13.236 6.211a3.08 3.08 0 0 0-.769-.014 3.06 3.06 0 0 0-1.335.474c-.402.26-.737.611-.979 1.024-.129.221-.23.456-.3.7a3.03 3.03 0 0 1 .3-.7c.242-.413.577-.764.979-1.024a3.06 3.06 0 0 1 1.335-.474c.257-.028.515-.023.769.014zm-7.372 4.234h0l-.085.056a2.11 2.11 0 0 0-.576.6c-.15.236-.254.499-.303.775l-.016.105.016-.105a2.13 2.13 0 0 1 .303-.775 2.14 2.14 0 0 1 .576-.6l.085-.056zm0 0l-.085.056.085-.056zm-1.069 1.731zm1.211-1.893z" stroke="#22379c" stroke-width="1.094"/><path d="M10.765 10.765l-1.417 3.334a.42.42 0 0 1-.144.197c-.065.048-.129.066-.203.066-.118 0-.206-.033-.263-.099s-.085-.146-.085-.243c0-.039.007-.081.02-.125l1.634-3.924a.43.43 0 0 1 .157-.203.35.35 0 0 1 .236-.059.36.36 0 0 1 .217.072c.066.048.12.107.151.19l1.614 3.846a.44.44 0 0 1 .033.157c0 .118-.039.212-.118.282s-.158.105-.249.105a.36.36 0 0 1-.217-.072c-.066-.048-.109-.114-.144-.197l-1.411-3.288.19-.039zm-1.214 2.533l.361-.755h1.772l.125.755H9.551zm5.615-3.564a1.13 1.13 0 0 1 .637.197 1.46 1.46 0 0 1 .486.532c.122.223.184.473.184.748s-.061.518-.184.742a1.52 1.52 0 0 1-.486.538 1.13 1.13 0 0 1-.637.197h-1.207l.066-.118v1.358a.42.42 0 0 1-.105.289.36.36 0 0 1-.276.112c-.109 0-.199-.037-.269-.112a.42.42 0 0 1-.105-.289v-3.793c0-.114.037-.208.111-.282s.175-.118.289-.118h1.496zm0 2.205c.083 0 .164-.035.243-.105a.84.84 0 0 0 .197-.269.83.83 0 0 0 .079-.354.81.81 0 0 0-.079-.354.78.78 0 0 0-.197-.263c-.079-.066-.16-.105-.243-.105h-1.221l.079-.118v1.673l-.072-.105h1.214zm2.878 1.989a.38.38 0 0 1-.125.289.42.42 0 0 1-.289.112c-.123 0-.221-.037-.295-.112a.4.4 0 0 1-.112-.289v-3.793a.37.37 0 0 1 .118-.282.41.41 0 0 1 .302-.118c.105 0 .197.039.276.118s.125.168.125.282v3.793z" fill="#22379c"/></svg>