<svg width="28" height="28" viewBox="0 0 28 28" fill="none" xmlns="http://www.w3.org/2000/svg">
<path d="M10.1172 16.9531H21.1641C21.6473 16.9531 22.0391 17.3449 22.0391 17.8281V26.4414C22.0391 26.9247 21.6473 27.3164 21.1641 27.3164H7.08203C6.59878 27.3164 6.20703 26.9247 6.20703 26.4414V19.3867" stroke="#22379C" stroke-width="1.09375" stroke-linecap="round"/>
<path d="M11.5391 17.4453H12.7422V20.8359C12.7422 21.1682 12.4729 21.4375 12.1406 21.4375C11.8084 21.4375 11.5391 21.1682 11.5391 20.8359V17.4453Z" fill="#22379C"/>
<path d="M12.7422 26.7969L11.5391 26.7969L11.5391 23.0781C11.5391 22.7459 11.8084 22.4766 12.1406 22.4766C12.4729 22.4766 12.7422 22.7459 12.7422 23.0781L12.7422 26.7969Z" fill="#22379C"/>
<path d="M16.6797 26.7969L15.4766 26.7969L15.4766 17.4453L16.6797 17.4453L16.6797 26.7969Z" fill="#22379C"/>
<rect x="0.744466" y="18.3228" width="17.1509" height="3.06252" rx="0.65625" transform="rotate(-29.2786 0.744466 18.3228)" stroke="#22379C" stroke-width="1.09375"/>
<path d="M5.54985 14.1802C5.26641 13.6812 5.44114 13.0469 5.94011 12.7635L8.27013 11.44C8.76911 11.1565 9.40338 11.3312 9.68682 11.8302L11.8236 15.592L7.68665 17.9419L5.54985 14.1802Z" stroke="#22379C" stroke-width="1.09375"/>
<path d="M24.3769 11.9843L23.9511 11.6411L24.3769 11.9843L25.0469 11.1528L25.7168 11.9843C25.8263 12.1201 25.9698 12.2244 26.1328 12.2865L27.1306 12.6667L26.5468 13.5608C26.4515 13.7069 26.3967 13.8756 26.388 14.0498L26.3347 15.1162L25.3039 14.8374C25.1356 14.7918 24.9582 14.7918 24.7898 14.8374L23.7591 15.1162L23.7058 14.0498C23.6971 13.8756 23.6422 13.7069 23.5469 13.5608L23.089 13.8598L23.5469 13.5608L22.9632 12.6667L23.961 12.2865C24.1239 12.2244 24.2675 12.1201 24.3769 11.9843ZM26.4657 15.1517L26.4655 15.1516L26.4657 15.1517ZM23.6281 15.1517C23.6281 15.1517 23.6282 15.1517 23.6282 15.1516L23.6281 15.1517Z" stroke="#22379C" stroke-width="1.09375"/>
<path d="M16.3925 2.35927L15.9667 2.01614L16.3925 2.35927L17.0625 1.52784L17.7325 2.35927C17.8419 2.49507 17.9854 2.59937 18.1484 2.66147L19.1462 3.04172L18.5625 3.93582C18.4671 4.08186 18.4123 4.25061 18.4036 4.42479L18.3503 5.49123L17.3196 5.21239C17.1512 5.16684 16.9738 5.16684 16.8054 5.21239L15.7747 5.49123L15.7214 4.42479C15.7127 4.25061 15.6579 4.08186 15.5625 3.93582L15.1046 4.23478L15.5625 3.93582L14.9788 3.04172L15.9766 2.66147C16.1396 2.59937 16.2831 2.49507 16.3925 2.35927ZM18.4813 5.52668L18.4811 5.52664L18.4813 5.52668ZM15.6437 5.52668C15.6437 5.52667 15.6438 5.52665 15.6438 5.52664L15.6437 5.52668Z" stroke="#22379C" stroke-width="1.09375"/>
<circle cx="23.625" cy="2.29688" r="1.53125" stroke="#22379C" stroke-width="1.09375"/>
<path d="M20.3438 7.19141C20.6536 8.78646 20.7922 12.5562 18.8672 14.875" stroke="#22379C" stroke-width="1.09375" stroke-linecap="round"/>
<path d="M22.9688 9.21484C23.1966 7.86589 24.4289 5.02031 27.5352 4.42969" stroke="#22379C" stroke-width="1.09375" stroke-linecap="round"/>
<path d="M6.37139 12.2228C5.46904 11.5392 3.30342 10.4455 1.85967 11.5392C0.415919 12.633 1.25811 14.1095 1.85967 14.7111C2.42478 15.1942 3.95969 15.9416 5.57844 15.0666" stroke="#22379C" stroke-width="1.09375" stroke-linecap="round"/>
<path d="M9.40625 6.86279C11.0013 6.58935 13.6609 7.19638 11.5391 11.812" stroke="#22379C" stroke-width="1.09375" stroke-linecap="round"/>
<path d="M8.20354 7.73828C7.6749 8.59505 6.7762 10.5547 7.41057 11.5391" stroke="#22379C" stroke-width="1.09375" stroke-linecap="round"/>
<path d="M10.1443 9.16016C9.84356 9.60677 9.27481 10.7023 9.40606 11.5117" stroke="#22379C" stroke-width="1.09375" stroke-linecap="round"/>
<path d="M5.30469 13.5899C4.73958 13.3347 3.47266 12.879 2.92578 13.0977" stroke="#22379C" stroke-width="1.09375" stroke-linecap="round"/>
</svg>
