<svg width="28" height="28" viewBox="0 0 164 164" fill="none" xmlns="http://www.w3.org/2000/svg"><path fill-rule="evenodd" clip-rule="evenodd" d="M117.73 50.78h20.58c8.33 0 15.1 6.77 15.1 15.1v41.85a15.1 15.1 0 0 1-15.1 15.1H66.27a15.1 15.1 0 0 1-15.1-15.1V15.1A15.1 15.1 0 0 1 66.27 0h21.27c8.33 0 15.1 6.74 15.1 15.1v20.58c0 8.33 6.76 15.1 15.09 15.1Zm-17.67 15.48c0-1.22-.47-2.39-1.33-3.25a4.52 4.52 0 0 0-7.75 3.25v22.96c0 1.21-.48 2.38-1.33 3.24a4.51 4.51 0 0 1-6.42 0 4.62 4.62 0 0 1-1.33-3.24v-1.53c0-1.22-.48-2.39-1.33-3.25a4.52 4.52 0 0 0-7.75 3.25v1.53c0 3.65 1.43 7.15 3.99 9.74a13.55 13.55 0 0 0 19.26 0 13.85 13.85 0 0 0 4-9.74V66.26Zm4.55 8.03a12.76 12.76 0 0 1 3.66-8.93 12.46 12.46 0 0 1 8.83-3.7h10.21c1.2 0 2.36.49 3.22 1.35a4.62 4.62 0 0 1 0 6.5c-.86.85-2.01 1.34-3.22 1.34H117.1c-.9 0-1.77.36-2.41 1a3.46 3.46 0 0 0 2.4 5.89h2.28c3.3 0 6.49 1.33 8.83 3.7a12.7 12.7 0 0 1 0 17.85 12.42 12.42 0 0 1-8.83 3.7h-10.22c-1.2 0-2.36-.48-3.21-1.34a4.62 4.62 0 0 1 3.2-7.84h10.23c.9 0 1.77-.36 2.4-1.01a3.46 3.46 0 0 0-2.4-5.88h-2.27c-3.32 0-6.5-1.33-8.83-3.7a12.7 12.7 0 0 1-3.66-8.93Z" fill="#22379C"/><path d="M21.27 128.32V41.75a15.07 15.07 0 0 0-10.98 14.52v92.63c0 8.33 6.78 15.1 15.1 15.1h72.05c6.9 0 12.72-4.65 14.52-10.98H45.98a24.74 24.74 0 0 1-24.71-24.7Z" fill="#22379C"/><path d="M41.85 107.73V21.16a15.07 15.07 0 0 0-10.97 14.52v92.64c0 8.32 6.77 15.1 15.1 15.1h72.04c6.9 0 12.73-4.65 14.52-10.98H66.56a24.73 24.73 0 0 1-24.7-24.7ZM112.54 35.68a5.5 5.5 0 0 0 5.48 5.5h20.59c4.67 0 9.05 1.3 12.78 3.56a29.6 29.6 0 0 0-6.37-9.44L118.41 8.68a29.6 29.6 0 0 0-9.44-6.36 24.56 24.56 0 0 1 3.57 12.77v20.6Z" fill="#22379C"/></svg>