<svg width="28" height="28" viewBox="0 0 172 172" fill="none" xmlns="http://www.w3.org/2000/svg"><path d="M42.97 53.75c-7.4 0-13.44 6.03-13.44 13.43v14.38c-16.82 6.15-12.75 31.04 5.38 31.31h16.12c18.13-.27 22.2-25.17 5.38-31.3V67.17c0-7.4-6.03-13.43-13.44-13.43Zm-8.06 13.43c.28-10.63 15.84-10.62 16.12 0v13.44H34.91V67.18Zm26.87 29.57c0 5.93-4.82 10.75-10.75 10.75H34.91c-14.2-.45-14.21-21.05 0-21.5h16.12c5.93 0 10.75 4.82 10.75 10.75Z" fill="#22379C"/><path d="M45.66 91.37h-5.38c-3.53.06-3.53 5.32 0 5.38v5.37a2.69 2.69 0 1 0 5.38 0v-5.37c3.53-.06 3.53-5.32 0-5.38ZM21.47 29.56c-3.53.07-3.53 5.3 0 5.37 3.53-.06 3.53-5.3 0-5.37ZM42.97 29.56c-3.53.07-3.53 5.3 0 5.37 3.53-.06 3.53-5.3 0-5.37ZM32.22 29.56c-3.53.07-3.53 5.3 0 5.37 3.53-.06 3.53-5.3 0-5.37Z" fill="#22379C"/><path d="M21.47 131.68h57.57a2.69 2.69 0 1 0 0-5.37H21.47a10.76 10.76 0 0 1-10.75-10.75V45.68h129v22.63a2.69 2.69 0 1 0 5.38 0V34.93c0-8.89-7.24-16.12-16.13-16.12H21.47c-8.9 0-16.13 7.23-16.13 16.12v80.63c0 8.9 7.24 16.12 16.13 16.12ZM10.72 34.93c0-5.92 4.82-10.75 10.75-10.75h107.5c5.93 0 10.75 4.83 10.75 10.75v5.38h-129v-5.38Z" fill="#22379C"/><path d="M112.84 88.68c-14.2.45-14.2 21.06 0 21.5 14.21-.45 14.2-21.05 0-21.5Zm0 16.13c-7.08-.19-7.08-10.56 0-10.75 7.1.19 7.1 10.56 0 10.75ZM110.16 123.62c-10.63.28-10.63 15.85 0 16.13 10.63-.28 10.63-15.85 0-16.13Zm0 10.75c-3.53-.06-3.53-5.31 0-5.37 3.53.06 3.53 5.31 0 5.37ZM123.6 120.93c.27 10.64 15.84 10.63 16.12 0-.28-10.63-15.85-10.63-16.13 0Zm5.37 0c.06-3.53 5.31-3.53 5.38 0-.07 3.54-5.32 3.54-5.38 0Z" fill="#22379C"/><path d="M124.57 67.16c-57.72 1.31-58.64 83.5-.97 86.03 32 .54 53.52-35.71 37.79-63.52-1.13-2.27-3.75-.97-5.54-.99-3.81.12-6.8-2.1-9.2-4.9-2.87-9.42-12.16-16.62-22.08-16.62Zm20.1 22.62.29-.02a15.83 15.83 0 0 0 12.59 4.2c12.09 24.3-6.76 54.29-33.96 53.85-48.42-1.76-50.49-70.32-2.47-75.17-2.4 12.52 11.7 23.05 22.98 17.04.19.04.37.1.58.1ZM137.04 86c-6.84.1-12.2-6.68-10.4-13.3 6.6.89 12.68 5.96 14.77 12.3-1.38.64-2.85 1-4.37 1Z" fill="#22379C"/></svg>