<svg width="28" height="28" viewBox="0 0 171 171" fill="none" xmlns="http://www.w3.org/2000/svg"><mask id="mask0_1002_1130" style="mask-type:luminance" maskUnits="userSpaceOnUse" x="0" y="0" width="171" height="171"><path d="M0 0h171v171H0V0Z" fill="#fff"/></mask><g mask="url(#mask0_1002_1130)" fill-rule="evenodd" clip-rule="evenodd" fill="#22379C"><path d="M82.98 170.5c1.61.66 3.43.66 5.04 0a111.9 111.9 0 0 0 69.62-103.6V33.86c0-2.7-1.62-5.14-4.12-6.17L88.06.5a6.68 6.68 0 0 0-5.12 0L17.48 27.7a6.68 6.68 0 0 0-4.12 6.17V66.9a111.9 111.9 0 0 0 69.62 103.6Zm2.52-13.44A98.55 98.55 0 0 1 26.72 66.9V38.32l58.78-24.4 58.78 24.4V66.9a98.55 98.55 0 0 1-58.78 90.16Z"/><path d="M73.4 103.58a6.68 6.68 0 0 0 9.44 0l33.43-33.43a6.68 6.68 0 1 0-9.44-9.45L78.12 89.41 64.17 75.47a6.68 6.68 0 1 0-9.44 9.44l18.66 18.67Z"/></g></svg>